G04 #@! TF.GenerationSoftware,KiCad,Pcbnew,(5.0.0)*
G04 #@! TF.CreationDate,2020-07-21T01:32:20+09:00*
G04 #@! TF.ProjectId,WioTerminal_M5Adapter,57696F5465726D696E616C5F4D354164,rev?*
G04 #@! TF.SameCoordinates,PX206cc80PYfe6f74f0*
G04 #@! TF.FileFunction,Legend,Bot*
G04 #@! TF.FilePolarity,Positive*
%FSLAX46Y46*%
G04 Gerber Fmt 4.6, Leading zero omitted, Abs format (unit mm)*
G04 Created by KiCad (PCBNEW (5.0.0)) date 07/21/20 01:32:20*
%MOMM*%
%LPD*%
G01*
G04 APERTURE LIST*
%ADD10C,0.150000*%
%ADD11C,0.200000*%
%ADD12C,0.300000*%
%ADD13C,0.120000*%
%ADD14C,0.010000*%
G04 APERTURE END LIST*
D10*
X-16800000Y-19000000D02*
X-17800000Y-19000000D01*
X-19200000Y-19000000D02*
X-20200000Y-19000000D01*
X-19700000Y-18500000D02*
X-19700000Y-19500000D01*
D11*
X-5447620Y11727142D02*
X-5447620Y11108095D01*
X-5066667Y11441428D01*
X-5066667Y11298571D01*
X-5019048Y11203333D01*
X-4971429Y11155714D01*
X-4876191Y11108095D01*
X-4638096Y11108095D01*
X-4542858Y11155714D01*
X-4495239Y11203333D01*
X-4447620Y11298571D01*
X-4447620Y11584285D01*
X-4495239Y11679523D01*
X-4542858Y11727142D01*
X-4542858Y10679523D02*
X-4495239Y10631904D01*
X-4447620Y10679523D01*
X-4495239Y10727142D01*
X-4542858Y10679523D01*
X-4447620Y10679523D01*
X-5447620Y10298571D02*
X-5447620Y9679523D01*
X-5066667Y10012857D01*
X-5066667Y9870000D01*
X-5019048Y9774761D01*
X-4971429Y9727142D01*
X-4876191Y9679523D01*
X-4638096Y9679523D01*
X-4542858Y9727142D01*
X-4495239Y9774761D01*
X-4447620Y9870000D01*
X-4447620Y10155714D01*
X-4495239Y10250952D01*
X-4542858Y10298571D01*
X-5447620Y9393809D02*
X-4447620Y9060476D01*
X-5447620Y8727142D01*
X-18547620Y11727142D02*
X-18547620Y11108095D01*
X-18166667Y11441428D01*
X-18166667Y11298571D01*
X-18119048Y11203333D01*
X-18071429Y11155714D01*
X-17976191Y11108095D01*
X-17738096Y11108095D01*
X-17642858Y11155714D01*
X-17595239Y11203333D01*
X-17547620Y11298571D01*
X-17547620Y11584285D01*
X-17595239Y11679523D01*
X-17642858Y11727142D01*
X-17642858Y10679523D02*
X-17595239Y10631904D01*
X-17547620Y10679523D01*
X-17595239Y10727142D01*
X-17642858Y10679523D01*
X-17547620Y10679523D01*
X-18547620Y10298571D02*
X-18547620Y9679523D01*
X-18166667Y10012857D01*
X-18166667Y9870000D01*
X-18119048Y9774761D01*
X-18071429Y9727142D01*
X-17976191Y9679523D01*
X-17738096Y9679523D01*
X-17642858Y9727142D01*
X-17595239Y9774761D01*
X-17547620Y9870000D01*
X-17547620Y10155714D01*
X-17595239Y10250952D01*
X-17642858Y10298571D01*
X-18547620Y9393809D02*
X-17547620Y9060476D01*
X-18547620Y8727142D01*
X-15595239Y12179523D02*
X-15547620Y12036666D01*
X-15547620Y11798571D01*
X-15595239Y11703333D01*
X-15642858Y11655714D01*
X-15738096Y11608095D01*
X-15833334Y11608095D01*
X-15928572Y11655714D01*
X-15976191Y11703333D01*
X-16023810Y11798571D01*
X-16071429Y11989047D01*
X-16119048Y12084285D01*
X-16166667Y12131904D01*
X-16261905Y12179523D01*
X-16357143Y12179523D01*
X-16452381Y12131904D01*
X-16500000Y12084285D01*
X-16547620Y11989047D01*
X-16547620Y11750952D01*
X-16500000Y11608095D01*
X-15642858Y10608095D02*
X-15595239Y10655714D01*
X-15547620Y10798571D01*
X-15547620Y10893809D01*
X-15595239Y11036666D01*
X-15690477Y11131904D01*
X-15785715Y11179523D01*
X-15976191Y11227142D01*
X-16119048Y11227142D01*
X-16309524Y11179523D01*
X-16404762Y11131904D01*
X-16500000Y11036666D01*
X-16547620Y10893809D01*
X-16547620Y10798571D01*
X-16500000Y10655714D01*
X-16452381Y10608095D01*
X-15547620Y9703333D02*
X-15547620Y10179523D01*
X-16547620Y10179523D01*
X-13595239Y12179523D02*
X-13547620Y12036666D01*
X-13547620Y11798571D01*
X-13595239Y11703333D01*
X-13642858Y11655714D01*
X-13738096Y11608095D01*
X-13833334Y11608095D01*
X-13928572Y11655714D01*
X-13976191Y11703333D01*
X-14023810Y11798571D01*
X-14071429Y11989047D01*
X-14119048Y12084285D01*
X-14166667Y12131904D01*
X-14261905Y12179523D01*
X-14357143Y12179523D01*
X-14452381Y12131904D01*
X-14500000Y12084285D01*
X-14547620Y11989047D01*
X-14547620Y11750952D01*
X-14500000Y11608095D01*
X-13547620Y11179523D02*
X-14547620Y11179523D01*
X-14547620Y10941428D01*
X-14500000Y10798571D01*
X-14404762Y10703333D01*
X-14309524Y10655714D01*
X-14119048Y10608095D01*
X-13976191Y10608095D01*
X-13785715Y10655714D01*
X-13690477Y10703333D01*
X-13595239Y10798571D01*
X-13547620Y10941428D01*
X-13547620Y11179523D01*
X-13833334Y10227142D02*
X-13833334Y9750952D01*
X-13547620Y10322380D02*
X-14547620Y9989047D01*
X-13547620Y9655714D01*
X-1547620Y11560476D02*
X-2023810Y11893809D01*
X-1547620Y12131904D02*
X-2547620Y12131904D01*
X-2547620Y11750952D01*
X-2500000Y11655714D01*
X-2452381Y11608095D01*
X-2357143Y11560476D01*
X-2214286Y11560476D01*
X-2119048Y11608095D01*
X-2071429Y11655714D01*
X-2023810Y11750952D01*
X-2023810Y12131904D01*
X-1547620Y11227142D02*
X-2214286Y10703333D01*
X-2214286Y11227142D02*
X-1547620Y10703333D01*
X-1547620Y10322380D02*
X-2547620Y10322380D01*
X-2547620Y10084285D01*
X-2500000Y9941428D01*
X-2404762Y9846190D01*
X-2309524Y9798571D01*
X-2119048Y9750952D01*
X-1976191Y9750952D01*
X-1785715Y9798571D01*
X-1690477Y9846190D01*
X-1595239Y9941428D01*
X-1547620Y10084285D01*
X-1547620Y10322380D01*
X-547620Y12274761D02*
X-547620Y11703333D01*
X452380Y11989047D02*
X-547620Y11989047D01*
X452380Y11465238D02*
X-214286Y10941428D01*
X-214286Y11465238D02*
X452380Y10941428D01*
X452380Y10560476D02*
X-547620Y10560476D01*
X-547620Y10322380D01*
X-500000Y10179523D01*
X-404762Y10084285D01*
X-309524Y10036666D01*
X-119048Y9989047D01*
X23809Y9989047D01*
X214285Y10036666D01*
X309523Y10084285D01*
X404761Y10179523D01*
X452380Y10322380D01*
X452380Y10560476D01*
D10*
X-10500000Y-19000000D02*
X-11500000Y-19000000D01*
X-13500000Y-18500000D02*
X-13500000Y-19500000D01*
X-13000000Y-19000000D02*
X-14000000Y-19000000D01*
D12*
X-24353572Y-19347858D02*
X-22853572Y-19347858D01*
X-23925000Y-18847858D01*
X-22853572Y-18347858D01*
X-24353572Y-18347858D01*
X-22853572Y-16919286D02*
X-22853572Y-17633572D01*
X-23567858Y-17705000D01*
X-23496429Y-17633572D01*
X-23425000Y-17490715D01*
X-23425000Y-17133572D01*
X-23496429Y-16990715D01*
X-23567858Y-16919286D01*
X-23710715Y-16847858D01*
X-24067858Y-16847858D01*
X-24210715Y-16919286D01*
X-24282143Y-16990715D01*
X-24353572Y-17133572D01*
X-24353572Y-17490715D01*
X-24282143Y-17633572D01*
X-24210715Y-17705000D01*
X-23567858Y-14562143D02*
X-23639286Y-14347858D01*
X-23710715Y-14276429D01*
X-23853572Y-14205001D01*
X-24067858Y-14205001D01*
X-24210715Y-14276429D01*
X-24282143Y-14347858D01*
X-24353572Y-14490715D01*
X-24353572Y-15062143D01*
X-22853572Y-15062143D01*
X-22853572Y-14562143D01*
X-22925000Y-14419286D01*
X-22996429Y-14347858D01*
X-23139286Y-14276429D01*
X-23282143Y-14276429D01*
X-23425000Y-14347858D01*
X-23496429Y-14419286D01*
X-23567858Y-14562143D01*
X-23567858Y-15062143D01*
X-24353572Y-13347858D02*
X-24282143Y-13490715D01*
X-24210715Y-13562143D01*
X-24067858Y-13633572D01*
X-23639286Y-13633572D01*
X-23496429Y-13562143D01*
X-23425000Y-13490715D01*
X-23353572Y-13347858D01*
X-23353572Y-13133572D01*
X-23425000Y-12990715D01*
X-23496429Y-12919286D01*
X-23639286Y-12847858D01*
X-24067858Y-12847858D01*
X-24210715Y-12919286D01*
X-24282143Y-12990715D01*
X-24353572Y-13133572D01*
X-24353572Y-13347858D01*
X-23353572Y-12419286D02*
X-23353572Y-11847858D01*
X-22853572Y-12205001D02*
X-24139286Y-12205001D01*
X-24282143Y-12133572D01*
X-24353572Y-11990715D01*
X-24353572Y-11847858D01*
X-23353572Y-11562143D02*
X-23353572Y-10990715D01*
X-22853572Y-11347858D02*
X-24139286Y-11347858D01*
X-24282143Y-11276429D01*
X-24353572Y-11133572D01*
X-24353572Y-10990715D01*
X-24353572Y-10276429D02*
X-24282143Y-10419286D01*
X-24210715Y-10490715D01*
X-24067858Y-10562143D01*
X-23639286Y-10562143D01*
X-23496429Y-10490715D01*
X-23425000Y-10419286D01*
X-23353572Y-10276429D01*
X-23353572Y-10062143D01*
X-23425000Y-9919286D01*
X-23496429Y-9847858D01*
X-23639286Y-9776429D01*
X-24067858Y-9776429D01*
X-24210715Y-9847858D01*
X-24282143Y-9919286D01*
X-24353572Y-10062143D01*
X-24353572Y-10276429D01*
X-24353572Y-9133572D02*
X-23353572Y-9133572D01*
X-23496429Y-9133572D02*
X-23425000Y-9062143D01*
X-23353572Y-8919286D01*
X-23353572Y-8705001D01*
X-23425000Y-8562143D01*
X-23567858Y-8490715D01*
X-24353572Y-8490715D01*
X-23567858Y-8490715D02*
X-23425000Y-8419286D01*
X-23353572Y-8276429D01*
X-23353572Y-8062143D01*
X-23425000Y-7919286D01*
X-23567858Y-7847858D01*
X-24353572Y-7847858D01*
X-23925000Y-6062143D02*
X-23925000Y-5347858D01*
X-24353572Y-6205001D02*
X-22853572Y-5705001D01*
X-24353572Y-5205001D01*
X-24353572Y-4062143D02*
X-22853572Y-4062143D01*
X-24282143Y-4062143D02*
X-24353572Y-4205001D01*
X-24353572Y-4490715D01*
X-24282143Y-4633572D01*
X-24210715Y-4705001D01*
X-24067858Y-4776429D01*
X-23639286Y-4776429D01*
X-23496429Y-4705001D01*
X-23425000Y-4633572D01*
X-23353572Y-4490715D01*
X-23353572Y-4205001D01*
X-23425000Y-4062143D01*
X-24353572Y-2705001D02*
X-23567858Y-2705001D01*
X-23425000Y-2776429D01*
X-23353572Y-2919286D01*
X-23353572Y-3205001D01*
X-23425000Y-3347858D01*
X-24282143Y-2705001D02*
X-24353572Y-2847858D01*
X-24353572Y-3205001D01*
X-24282143Y-3347858D01*
X-24139286Y-3419286D01*
X-23996429Y-3419286D01*
X-23853572Y-3347858D01*
X-23782143Y-3205001D01*
X-23782143Y-2847858D01*
X-23710715Y-2705001D01*
X-23353572Y-1990715D02*
X-24853572Y-1990715D01*
X-23425000Y-1990715D02*
X-23353572Y-1847858D01*
X-23353572Y-1562143D01*
X-23425000Y-1419286D01*
X-23496429Y-1347858D01*
X-23639286Y-1276429D01*
X-24067858Y-1276429D01*
X-24210715Y-1347858D01*
X-24282143Y-1419286D01*
X-24353572Y-1562143D01*
X-24353572Y-1847858D01*
X-24282143Y-1990715D01*
X-23353572Y-847858D02*
X-23353572Y-276429D01*
X-22853572Y-633572D02*
X-24139286Y-633572D01*
X-24282143Y-562143D01*
X-24353572Y-419286D01*
X-24353572Y-276429D01*
X-24282143Y794999D02*
X-24353572Y652142D01*
X-24353572Y366428D01*
X-24282143Y223571D01*
X-24139286Y152142D01*
X-23567858Y152142D01*
X-23425000Y223571D01*
X-23353572Y366428D01*
X-23353572Y652142D01*
X-23425000Y794999D01*
X-23567858Y866428D01*
X-23710715Y866428D01*
X-23853572Y152142D01*
X-24353572Y1509285D02*
X-23353572Y1509285D01*
X-23639286Y1509285D02*
X-23496429Y1580714D01*
X-23425000Y1652142D01*
X-23353572Y1794999D01*
X-23353572Y1937857D01*
X-25903572Y-19562143D02*
X-25903572Y-18990715D01*
X-26903572Y-19347858D02*
X-25617858Y-19347858D01*
X-25475000Y-19276429D01*
X-25403572Y-19133572D01*
X-25403572Y-18990715D01*
X-26903572Y-18276429D02*
X-26832143Y-18419286D01*
X-26760715Y-18490715D01*
X-26617858Y-18562143D01*
X-26189286Y-18562143D01*
X-26046429Y-18490715D01*
X-25975000Y-18419286D01*
X-25903572Y-18276429D01*
X-25903572Y-18062143D01*
X-25975000Y-17919286D01*
X-26046429Y-17847858D01*
X-26189286Y-17776429D01*
X-26617858Y-17776429D01*
X-26760715Y-17847858D01*
X-26832143Y-17919286D01*
X-26903572Y-18062143D01*
X-26903572Y-18276429D01*
X-26903572Y-17133572D02*
X-25903572Y-17133572D01*
X-26189286Y-17133572D02*
X-26046429Y-17062143D01*
X-25975000Y-16990715D01*
X-25903572Y-16847858D01*
X-25903572Y-16705000D01*
X-25403572Y-15205000D02*
X-26903572Y-14847858D01*
X-25832143Y-14562143D01*
X-26903572Y-14276429D01*
X-25403572Y-13919286D01*
X-26903572Y-13347858D02*
X-25903572Y-13347858D01*
X-25403572Y-13347858D02*
X-25475000Y-13419286D01*
X-25546429Y-13347858D01*
X-25475000Y-13276429D01*
X-25403572Y-13347858D01*
X-25546429Y-13347858D01*
X-26903572Y-12419286D02*
X-26832143Y-12562143D01*
X-26760715Y-12633572D01*
X-26617858Y-12705000D01*
X-26189286Y-12705000D01*
X-26046429Y-12633572D01*
X-25975000Y-12562143D01*
X-25903572Y-12419286D01*
X-25903572Y-12205000D01*
X-25975000Y-12062143D01*
X-26046429Y-11990715D01*
X-26189286Y-11919286D01*
X-26617858Y-11919286D01*
X-26760715Y-11990715D01*
X-26832143Y-12062143D01*
X-26903572Y-12205000D01*
X-26903572Y-12419286D01*
X-25403572Y-10347858D02*
X-25403572Y-9490715D01*
X-26903572Y-9919286D02*
X-25403572Y-9919286D01*
X-26832143Y-8419286D02*
X-26903572Y-8562143D01*
X-26903572Y-8847858D01*
X-26832143Y-8990715D01*
X-26689286Y-9062143D01*
X-26117858Y-9062143D01*
X-25975000Y-8990715D01*
X-25903572Y-8847858D01*
X-25903572Y-8562143D01*
X-25975000Y-8419286D01*
X-26117858Y-8347858D01*
X-26260715Y-8347858D01*
X-26403572Y-9062143D01*
X-26903572Y-7705000D02*
X-25903572Y-7705000D01*
X-26189286Y-7705000D02*
X-26046429Y-7633572D01*
X-25975000Y-7562143D01*
X-25903572Y-7419286D01*
X-25903572Y-7276429D01*
X-26903572Y-6776429D02*
X-25903572Y-6776429D01*
X-26046429Y-6776429D02*
X-25975000Y-6705000D01*
X-25903572Y-6562143D01*
X-25903572Y-6347858D01*
X-25975000Y-6205000D01*
X-26117858Y-6133572D01*
X-26903572Y-6133572D01*
X-26117858Y-6133572D02*
X-25975000Y-6062143D01*
X-25903572Y-5919286D01*
X-25903572Y-5705000D01*
X-25975000Y-5562143D01*
X-26117858Y-5490715D01*
X-26903572Y-5490715D01*
X-26903572Y-4776429D02*
X-25903572Y-4776429D01*
X-25403572Y-4776429D02*
X-25475000Y-4847858D01*
X-25546429Y-4776429D01*
X-25475000Y-4705000D01*
X-25403572Y-4776429D01*
X-25546429Y-4776429D01*
X-25903572Y-4062143D02*
X-26903572Y-4062143D01*
X-26046429Y-4062143D02*
X-25975000Y-3990715D01*
X-25903572Y-3847858D01*
X-25903572Y-3633572D01*
X-25975000Y-3490715D01*
X-26117858Y-3419286D01*
X-26903572Y-3419286D01*
X-26903572Y-2062143D02*
X-26117858Y-2062143D01*
X-25975000Y-2133572D01*
X-25903572Y-2276429D01*
X-25903572Y-2562143D01*
X-25975000Y-2705000D01*
X-26832143Y-2062143D02*
X-26903572Y-2205000D01*
X-26903572Y-2562143D01*
X-26832143Y-2705000D01*
X-26689286Y-2776429D01*
X-26546429Y-2776429D01*
X-26403572Y-2705000D01*
X-26332143Y-2562143D01*
X-26332143Y-2205000D01*
X-26260715Y-2062143D01*
X-26903572Y-1133572D02*
X-26832143Y-1276429D01*
X-26689286Y-1347858D01*
X-25403572Y-1347858D01*
X-28096429Y-19419286D02*
X-28025000Y-19347858D01*
X-27953572Y-19205000D01*
X-27953572Y-18847858D01*
X-28025000Y-18705000D01*
X-28096429Y-18633572D01*
X-28239286Y-18562143D01*
X-28382143Y-18562143D01*
X-28596429Y-18633572D01*
X-29453572Y-19490715D01*
X-29453572Y-18562143D01*
X-27953572Y-17633572D02*
X-27953572Y-17490715D01*
X-28025000Y-17347858D01*
X-28096429Y-17276429D01*
X-28239286Y-17205000D01*
X-28525000Y-17133572D01*
X-28882143Y-17133572D01*
X-29167858Y-17205000D01*
X-29310715Y-17276429D01*
X-29382143Y-17347858D01*
X-29453572Y-17490715D01*
X-29453572Y-17633572D01*
X-29382143Y-17776429D01*
X-29310715Y-17847858D01*
X-29167858Y-17919286D01*
X-28882143Y-17990715D01*
X-28525000Y-17990715D01*
X-28239286Y-17919286D01*
X-28096429Y-17847858D01*
X-28025000Y-17776429D01*
X-27953572Y-17633572D01*
X-28096429Y-16562143D02*
X-28025000Y-16490715D01*
X-27953572Y-16347858D01*
X-27953572Y-15990715D01*
X-28025000Y-15847858D01*
X-28096429Y-15776429D01*
X-28239286Y-15705000D01*
X-28382143Y-15705000D01*
X-28596429Y-15776429D01*
X-29453572Y-16633572D01*
X-29453572Y-15705000D01*
X-27953572Y-14776429D02*
X-27953572Y-14633572D01*
X-28025000Y-14490715D01*
X-28096429Y-14419286D01*
X-28239286Y-14347858D01*
X-28525000Y-14276429D01*
X-28882143Y-14276429D01*
X-29167858Y-14347858D01*
X-29310715Y-14419286D01*
X-29382143Y-14490715D01*
X-29453572Y-14633572D01*
X-29453572Y-14776429D01*
X-29382143Y-14919286D01*
X-29310715Y-14990715D01*
X-29167858Y-15062143D01*
X-28882143Y-15133572D01*
X-28525000Y-15133572D01*
X-28239286Y-15062143D01*
X-28096429Y-14990715D01*
X-28025000Y-14919286D01*
X-27953572Y-14776429D01*
X-28882143Y-13633572D02*
X-28882143Y-12490715D01*
X-27953572Y-11490715D02*
X-27953572Y-11347858D01*
X-28025000Y-11205000D01*
X-28096429Y-11133572D01*
X-28239286Y-11062143D01*
X-28525000Y-10990715D01*
X-28882143Y-10990715D01*
X-29167858Y-11062143D01*
X-29310715Y-11133572D01*
X-29382143Y-11205000D01*
X-29453572Y-11347858D01*
X-29453572Y-11490715D01*
X-29382143Y-11633572D01*
X-29310715Y-11705000D01*
X-29167858Y-11776429D01*
X-28882143Y-11847858D01*
X-28525000Y-11847858D01*
X-28239286Y-11776429D01*
X-28096429Y-11705000D01*
X-28025000Y-11633572D01*
X-27953572Y-11490715D01*
X-27953572Y-10490715D02*
X-27953572Y-9490715D01*
X-29453572Y-10133572D01*
X-28882143Y-8919286D02*
X-28882143Y-7776429D01*
X-29453572Y-6276429D02*
X-29453572Y-7133572D01*
X-29453572Y-6705000D02*
X-27953572Y-6705000D01*
X-28167858Y-6847858D01*
X-28310715Y-6990715D01*
X-28382143Y-7133572D01*
X-29453572Y-5562143D02*
X-29453572Y-5276429D01*
X-29382143Y-5133572D01*
X-29310715Y-5062143D01*
X-29096429Y-4919286D01*
X-28810715Y-4847858D01*
X-28239286Y-4847858D01*
X-28096429Y-4919286D01*
X-28025000Y-4990715D01*
X-27953572Y-5133572D01*
X-27953572Y-5419286D01*
X-28025000Y-5562143D01*
X-28096429Y-5633572D01*
X-28239286Y-5705000D01*
X-28596429Y-5705000D01*
X-28739286Y-5633572D01*
X-28810715Y-5562143D01*
X-28882143Y-5419286D01*
X-28882143Y-5133572D01*
X-28810715Y-4990715D01*
X-28739286Y-4919286D01*
X-28596429Y-4847858D01*
X-29453572Y-2205000D02*
X-28739286Y-2705000D01*
X-29453572Y-3062143D02*
X-27953572Y-3062143D01*
X-27953572Y-2490715D01*
X-28025000Y-2347858D01*
X-28096429Y-2276429D01*
X-28239286Y-2205000D01*
X-28453572Y-2205000D01*
X-28596429Y-2276429D01*
X-28667858Y-2347858D01*
X-28739286Y-2490715D01*
X-28739286Y-3062143D01*
X-29382143Y-990715D02*
X-29453572Y-1133572D01*
X-29453572Y-1419286D01*
X-29382143Y-1562143D01*
X-29239286Y-1633572D01*
X-28667858Y-1633572D01*
X-28525000Y-1562143D01*
X-28453572Y-1419286D01*
X-28453572Y-1133572D01*
X-28525000Y-990715D01*
X-28667858Y-919286D01*
X-28810715Y-919286D01*
X-28953572Y-1633572D01*
X-28453572Y-419286D02*
X-29453572Y-62143D01*
X-28453572Y295000D01*
X-29310715Y866428D02*
X-29382143Y937857D01*
X-29453572Y866428D01*
X-29382143Y795000D01*
X-29310715Y866428D01*
X-29453572Y866428D01*
X-28667858Y2080714D02*
X-28739286Y2295000D01*
X-28810715Y2366428D01*
X-28953572Y2437857D01*
X-29167858Y2437857D01*
X-29310715Y2366428D01*
X-29382143Y2295000D01*
X-29453572Y2152142D01*
X-29453572Y1580714D01*
X-27953572Y1580714D01*
X-27953572Y2080714D01*
X-28025000Y2223571D01*
X-28096429Y2295000D01*
X-28239286Y2366428D01*
X-28382143Y2366428D01*
X-28525000Y2295000D01*
X-28596429Y2223571D01*
X-28667858Y2080714D01*
X-28667858Y1580714D01*
X-32003572Y-19347858D02*
X-30503572Y-19347858D01*
X-31075000Y-19347858D02*
X-31003572Y-19205000D01*
X-31003572Y-18919286D01*
X-31075000Y-18776429D01*
X-31146429Y-18705000D01*
X-31289286Y-18633572D01*
X-31717858Y-18633572D01*
X-31860715Y-18705000D01*
X-31932143Y-18776429D01*
X-32003572Y-18919286D01*
X-32003572Y-19205000D01*
X-31932143Y-19347858D01*
X-31003572Y-18133572D02*
X-32003572Y-17776429D01*
X-31003572Y-17419286D02*
X-32003572Y-17776429D01*
X-32360715Y-17919286D01*
X-32432143Y-17990715D01*
X-32503572Y-18133572D01*
X-32003572Y-15705000D02*
X-30503572Y-15705000D01*
X-32003572Y-14847858D02*
X-31146429Y-15490715D01*
X-30503572Y-14847858D02*
X-31360715Y-15705000D01*
X-31932143Y-13633572D02*
X-32003572Y-13776429D01*
X-32003572Y-14062143D01*
X-31932143Y-14205000D01*
X-31789286Y-14276429D01*
X-31217858Y-14276429D01*
X-31075000Y-14205000D01*
X-31003572Y-14062143D01*
X-31003572Y-13776429D01*
X-31075000Y-13633572D01*
X-31217858Y-13562143D01*
X-31360715Y-13562143D01*
X-31503572Y-14276429D01*
X-31003572Y-12919286D02*
X-32003572Y-12919286D01*
X-31146429Y-12919286D02*
X-31075000Y-12847858D01*
X-31003572Y-12705000D01*
X-31003572Y-12490715D01*
X-31075000Y-12347858D01*
X-31217858Y-12276429D01*
X-32003572Y-12276429D01*
X-31003572Y-11776429D02*
X-31003572Y-11205000D01*
X-30503572Y-11562143D02*
X-31789286Y-11562143D01*
X-31932143Y-11490715D01*
X-32003572Y-11347858D01*
X-32003572Y-11205000D01*
X-32003572Y-10062143D02*
X-31217858Y-10062143D01*
X-31075000Y-10133572D01*
X-31003572Y-10276429D01*
X-31003572Y-10562143D01*
X-31075000Y-10705000D01*
X-31932143Y-10062143D02*
X-32003572Y-10205000D01*
X-32003572Y-10562143D01*
X-31932143Y-10705000D01*
X-31789286Y-10776429D01*
X-31646429Y-10776429D01*
X-31503572Y-10705000D01*
X-31432143Y-10562143D01*
X-31432143Y-10205000D01*
X-31360715Y-10062143D01*
X-32003572Y-8205000D02*
X-30503572Y-8205000D01*
X-32003572Y-7490715D02*
X-30503572Y-7490715D01*
X-30503572Y-7133572D01*
X-30575000Y-6919286D01*
X-30717858Y-6776429D01*
X-30860715Y-6705000D01*
X-31146429Y-6633572D01*
X-31360715Y-6633572D01*
X-31646429Y-6705000D01*
X-31789286Y-6776429D01*
X-31932143Y-6919286D01*
X-32003572Y-7133572D01*
X-32003572Y-7490715D01*
X-31575000Y-6062143D02*
X-31575000Y-5347858D01*
X-32003572Y-6205000D02*
X-30503572Y-5705000D01*
X-32003572Y-5205000D01*
X-32575000Y-3133572D02*
X-32503572Y-3205000D01*
X-32289286Y-3347858D01*
X-32146429Y-3419286D01*
X-31932143Y-3490715D01*
X-31575000Y-3562143D01*
X-31289286Y-3562143D01*
X-30932143Y-3490715D01*
X-30717858Y-3419286D01*
X-30575000Y-3347858D01*
X-30360715Y-3205000D01*
X-30289286Y-3133572D01*
X-31289286Y-1633572D02*
X-31217858Y-1705000D01*
X-31146429Y-1847858D01*
X-31146429Y-1990715D01*
X-31217858Y-2133572D01*
X-31289286Y-2205000D01*
X-31432143Y-2276429D01*
X-31575000Y-2276429D01*
X-31717858Y-2205000D01*
X-31789286Y-2133572D01*
X-31860715Y-1990715D01*
X-31860715Y-1847858D01*
X-31789286Y-1705000D01*
X-31717858Y-1633572D01*
X-31146429Y-1633572D02*
X-31717858Y-1633572D01*
X-31789286Y-1562143D01*
X-31789286Y-1490715D01*
X-31717858Y-1347858D01*
X-31575000Y-1276429D01*
X-31217858Y-1276429D01*
X-31003572Y-1419286D01*
X-30860715Y-1633572D01*
X-30789286Y-1919286D01*
X-30860715Y-2205000D01*
X-31003572Y-2419286D01*
X-31217858Y-2562143D01*
X-31503572Y-2633572D01*
X-31789286Y-2562143D01*
X-32003572Y-2419286D01*
X-32146429Y-2205000D01*
X-32217858Y-1919286D01*
X-32146429Y-1633572D01*
X-32003572Y-1419286D01*
X-31932143Y9285D02*
X-32003572Y-133572D01*
X-32003572Y-419286D01*
X-31932143Y-562143D01*
X-31860715Y-633572D01*
X-31717858Y-705000D01*
X-31289286Y-705000D01*
X-31146429Y-633572D01*
X-31075000Y-562143D01*
X-31003572Y-419286D01*
X-31003572Y-133572D01*
X-31075000Y9285D01*
X-32003572Y652142D02*
X-31003572Y652142D01*
X-30503572Y652142D02*
X-30575000Y580714D01*
X-30646429Y652142D01*
X-30575000Y723571D01*
X-30503572Y652142D01*
X-30646429Y652142D01*
X-31003572Y1366428D02*
X-32003572Y1366428D01*
X-31146429Y1366428D02*
X-31075000Y1437857D01*
X-31003572Y1580714D01*
X-31003572Y1795000D01*
X-31075000Y1937857D01*
X-31217858Y2009285D01*
X-32003572Y2009285D01*
X-32003572Y2723571D02*
X-31003572Y2723571D01*
X-30503572Y2723571D02*
X-30575000Y2652142D01*
X-30646429Y2723571D01*
X-30575000Y2795000D01*
X-30503572Y2723571D01*
X-30646429Y2723571D01*
X-32003572Y3437857D02*
X-31003572Y3437857D01*
X-31146429Y3437857D02*
X-31075000Y3509285D01*
X-31003572Y3652142D01*
X-31003572Y3866428D01*
X-31075000Y4009285D01*
X-31217858Y4080714D01*
X-32003572Y4080714D01*
X-31217858Y4080714D02*
X-31075000Y4152142D01*
X-31003572Y4295000D01*
X-31003572Y4509285D01*
X-31075000Y4652142D01*
X-31217858Y4723571D01*
X-32003572Y4723571D01*
X-32003572Y5652142D02*
X-31932143Y5509285D01*
X-31789286Y5437857D01*
X-30503572Y5437857D01*
X-32575000Y6080714D02*
X-32503572Y6152142D01*
X-32289286Y6295000D01*
X-32146429Y6366428D01*
X-31932143Y6437857D01*
X-31575000Y6509285D01*
X-31289286Y6509285D01*
X-30932143Y6437857D01*
X-30717858Y6366428D01*
X-30575000Y6295000D01*
X-30360715Y6152142D01*
X-30289286Y6080714D01*
D10*
G04 #@! TO.C,J3*
X-400000Y13100000D02*
X400000Y13100000D01*
X400000Y13200000D02*
X-400000Y13100000D01*
X-400000Y13200000D02*
X400000Y13200000D01*
X300000Y13300000D02*
X-400000Y13200000D01*
X-300000Y13300000D02*
X300000Y13300000D01*
X300000Y13400000D02*
X-300000Y13300000D01*
X-300000Y13400000D02*
X300000Y13400000D01*
X200000Y13500000D02*
X-300000Y13400000D01*
X-200000Y13500000D02*
X200000Y13500000D01*
X200000Y13600000D02*
X-200000Y13500000D01*
X-200000Y13600000D02*
X200000Y13600000D01*
X100000Y13700000D02*
X-200000Y13600000D01*
X-100000Y13700000D02*
X100000Y13700000D01*
X100000Y13800000D02*
X-100000Y13700000D01*
X-100000Y13800000D02*
X100000Y13800000D01*
X-500000Y13000000D02*
X0Y14000000D01*
X500000Y13000000D02*
X-500000Y13000000D01*
X0Y14000000D02*
X500000Y13000000D01*
G04 #@! TO.C,J4*
X-14400000Y13100000D02*
X-13600000Y13100000D01*
X-13600000Y13200000D02*
X-14400000Y13100000D01*
X-14400000Y13200000D02*
X-13600000Y13200000D01*
X-13700000Y13300000D02*
X-14400000Y13200000D01*
X-14300000Y13300000D02*
X-13700000Y13300000D01*
X-13700000Y13400000D02*
X-14300000Y13300000D01*
X-14300000Y13400000D02*
X-13700000Y13400000D01*
X-13800000Y13500000D02*
X-14300000Y13400000D01*
X-14200000Y13500000D02*
X-13800000Y13500000D01*
X-13800000Y13600000D02*
X-14200000Y13500000D01*
X-14200000Y13600000D02*
X-13800000Y13600000D01*
X-13900000Y13700000D02*
X-14200000Y13600000D01*
X-14100000Y13700000D02*
X-13900000Y13700000D01*
X-13900000Y13800000D02*
X-14100000Y13700000D01*
X-14100000Y13800000D02*
X-13900000Y13800000D01*
X-14500000Y13000000D02*
X-14000000Y14000000D01*
X-13500000Y13000000D02*
X-14500000Y13000000D01*
X-14000000Y14000000D02*
X-13500000Y13000000D01*
D13*
G04 #@! TO.C,J2*
X-15930000Y-18070000D02*
X-15930000Y-16800000D01*
X-17200000Y-18070000D02*
X-15930000Y-18070000D01*
G04 #@! TO.C,J6*
X-11000000Y-18070000D02*
X-9730000Y-18070000D01*
X-9730000Y-18070000D02*
X-9730000Y-16800000D01*
D14*
G04 #@! TO.C,LOGO1*
G36*
X-26132153Y8563172D02*
X-26196708Y8648787D01*
X-26276829Y8707610D01*
X-26344831Y8724445D01*
X-26391040Y8742978D01*
X-26462102Y8791830D01*
X-26543491Y8860873D01*
X-26552176Y8869005D01*
X-26632799Y8943082D01*
X-26689528Y8985034D01*
X-26738588Y9002441D01*
X-26796204Y9002882D01*
X-26831215Y8999343D01*
X-26957485Y8967246D01*
X-27036272Y8904838D01*
X-27067440Y8812235D01*
X-27068000Y8795396D01*
X-27061175Y8746259D01*
X-27035815Y8694811D01*
X-26984594Y8630760D01*
X-26900188Y8543816D01*
X-26863389Y8507946D01*
X-26767401Y8420936D01*
X-26676787Y8348895D01*
X-26604633Y8301771D01*
X-26576339Y8289760D01*
X-26491100Y8255998D01*
X-26424366Y8214695D01*
X-26360111Y8175492D01*
X-26307474Y8160000D01*
X-26253727Y8182024D01*
X-26189608Y8236852D01*
X-26131558Y8307619D01*
X-26096260Y8376651D01*
X-26094793Y8467036D01*
X-26132153Y8563172D01*
X-26132153Y8563172D01*
G37*
X-26132153Y8563172D02*
X-26196708Y8648787D01*
X-26276829Y8707610D01*
X-26344831Y8724445D01*
X-26391040Y8742978D01*
X-26462102Y8791830D01*
X-26543491Y8860873D01*
X-26552176Y8869005D01*
X-26632799Y8943082D01*
X-26689528Y8985034D01*
X-26738588Y9002441D01*
X-26796204Y9002882D01*
X-26831215Y8999343D01*
X-26957485Y8967246D01*
X-27036272Y8904838D01*
X-27067440Y8812235D01*
X-27068000Y8795396D01*
X-27061175Y8746259D01*
X-27035815Y8694811D01*
X-26984594Y8630760D01*
X-26900188Y8543816D01*
X-26863389Y8507946D01*
X-26767401Y8420936D01*
X-26676787Y8348895D01*
X-26604633Y8301771D01*
X-26576339Y8289760D01*
X-26491100Y8255998D01*
X-26424366Y8214695D01*
X-26360111Y8175492D01*
X-26307474Y8160000D01*
X-26253727Y8182024D01*
X-26189608Y8236852D01*
X-26131558Y8307619D01*
X-26096260Y8376651D01*
X-26094793Y8467036D01*
X-26132153Y8563172D01*
G36*
X-27681103Y9834215D02*
X-27735288Y9904895D01*
X-27812537Y9989597D01*
X-27902165Y10077929D01*
X-27993488Y10159498D01*
X-28075821Y10223910D01*
X-28138479Y10260774D01*
X-28150798Y10264691D01*
X-28234986Y10297097D01*
X-28316526Y10348828D01*
X-28318999Y10350876D01*
X-28393642Y10403230D01*
X-28454023Y10412062D01*
X-28520869Y10378139D01*
X-28545861Y10359285D01*
X-28591354Y10314504D01*
X-28613542Y10259947D01*
X-28620107Y10174394D01*
X-28620222Y10153898D01*
X-28611504Y10049025D01*
X-28588716Y9966353D01*
X-28577802Y9946440D01*
X-28523042Y9897701D01*
X-28443513Y9856515D01*
X-28429635Y9851637D01*
X-28350962Y9813285D01*
X-28257359Y9749682D01*
X-28191043Y9694255D01*
X-28110450Y9624572D01*
X-28047449Y9587292D01*
X-27981912Y9572827D01*
X-27932496Y9571111D01*
X-27843628Y9578281D01*
X-27782755Y9607796D01*
X-27733731Y9657943D01*
X-27686813Y9723846D01*
X-27661893Y9778621D01*
X-27660667Y9787951D01*
X-27681103Y9834215D01*
X-27681103Y9834215D01*
G37*
X-27681103Y9834215D02*
X-27735288Y9904895D01*
X-27812537Y9989597D01*
X-27902165Y10077929D01*
X-27993488Y10159498D01*
X-28075821Y10223910D01*
X-28138479Y10260774D01*
X-28150798Y10264691D01*
X-28234986Y10297097D01*
X-28316526Y10348828D01*
X-28318999Y10350876D01*
X-28393642Y10403230D01*
X-28454023Y10412062D01*
X-28520869Y10378139D01*
X-28545861Y10359285D01*
X-28591354Y10314504D01*
X-28613542Y10259947D01*
X-28620107Y10174394D01*
X-28620222Y10153898D01*
X-28611504Y10049025D01*
X-28588716Y9966353D01*
X-28577802Y9946440D01*
X-28523042Y9897701D01*
X-28443513Y9856515D01*
X-28429635Y9851637D01*
X-28350962Y9813285D01*
X-28257359Y9749682D01*
X-28191043Y9694255D01*
X-28110450Y9624572D01*
X-28047449Y9587292D01*
X-27981912Y9572827D01*
X-27932496Y9571111D01*
X-27843628Y9578281D01*
X-27782755Y9607796D01*
X-27733731Y9657943D01*
X-27686813Y9723846D01*
X-27661893Y9778621D01*
X-27660667Y9787951D01*
X-27681103Y9834215D01*
G36*
X-28402561Y7878238D02*
X-28450653Y7933970D01*
X-28535084Y8024354D01*
X-28800524Y8014566D01*
X-28935355Y8007281D01*
X-29026324Y7995659D01*
X-29085983Y7977244D01*
X-29125316Y7951015D01*
X-29176831Y7870562D01*
X-29183052Y7776897D01*
X-29144945Y7689150D01*
X-29110305Y7654049D01*
X-29065605Y7625470D01*
X-29010761Y7607855D01*
X-28931630Y7598741D01*
X-28814069Y7595669D01*
X-28774147Y7595556D01*
X-28650838Y7596303D01*
X-28570198Y7600927D01*
X-28518454Y7612999D01*
X-28481834Y7636090D01*
X-28446562Y7673772D01*
X-28439287Y7682388D01*
X-28384694Y7757562D01*
X-28372168Y7816565D01*
X-28402561Y7878238D01*
X-28402561Y7878238D01*
G37*
X-28402561Y7878238D02*
X-28450653Y7933970D01*
X-28535084Y8024354D01*
X-28800524Y8014566D01*
X-28935355Y8007281D01*
X-29026324Y7995659D01*
X-29085983Y7977244D01*
X-29125316Y7951015D01*
X-29176831Y7870562D01*
X-29183052Y7776897D01*
X-29144945Y7689150D01*
X-29110305Y7654049D01*
X-29065605Y7625470D01*
X-29010761Y7607855D01*
X-28931630Y7598741D01*
X-28814069Y7595669D01*
X-28774147Y7595556D01*
X-28650838Y7596303D01*
X-28570198Y7600927D01*
X-28518454Y7612999D01*
X-28481834Y7636090D01*
X-28446562Y7673772D01*
X-28439287Y7682388D01*
X-28384694Y7757562D01*
X-28372168Y7816565D01*
X-28402561Y7878238D01*
G36*
X-27257770Y8564215D02*
X-27311955Y8634895D01*
X-27389204Y8719597D01*
X-27478832Y8807929D01*
X-27570155Y8889498D01*
X-27652488Y8953910D01*
X-27715146Y8990774D01*
X-27727464Y8994691D01*
X-27811652Y9027097D01*
X-27893193Y9078828D01*
X-27895666Y9080876D01*
X-28004372Y9137908D01*
X-28084912Y9147778D01*
X-28216210Y9174710D01*
X-28301469Y9220501D01*
X-28350353Y9251590D01*
X-28396249Y9271863D01*
X-28452008Y9283185D01*
X-28530477Y9287418D01*
X-28644506Y9286429D01*
X-28739045Y9284001D01*
X-29069533Y9274778D01*
X-29194943Y9151619D01*
X-29288192Y9039750D01*
X-29331715Y8929637D01*
X-29329959Y8807184D01*
X-29319190Y8757717D01*
X-29276854Y8673338D01*
X-29208322Y8609518D01*
X-29132149Y8583358D01*
X-29129968Y8583334D01*
X-29089270Y8602044D01*
X-29024459Y8650896D01*
X-28955701Y8713474D01*
X-28870587Y8790280D01*
X-28799244Y8833553D01*
X-28721176Y8854611D01*
X-28693468Y8858279D01*
X-28596596Y8861404D01*
X-28520032Y8838793D01*
X-28457736Y8801350D01*
X-28370010Y8751586D01*
X-28282410Y8716334D01*
X-28262339Y8711175D01*
X-28189226Y8686486D01*
X-28140137Y8653519D01*
X-28092866Y8619371D01*
X-28018436Y8585813D01*
X-28004132Y8580921D01*
X-27926760Y8543031D01*
X-27834080Y8479813D01*
X-27767709Y8424255D01*
X-27687116Y8354572D01*
X-27624116Y8317292D01*
X-27558579Y8302827D01*
X-27509162Y8301111D01*
X-27420295Y8308281D01*
X-27359421Y8337796D01*
X-27310398Y8387943D01*
X-27263480Y8453846D01*
X-27238559Y8508621D01*
X-27237334Y8517951D01*
X-27257770Y8564215D01*
X-27257770Y8564215D01*
G37*
X-27257770Y8564215D02*
X-27311955Y8634895D01*
X-27389204Y8719597D01*
X-27478832Y8807929D01*
X-27570155Y8889498D01*
X-27652488Y8953910D01*
X-27715146Y8990774D01*
X-27727464Y8994691D01*
X-27811652Y9027097D01*
X-27893193Y9078828D01*
X-27895666Y9080876D01*
X-28004372Y9137908D01*
X-28084912Y9147778D01*
X-28216210Y9174710D01*
X-28301469Y9220501D01*
X-28350353Y9251590D01*
X-28396249Y9271863D01*
X-28452008Y9283185D01*
X-28530477Y9287418D01*
X-28644506Y9286429D01*
X-28739045Y9284001D01*
X-29069533Y9274778D01*
X-29194943Y9151619D01*
X-29288192Y9039750D01*
X-29331715Y8929637D01*
X-29329959Y8807184D01*
X-29319190Y8757717D01*
X-29276854Y8673338D01*
X-29208322Y8609518D01*
X-29132149Y8583358D01*
X-29129968Y8583334D01*
X-29089270Y8602044D01*
X-29024459Y8650896D01*
X-28955701Y8713474D01*
X-28870587Y8790280D01*
X-28799244Y8833553D01*
X-28721176Y8854611D01*
X-28693468Y8858279D01*
X-28596596Y8861404D01*
X-28520032Y8838793D01*
X-28457736Y8801350D01*
X-28370010Y8751586D01*
X-28282410Y8716334D01*
X-28262339Y8711175D01*
X-28189226Y8686486D01*
X-28140137Y8653519D01*
X-28092866Y8619371D01*
X-28018436Y8585813D01*
X-28004132Y8580921D01*
X-27926760Y8543031D01*
X-27834080Y8479813D01*
X-27767709Y8424255D01*
X-27687116Y8354572D01*
X-27624116Y8317292D01*
X-27558579Y8302827D01*
X-27509162Y8301111D01*
X-27420295Y8308281D01*
X-27359421Y8337796D01*
X-27310398Y8387943D01*
X-27263480Y8453846D01*
X-27238559Y8508621D01*
X-27237334Y8517951D01*
X-27257770Y8564215D01*
G36*
X-29363428Y13600714D02*
X-29386205Y13651144D01*
X-29448672Y13776222D01*
X-29650632Y13776222D01*
X-29769347Y13772234D01*
X-29836614Y13759760D01*
X-29856825Y13740945D01*
X-29864971Y13689587D01*
X-29878483Y13616398D01*
X-29883104Y13560413D01*
X-29866674Y13509802D01*
X-29821382Y13447835D01*
X-29776145Y13397202D01*
X-29677949Y13302329D01*
X-29597724Y13255018D01*
X-29526850Y13253042D01*
X-29456709Y13294173D01*
X-29439113Y13310128D01*
X-29364318Y13402040D01*
X-29339814Y13494230D01*
X-29363428Y13600714D01*
X-29363428Y13600714D01*
G37*
X-29363428Y13600714D02*
X-29386205Y13651144D01*
X-29448672Y13776222D01*
X-29650632Y13776222D01*
X-29769347Y13772234D01*
X-29836614Y13759760D01*
X-29856825Y13740945D01*
X-29864971Y13689587D01*
X-29878483Y13616398D01*
X-29883104Y13560413D01*
X-29866674Y13509802D01*
X-29821382Y13447835D01*
X-29776145Y13397202D01*
X-29677949Y13302329D01*
X-29597724Y13255018D01*
X-29526850Y13253042D01*
X-29456709Y13294173D01*
X-29439113Y13310128D01*
X-29364318Y13402040D01*
X-29339814Y13494230D01*
X-29363428Y13600714D01*
G36*
X-29531852Y12966534D02*
X-29563223Y13005593D01*
X-29615521Y13055262D01*
X-29675002Y13078658D01*
X-29765353Y13084765D01*
X-29771927Y13084778D01*
X-29901733Y13067945D01*
X-29986684Y13017161D01*
X-30027335Y12931998D01*
X-30031334Y12884897D01*
X-30011088Y12794536D01*
X-29956972Y12734049D01*
X-29849721Y12684825D01*
X-29761925Y12675556D01*
X-29673551Y12683784D01*
X-29611515Y12717069D01*
X-29568176Y12762388D01*
X-29512537Y12840159D01*
X-29500560Y12901815D01*
X-29531852Y12966534D01*
X-29531852Y12966534D01*
G37*
X-29531852Y12966534D02*
X-29563223Y13005593D01*
X-29615521Y13055262D01*
X-29675002Y13078658D01*
X-29765353Y13084765D01*
X-29771927Y13084778D01*
X-29901733Y13067945D01*
X-29986684Y13017161D01*
X-30027335Y12931998D01*
X-30031334Y12884897D01*
X-30011088Y12794536D01*
X-29956972Y12734049D01*
X-29849721Y12684825D01*
X-29761925Y12675556D01*
X-29673551Y12683784D01*
X-29611515Y12717069D01*
X-29568176Y12762388D01*
X-29512537Y12840159D01*
X-29500560Y12901815D01*
X-29531852Y12966534D01*
G36*
X-30106093Y12275990D02*
X-30169696Y12347291D01*
X-30248928Y12421059D01*
X-30329604Y12484749D01*
X-30397543Y12525820D01*
X-30428217Y12534445D01*
X-30489112Y12552053D01*
X-30560716Y12595389D01*
X-30572703Y12605000D01*
X-30638614Y12651070D01*
X-30694267Y12674723D01*
X-30702260Y12675556D01*
X-30752141Y12690872D01*
X-30824005Y12729438D01*
X-30854589Y12749445D01*
X-30921334Y12790439D01*
X-30983755Y12810827D01*
X-31064115Y12815402D01*
X-31143786Y12811710D01*
X-31285088Y12792012D01*
X-31378163Y12751581D01*
X-31428680Y12686447D01*
X-31442445Y12602674D01*
X-31421336Y12510579D01*
X-31370564Y12453778D01*
X-31291350Y12406417D01*
X-31217292Y12379360D01*
X-31146749Y12353456D01*
X-31103470Y12322407D01*
X-31056176Y12288318D01*
X-30981712Y12254930D01*
X-30967465Y12250098D01*
X-30887131Y12218115D01*
X-30825546Y12183133D01*
X-30819723Y12178451D01*
X-30763020Y12143115D01*
X-30684875Y12109132D01*
X-30678612Y12106947D01*
X-30590983Y12068637D01*
X-30515123Y12022513D01*
X-30514361Y12021928D01*
X-30426260Y11982335D01*
X-30325297Y11970000D01*
X-30240537Y11976774D01*
X-30183182Y12006337D01*
X-30129220Y12067438D01*
X-30077615Y12156007D01*
X-30072301Y12219697D01*
X-30106093Y12275990D01*
X-30106093Y12275990D01*
G37*
X-30106093Y12275990D02*
X-30169696Y12347291D01*
X-30248928Y12421059D01*
X-30329604Y12484749D01*
X-30397543Y12525820D01*
X-30428217Y12534445D01*
X-30489112Y12552053D01*
X-30560716Y12595389D01*
X-30572703Y12605000D01*
X-30638614Y12651070D01*
X-30694267Y12674723D01*
X-30702260Y12675556D01*
X-30752141Y12690872D01*
X-30824005Y12729438D01*
X-30854589Y12749445D01*
X-30921334Y12790439D01*
X-30983755Y12810827D01*
X-31064115Y12815402D01*
X-31143786Y12811710D01*
X-31285088Y12792012D01*
X-31378163Y12751581D01*
X-31428680Y12686447D01*
X-31442445Y12602674D01*
X-31421336Y12510579D01*
X-31370564Y12453778D01*
X-31291350Y12406417D01*
X-31217292Y12379360D01*
X-31146749Y12353456D01*
X-31103470Y12322407D01*
X-31056176Y12288318D01*
X-30981712Y12254930D01*
X-30967465Y12250098D01*
X-30887131Y12218115D01*
X-30825546Y12183133D01*
X-30819723Y12178451D01*
X-30763020Y12143115D01*
X-30684875Y12109132D01*
X-30678612Y12106947D01*
X-30590983Y12068637D01*
X-30515123Y12022513D01*
X-30514361Y12021928D01*
X-30426260Y11982335D01*
X-30325297Y11970000D01*
X-30240537Y11976774D01*
X-30183182Y12006337D01*
X-30129220Y12067438D01*
X-30077615Y12156007D01*
X-30072301Y12219697D01*
X-30106093Y12275990D01*
G36*
X-29620011Y11147208D02*
X-29657204Y11243941D01*
X-29718331Y11329010D01*
X-29758298Y11362591D01*
X-29821283Y11388795D01*
X-29887618Y11380807D01*
X-29965844Y11334837D01*
X-30064499Y11247095D01*
X-30100828Y11210551D01*
X-30173708Y11139543D01*
X-30233387Y11088192D01*
X-30267624Y11066975D01*
X-30268675Y11066889D01*
X-30297315Y11085777D01*
X-30358262Y11137916D01*
X-30444035Y11216521D01*
X-30547153Y11314808D01*
X-30613038Y11379222D01*
X-30929605Y11691554D01*
X-31410677Y11682611D01*
X-31891748Y11673667D01*
X-32019874Y11547846D01*
X-32148000Y11422026D01*
X-32148000Y11190061D01*
X-32146697Y11074067D01*
X-32140309Y10999979D01*
X-32125118Y10953278D01*
X-32097407Y10919444D01*
X-32073639Y10899604D01*
X-32008353Y10858846D01*
X-31953292Y10841135D01*
X-31951919Y10841111D01*
X-31892835Y10864583D01*
X-31826849Y10924135D01*
X-31768103Y11003475D01*
X-31730740Y11086310D01*
X-31727525Y11099604D01*
X-31697565Y11177010D01*
X-31640010Y11227080D01*
X-31546742Y11253336D01*
X-31409646Y11259301D01*
X-31362875Y11257838D01*
X-31156305Y11249039D01*
X-30946597Y11034523D01*
X-30860060Y10942016D01*
X-30790892Y10860491D01*
X-30747488Y10800313D01*
X-30736889Y10775545D01*
X-30759181Y10723290D01*
X-30815257Y10659327D01*
X-30888921Y10598171D01*
X-30963972Y10554338D01*
X-30995550Y10543754D01*
X-31064516Y10517456D01*
X-31104085Y10487963D01*
X-31151380Y10453874D01*
X-31225844Y10420486D01*
X-31240091Y10415654D01*
X-31322499Y10382052D01*
X-31387747Y10343593D01*
X-31393510Y10338869D01*
X-31448791Y10310718D01*
X-31536932Y10285410D01*
X-31600643Y10273974D01*
X-31734255Y10243490D01*
X-31818978Y10192658D01*
X-31859983Y10117355D01*
X-31865778Y10062674D01*
X-31851953Y9977092D01*
X-31806418Y9916511D01*
X-31723080Y9877812D01*
X-31595848Y9857874D01*
X-31457124Y9853334D01*
X-31329537Y9855009D01*
X-31245551Y9861544D01*
X-31192385Y9875205D01*
X-31157255Y9898255D01*
X-31147559Y9908178D01*
X-31083759Y9953758D01*
X-31009129Y9981571D01*
X-30939394Y10011567D01*
X-30854787Y10068914D01*
X-30800506Y10115932D01*
X-30725368Y10182732D01*
X-30676029Y10203927D01*
X-30641562Y10176543D01*
X-30611037Y10097603D01*
X-30600458Y10061468D01*
X-30561320Y9977930D01*
X-30495652Y9887930D01*
X-30416465Y9804838D01*
X-30336770Y9742028D01*
X-30269575Y9712871D01*
X-30260665Y9712222D01*
X-30204551Y9734915D01*
X-30139138Y9791627D01*
X-30079169Y9865311D01*
X-30039391Y9938919D01*
X-30031334Y9977377D01*
X-30046898Y10040159D01*
X-30086073Y10120887D01*
X-30106170Y10152784D01*
X-30158734Y10255933D01*
X-30184320Y10362483D01*
X-30181988Y10457369D01*
X-30150796Y10525526D01*
X-30130464Y10541689D01*
X-30070951Y10584215D01*
X-29989896Y10654266D01*
X-29897547Y10741457D01*
X-29804156Y10835403D01*
X-29719971Y10925719D01*
X-29655244Y11002019D01*
X-29620224Y11053918D01*
X-29617390Y11061539D01*
X-29620011Y11147208D01*
X-29620011Y11147208D01*
G37*
X-29620011Y11147208D02*
X-29657204Y11243941D01*
X-29718331Y11329010D01*
X-29758298Y11362591D01*
X-29821283Y11388795D01*
X-29887618Y11380807D01*
X-29965844Y11334837D01*
X-30064499Y11247095D01*
X-30100828Y11210551D01*
X-30173708Y11139543D01*
X-30233387Y11088192D01*
X-30267624Y11066975D01*
X-30268675Y11066889D01*
X-30297315Y11085777D01*
X-30358262Y11137916D01*
X-30444035Y11216521D01*
X-30547153Y11314808D01*
X-30613038Y11379222D01*
X-30929605Y11691554D01*
X-31410677Y11682611D01*
X-31891748Y11673667D01*
X-32019874Y11547846D01*
X-32148000Y11422026D01*
X-32148000Y11190061D01*
X-32146697Y11074067D01*
X-32140309Y10999979D01*
X-32125118Y10953278D01*
X-32097407Y10919444D01*
X-32073639Y10899604D01*
X-32008353Y10858846D01*
X-31953292Y10841135D01*
X-31951919Y10841111D01*
X-31892835Y10864583D01*
X-31826849Y10924135D01*
X-31768103Y11003475D01*
X-31730740Y11086310D01*
X-31727525Y11099604D01*
X-31697565Y11177010D01*
X-31640010Y11227080D01*
X-31546742Y11253336D01*
X-31409646Y11259301D01*
X-31362875Y11257838D01*
X-31156305Y11249039D01*
X-30946597Y11034523D01*
X-30860060Y10942016D01*
X-30790892Y10860491D01*
X-30747488Y10800313D01*
X-30736889Y10775545D01*
X-30759181Y10723290D01*
X-30815257Y10659327D01*
X-30888921Y10598171D01*
X-30963972Y10554338D01*
X-30995550Y10543754D01*
X-31064516Y10517456D01*
X-31104085Y10487963D01*
X-31151380Y10453874D01*
X-31225844Y10420486D01*
X-31240091Y10415654D01*
X-31322499Y10382052D01*
X-31387747Y10343593D01*
X-31393510Y10338869D01*
X-31448791Y10310718D01*
X-31536932Y10285410D01*
X-31600643Y10273974D01*
X-31734255Y10243490D01*
X-31818978Y10192658D01*
X-31859983Y10117355D01*
X-31865778Y10062674D01*
X-31851953Y9977092D01*
X-31806418Y9916511D01*
X-31723080Y9877812D01*
X-31595848Y9857874D01*
X-31457124Y9853334D01*
X-31329537Y9855009D01*
X-31245551Y9861544D01*
X-31192385Y9875205D01*
X-31157255Y9898255D01*
X-31147559Y9908178D01*
X-31083759Y9953758D01*
X-31009129Y9981571D01*
X-30939394Y10011567D01*
X-30854787Y10068914D01*
X-30800506Y10115932D01*
X-30725368Y10182732D01*
X-30676029Y10203927D01*
X-30641562Y10176543D01*
X-30611037Y10097603D01*
X-30600458Y10061468D01*
X-30561320Y9977930D01*
X-30495652Y9887930D01*
X-30416465Y9804838D01*
X-30336770Y9742028D01*
X-30269575Y9712871D01*
X-30260665Y9712222D01*
X-30204551Y9734915D01*
X-30139138Y9791627D01*
X-30079169Y9865311D01*
X-30039391Y9938919D01*
X-30031334Y9977377D01*
X-30046898Y10040159D01*
X-30086073Y10120887D01*
X-30106170Y10152784D01*
X-30158734Y10255933D01*
X-30184320Y10362483D01*
X-30181988Y10457369D01*
X-30150796Y10525526D01*
X-30130464Y10541689D01*
X-30070951Y10584215D01*
X-29989896Y10654266D01*
X-29897547Y10741457D01*
X-29804156Y10835403D01*
X-29719971Y10925719D01*
X-29655244Y11002019D01*
X-29620224Y11053918D01*
X-29617390Y11061539D01*
X-29620011Y11147208D01*
D13*
G04 #@! TO.C,C12*
X-4837221Y13510000D02*
X-5162779Y13510000D01*
X-4837221Y12490000D02*
X-5162779Y12490000D01*
G04 #@! TO.C,C13*
X-18924721Y12490000D02*
X-19250279Y12490000D01*
X-18924721Y13510000D02*
X-19250279Y13510000D01*
G04 #@! TO.C,J5*
X21650000Y19110000D02*
X16450000Y19110000D01*
X21650000Y-19110000D02*
X16450000Y-19110000D01*
X23090000Y18540000D02*
X21650000Y18540000D01*
X21650000Y19110000D02*
X21650000Y18540000D01*
X16450000Y19110000D02*
X16450000Y18540000D01*
X21650000Y-18540000D02*
X21650000Y-19110000D01*
X16450000Y-18540000D02*
X16450000Y-19110000D01*
X21650000Y17020000D02*
X21650000Y16000000D01*
X16450000Y17020000D02*
X16450000Y16000000D01*
X21650000Y14480000D02*
X21650000Y13460000D01*
X16450000Y14480000D02*
X16450000Y13460000D01*
X21650000Y11940000D02*
X21650000Y10920000D01*
X16450000Y11940000D02*
X16450000Y10920000D01*
X21650000Y9400000D02*
X21650000Y8380000D01*
X16450000Y9400000D02*
X16450000Y8380000D01*
X21650000Y6860000D02*
X21650000Y5840000D01*
X16450000Y6860000D02*
X16450000Y5840000D01*
X21650000Y4320000D02*
X21650000Y3300000D01*
X16450000Y4320000D02*
X16450000Y3300000D01*
X21650000Y1780000D02*
X21650000Y760000D01*
X16450000Y1780000D02*
X16450000Y760000D01*
X21650000Y-760000D02*
X21650000Y-1780000D01*
X16450000Y-760000D02*
X16450000Y-1780000D01*
X21650000Y-3300000D02*
X21650000Y-4320000D01*
X16450000Y-3300000D02*
X16450000Y-4320000D01*
X21650000Y-5840000D02*
X21650000Y-6860000D01*
X16450000Y-5840000D02*
X16450000Y-6860000D01*
X21650000Y-8380000D02*
X21650000Y-9400000D01*
X16450000Y-8380000D02*
X16450000Y-9400000D01*
X21650000Y-10920000D02*
X21650000Y-11940000D01*
X16450000Y-10920000D02*
X16450000Y-11940000D01*
X21650000Y-13460000D02*
X21650000Y-14480000D01*
X16450000Y-13460000D02*
X16450000Y-14480000D01*
X21650000Y-16000000D02*
X21650000Y-17020000D01*
X16450000Y-16000000D02*
X16450000Y-17020000D01*
G04 #@! TO.C,R16*
X12937221Y-18310000D02*
X13262779Y-18310000D01*
X12937221Y-17290000D02*
X13262779Y-17290000D01*
G04 #@! TO.C,J3*
D10*
X1833333Y14047619D02*
X1833333Y13333333D01*
X1880952Y13190476D01*
X1976190Y13095238D01*
X2119047Y13047619D01*
X2214285Y13047619D01*
X1452380Y14047619D02*
X833333Y14047619D01*
X1166666Y13666666D01*
X1023809Y13666666D01*
X928571Y13619047D01*
X880952Y13571428D01*
X833333Y13476190D01*
X833333Y13238095D01*
X880952Y13142857D01*
X928571Y13095238D01*
X1023809Y13047619D01*
X1309523Y13047619D01*
X1404761Y13095238D01*
X1452380Y13142857D01*
G04 #@! TO.C,J4*
X-12166667Y14047619D02*
X-12166667Y13333333D01*
X-12119048Y13190476D01*
X-12023810Y13095238D01*
X-11880953Y13047619D01*
X-11785715Y13047619D01*
X-13071429Y13714285D02*
X-13071429Y13047619D01*
X-12833334Y14095238D02*
X-12595239Y13380952D01*
X-13214286Y13380952D01*
G04 #@! TO.C,J2*
X-22517620Y-20851667D02*
X-21803334Y-20851667D01*
X-21660477Y-20804048D01*
X-21565239Y-20708810D01*
X-21517620Y-20565953D01*
X-21517620Y-20470715D01*
X-22422381Y-21280239D02*
X-22470000Y-21327858D01*
X-22517620Y-21423096D01*
X-22517620Y-21661191D01*
X-22470000Y-21756429D01*
X-22422381Y-21804048D01*
X-22327143Y-21851667D01*
X-22231905Y-21851667D01*
X-22089048Y-21804048D01*
X-21517620Y-21232620D01*
X-21517620Y-21851667D01*
G04 #@! TO.C,J6*
X-16317620Y-20851667D02*
X-15603334Y-20851667D01*
X-15460477Y-20804048D01*
X-15365239Y-20708810D01*
X-15317620Y-20565953D01*
X-15317620Y-20470715D01*
X-16317620Y-21756429D02*
X-16317620Y-21565953D01*
X-16270000Y-21470715D01*
X-16222381Y-21423096D01*
X-16079524Y-21327858D01*
X-15889048Y-21280239D01*
X-15508096Y-21280239D01*
X-15412858Y-21327858D01*
X-15365239Y-21375477D01*
X-15317620Y-21470715D01*
X-15317620Y-21661191D01*
X-15365239Y-21756429D01*
X-15412858Y-21804048D01*
X-15508096Y-21851667D01*
X-15746191Y-21851667D01*
X-15841429Y-21804048D01*
X-15889048Y-21756429D01*
X-15936667Y-21661191D01*
X-15936667Y-21470715D01*
X-15889048Y-21375477D01*
X-15841429Y-21327858D01*
X-15746191Y-21280239D01*
G04 #@! TO.C,SW1*
X13833333Y-19704762D02*
X13690476Y-19752381D01*
X13452380Y-19752381D01*
X13357142Y-19704762D01*
X13309523Y-19657143D01*
X13261904Y-19561905D01*
X13261904Y-19466667D01*
X13309523Y-19371429D01*
X13357142Y-19323810D01*
X13452380Y-19276191D01*
X13642857Y-19228572D01*
X13738095Y-19180953D01*
X13785714Y-19133334D01*
X13833333Y-19038096D01*
X13833333Y-18942858D01*
X13785714Y-18847620D01*
X13738095Y-18800000D01*
X13642857Y-18752381D01*
X13404761Y-18752381D01*
X13261904Y-18800000D01*
X12928571Y-18752381D02*
X12690476Y-19752381D01*
X12500000Y-19038096D01*
X12309523Y-19752381D01*
X12071428Y-18752381D01*
X11166666Y-19752381D02*
X11738095Y-19752381D01*
X11452380Y-19752381D02*
X11452380Y-18752381D01*
X11547619Y-18895239D01*
X11642857Y-18990477D01*
X11738095Y-19038096D01*
G04 #@! TO.C,C12*
X-7357143Y12642857D02*
X-7309524Y12595238D01*
X-7166667Y12547619D01*
X-7071429Y12547619D01*
X-6928572Y12595238D01*
X-6833334Y12690476D01*
X-6785715Y12785714D01*
X-6738096Y12976190D01*
X-6738096Y13119047D01*
X-6785715Y13309523D01*
X-6833334Y13404761D01*
X-6928572Y13500000D01*
X-7071429Y13547619D01*
X-7166667Y13547619D01*
X-7309524Y13500000D01*
X-7357143Y13452380D01*
X-8309524Y12547619D02*
X-7738096Y12547619D01*
X-8023810Y12547619D02*
X-8023810Y13547619D01*
X-7928572Y13404761D01*
X-7833334Y13309523D01*
X-7738096Y13261904D01*
X-8690477Y13452380D02*
X-8738096Y13500000D01*
X-8833334Y13547619D01*
X-9071429Y13547619D01*
X-9166667Y13500000D01*
X-9214286Y13452380D01*
X-9261905Y13357142D01*
X-9261905Y13261904D01*
X-9214286Y13119047D01*
X-8642858Y12547619D01*
X-9261905Y12547619D01*
G04 #@! TO.C,C13*
X-21357143Y12642857D02*
X-21309524Y12595238D01*
X-21166667Y12547619D01*
X-21071429Y12547619D01*
X-20928572Y12595238D01*
X-20833334Y12690476D01*
X-20785715Y12785714D01*
X-20738096Y12976190D01*
X-20738096Y13119047D01*
X-20785715Y13309523D01*
X-20833334Y13404761D01*
X-20928572Y13500000D01*
X-21071429Y13547619D01*
X-21166667Y13547619D01*
X-21309524Y13500000D01*
X-21357143Y13452380D01*
X-22309524Y12547619D02*
X-21738096Y12547619D01*
X-22023810Y12547619D02*
X-22023810Y13547619D01*
X-21928572Y13404761D01*
X-21833334Y13309523D01*
X-21738096Y13261904D01*
X-22642858Y13547619D02*
X-23261905Y13547619D01*
X-22928572Y13166666D01*
X-23071429Y13166666D01*
X-23166667Y13119047D01*
X-23214286Y13071428D01*
X-23261905Y12976190D01*
X-23261905Y12738095D01*
X-23214286Y12642857D01*
X-23166667Y12595238D01*
X-23071429Y12547619D01*
X-22785715Y12547619D01*
X-22690477Y12595238D01*
X-22642858Y12642857D01*
G04 #@! TO.C,J5*
X19383333Y20657619D02*
X19383333Y19943333D01*
X19430952Y19800476D01*
X19526190Y19705238D01*
X19669047Y19657619D01*
X19764285Y19657619D01*
X18430952Y20657619D02*
X18907142Y20657619D01*
X18954761Y20181428D01*
X18907142Y20229047D01*
X18811904Y20276666D01*
X18573809Y20276666D01*
X18478571Y20229047D01*
X18430952Y20181428D01*
X18383333Y20086190D01*
X18383333Y19848095D01*
X18430952Y19752857D01*
X18478571Y19705238D01*
X18573809Y19657619D01*
X18811904Y19657619D01*
X18907142Y19705238D01*
X18954761Y19752857D01*
G04 #@! TO.C,R16*
X12342857Y-16752381D02*
X12676190Y-16276191D01*
X12914285Y-16752381D02*
X12914285Y-15752381D01*
X12533333Y-15752381D01*
X12438095Y-15800000D01*
X12390476Y-15847620D01*
X12342857Y-15942858D01*
X12342857Y-16085715D01*
X12390476Y-16180953D01*
X12438095Y-16228572D01*
X12533333Y-16276191D01*
X12914285Y-16276191D01*
X11390476Y-16752381D02*
X11961904Y-16752381D01*
X11676190Y-16752381D02*
X11676190Y-15752381D01*
X11771428Y-15895239D01*
X11866666Y-15990477D01*
X11961904Y-16038096D01*
X10533333Y-15752381D02*
X10723809Y-15752381D01*
X10819047Y-15800000D01*
X10866666Y-15847620D01*
X10961904Y-15990477D01*
X11009523Y-16180953D01*
X11009523Y-16561905D01*
X10961904Y-16657143D01*
X10914285Y-16704762D01*
X10819047Y-16752381D01*
X10628571Y-16752381D01*
X10533333Y-16704762D01*
X10485714Y-16657143D01*
X10438095Y-16561905D01*
X10438095Y-16323810D01*
X10485714Y-16228572D01*
X10533333Y-16180953D01*
X10628571Y-16133334D01*
X10819047Y-16133334D01*
X10914285Y-16180953D01*
X10961904Y-16228572D01*
X11009523Y-16323810D01*
G04 #@! TD*
M02*
