M48
;DRILL file {KiCad (5.0.0)} date 06/15/20 03:52:40
;FORMAT={-:-/ absolute / metric / decimal}
FMAT,2
METRIC,TZ
T1C0.300
T2C0.400
T3C1.000
%
G90
G05
M71
T1
X-5.1Y-7.8
X-5.1Y-8.8
X-4.6Y-8.3
X-4.1Y-7.8
X-4.1Y-8.8
T2
X-32.5Y20.
X-32.5Y15.
X-32.5Y10.
X-32.5Y5.
X-32.5Y0.
X-32.5Y-5.
X-32.5Y-10.
X-32.5Y-15.
X-32.5Y-20.
X-27.5Y25.
X-27.5Y20.
X-27.5Y12.5
X-27.5Y7.5
X-27.5Y-20.
X-27.5Y-25.
X-25.Y10.
X-25.Y7.5
X-25.Y2.5
X-24.2Y15.3
X-23.3Y5.5
X-22.7Y10.4
X-22.5Y-25.
X-22.3Y8.5
X-20.6Y6.7
X-20.5Y-14.6
X-20.Y2.5
X-19.05Y20.25
X-18.988Y10.5
X-17.5Y-25.
X-16.3Y-14.6
X-16.2Y6.9
X-15.3Y13.4
X-15.1Y5.6
X-15.Y2.5
X-14.3Y8.6
X-13.9Y10.6
X-12.7Y15.3
X-12.5Y-25.
X-12.Y-14.6
X-11.4Y10.2
X-10.3Y19.9
X-10.1Y8.7
X-10.Y21.8
X-8.9Y15.3
X-8.9Y1.4
X-8.9Y0.4
X-8.9Y-1.
X-8.9Y-2.
X-8.9Y-3.4
X-8.9Y-4.4
X-8.4Y-11.8
X-8.4Y-12.8
X-8.4Y-13.8
X-8.4Y-14.8
X-8.2Y7.8
X-8.2Y6.2
X-7.7Y-7.3
X-7.7Y-8.3
X-7.7Y-9.3
X-7.6Y19.7
X-7.5Y-25.
X-6.9Y-7.7
X-6.9Y-8.9
X-6.5Y2.5
X-6.3Y20.1
X-5.Y3.3
X-3.831Y11.1
X-3.8Y8.5
X-3.8Y-18.2
X-3.5Y20.1
X-2.6Y19.3
X-2.5Y-5.112
X-2.5Y-6.9
X-2.5Y-7.9
X-2.5Y-8.9
X-2.5Y-9.9
X-2.5Y-25.
X-2.3Y-15.7
X-2.1Y6.2
X-2.Y7.8
X-1.6Y-8.4
X-1.6Y-9.4
X-1.1Y-20.
X-1.1Y-21.3
X-0.8Y-15.5
X-0.8Y-16.5
X-0.5Y8.5
X-0.3Y-22.6
X1.4Y-19.5
X1.8Y3.5
X2.Y-24.9
X3.Y4.7
X3.3Y8.5
X3.7Y0.5
X4.1Y1.6
X4.6Y-14.5
X4.7Y-4.6
X4.9Y-23.
X5.Y-19.
X5.3Y-1.2
X5.4Y6.3
X5.4Y-9.5
X5.525Y-6.
X5.525Y-8.4
X6.3Y10.6
X6.4Y5.6
X6.8Y-9.8
X7.2Y-4.6
X7.5Y-0.8
X7.6Y-16.3
X7.8Y5.1
X7.8Y-13.7
X8.7Y1.7
X8.7Y-3.7
X8.8Y15.6
X8.9Y10.7
X9.8Y6.7
X9.8Y-4.9
X9.9Y-8.2
X9.9Y-12.
X10.3Y-0.7
X10.8Y7.5
X11.3Y-24.
X11.4Y-16.6
X11.43Y19.93
X11.7Y6.7
X11.8Y-13.7
X12.Y5.2
X12.1Y-4.9
X12.3Y1.8
X13.45Y9.18
X13.559Y6.639
X13.9Y-15.2
X13.9Y-16.7
X13.9Y-24.8
X14.Y1.1
X14.Y-1.6
X14.Y-13.7
X14.1Y10.1
X14.1Y-4.9
X14.1Y-10.1
X14.2Y2.5
X14.8Y6.3
X16.51Y19.99
X19.2Y9.8
X19.2Y8.6
X19.2Y5.1
X22.5Y-25.
X24.13Y15.17
X24.4Y-20.6
X25.Y-8.9
X25.Y-10.2
X25.Y-11.5
X25.8Y-12.7
X25.8Y-18.1
X27.5Y25.
X27.5Y-20.
X27.5Y-25.
X27.6Y2.5
X28.Y6.4
X28.Y-8.7
X28.Y-10.4
X28.8Y-6.3
X29.475Y0.019
X30.2Y-4.7
X30.225Y-1.178
X31.3Y-7.5
X32.5Y20.
X32.5Y15.
X32.5Y10.
X32.5Y5.
X32.5Y0.
X32.5Y-5.
X32.5Y-10.
X32.5Y-15.
X32.5Y-20.
T3
X-19.7Y-16.8
X-17.16Y-16.8
X-13.5Y-16.8
X-10.96Y-16.8
T0
M30
