G04 #@! TF.GenerationSoftware,KiCad,Pcbnew,(5.0.0)*
G04 #@! TF.CreationDate,2020-07-21T01:32:20+09:00*
G04 #@! TF.ProjectId,WioTerminal_M5Adapter,57696F5465726D696E616C5F4D354164,rev?*
G04 #@! TF.SameCoordinates,PX206cc80PYfe6f74f0*
G04 #@! TF.FileFunction,Soldermask,Bot*
G04 #@! TF.FilePolarity,Negative*
%FSLAX46Y46*%
G04 Gerber Fmt 4.6, Leading zero omitted, Abs format (unit mm)*
G04 Created by KiCad (PCBNEW (5.0.0)) date 07/21/20 01:32:20*
%MOMM*%
%LPD*%
G01*
G04 APERTURE LIST*
%ADD10R,1.400000X3.800000*%
%ADD11R,1.900000X4.000000*%
%ADD12C,2.100000*%
%ADD13O,2.100000X2.100000*%
%ADD14C,1.000000*%
%ADD15C,1.300000*%
%ADD16R,1.400000X2.000000*%
%ADD17C,0.100000*%
%ADD18C,1.275000*%
%ADD19R,3.550000X1.400000*%
%ADD20C,1.400000*%
%ADD21C,2.600000*%
%ADD22C,3.600000*%
G04 APERTURE END LIST*
D10*
G04 #@! TO.C,J3*
X0Y16300000D03*
X-2000000Y16300000D03*
X-4000000Y16300000D03*
X-6000000Y16300000D03*
D11*
X-8300000Y23800000D03*
X2300000Y23800000D03*
G04 #@! TD*
D10*
G04 #@! TO.C,J4*
X-14000000Y16300000D03*
X-16000000Y16300000D03*
X-18000000Y16300000D03*
X-20000000Y16300000D03*
D11*
X-22300000Y23800000D03*
X-11700000Y23800000D03*
G04 #@! TD*
D12*
G04 #@! TO.C,J2*
X-19700000Y-16800000D03*
D13*
X-17160000Y-16800000D03*
G04 #@! TD*
G04 #@! TO.C,J6*
X-10960000Y-16800000D03*
D12*
X-13500000Y-16800000D03*
G04 #@! TD*
D14*
G04 #@! TO.C,U2*
X-4600000Y-8300000D03*
X-5100000Y-8800000D03*
X-5100000Y-7800000D03*
X-4100000Y-8800000D03*
X-4100000Y-7800000D03*
G04 #@! TD*
D15*
G04 #@! TO.C,SW1*
X18600000Y-22300000D03*
X11800000Y-22300000D03*
D16*
X17700000Y-21100000D03*
X15200000Y-21100000D03*
X12700000Y-21100000D03*
X12700000Y-23500000D03*
X17700000Y-23500000D03*
X15200000Y-23500000D03*
G04 #@! TD*
D17*
G04 #@! TO.C,C12*
G36*
X-5437507Y13673465D02*
X-5406565Y13668875D01*
X-5376222Y13661275D01*
X-5346770Y13650737D01*
X-5318492Y13637362D01*
X-5291662Y13621281D01*
X-5266537Y13602647D01*
X-5243360Y13581640D01*
X-5222353Y13558463D01*
X-5203719Y13533338D01*
X-5187638Y13506508D01*
X-5174263Y13478230D01*
X-5163725Y13448778D01*
X-5156125Y13418435D01*
X-5151535Y13387493D01*
X-5150000Y13356250D01*
X-5150000Y12643750D01*
X-5151535Y12612507D01*
X-5156125Y12581565D01*
X-5163725Y12551222D01*
X-5174263Y12521770D01*
X-5187638Y12493492D01*
X-5203719Y12466662D01*
X-5222353Y12441537D01*
X-5243360Y12418360D01*
X-5266537Y12397353D01*
X-5291662Y12378719D01*
X-5318492Y12362638D01*
X-5346770Y12349263D01*
X-5376222Y12338725D01*
X-5406565Y12331125D01*
X-5437507Y12326535D01*
X-5468750Y12325000D01*
X-6106250Y12325000D01*
X-6137493Y12326535D01*
X-6168435Y12331125D01*
X-6198778Y12338725D01*
X-6228230Y12349263D01*
X-6256508Y12362638D01*
X-6283338Y12378719D01*
X-6308463Y12397353D01*
X-6331640Y12418360D01*
X-6352647Y12441537D01*
X-6371281Y12466662D01*
X-6387362Y12493492D01*
X-6400737Y12521770D01*
X-6411275Y12551222D01*
X-6418875Y12581565D01*
X-6423465Y12612507D01*
X-6425000Y12643750D01*
X-6425000Y13356250D01*
X-6423465Y13387493D01*
X-6418875Y13418435D01*
X-6411275Y13448778D01*
X-6400737Y13478230D01*
X-6387362Y13506508D01*
X-6371281Y13533338D01*
X-6352647Y13558463D01*
X-6331640Y13581640D01*
X-6308463Y13602647D01*
X-6283338Y13621281D01*
X-6256508Y13637362D01*
X-6228230Y13650737D01*
X-6198778Y13661275D01*
X-6168435Y13668875D01*
X-6137493Y13673465D01*
X-6106250Y13675000D01*
X-5468750Y13675000D01*
X-5437507Y13673465D01*
X-5437507Y13673465D01*
G37*
D18*
X-5787500Y13000000D03*
D17*
G36*
X-3862507Y13673465D02*
X-3831565Y13668875D01*
X-3801222Y13661275D01*
X-3771770Y13650737D01*
X-3743492Y13637362D01*
X-3716662Y13621281D01*
X-3691537Y13602647D01*
X-3668360Y13581640D01*
X-3647353Y13558463D01*
X-3628719Y13533338D01*
X-3612638Y13506508D01*
X-3599263Y13478230D01*
X-3588725Y13448778D01*
X-3581125Y13418435D01*
X-3576535Y13387493D01*
X-3575000Y13356250D01*
X-3575000Y12643750D01*
X-3576535Y12612507D01*
X-3581125Y12581565D01*
X-3588725Y12551222D01*
X-3599263Y12521770D01*
X-3612638Y12493492D01*
X-3628719Y12466662D01*
X-3647353Y12441537D01*
X-3668360Y12418360D01*
X-3691537Y12397353D01*
X-3716662Y12378719D01*
X-3743492Y12362638D01*
X-3771770Y12349263D01*
X-3801222Y12338725D01*
X-3831565Y12331125D01*
X-3862507Y12326535D01*
X-3893750Y12325000D01*
X-4531250Y12325000D01*
X-4562493Y12326535D01*
X-4593435Y12331125D01*
X-4623778Y12338725D01*
X-4653230Y12349263D01*
X-4681508Y12362638D01*
X-4708338Y12378719D01*
X-4733463Y12397353D01*
X-4756640Y12418360D01*
X-4777647Y12441537D01*
X-4796281Y12466662D01*
X-4812362Y12493492D01*
X-4825737Y12521770D01*
X-4836275Y12551222D01*
X-4843875Y12581565D01*
X-4848465Y12612507D01*
X-4850000Y12643750D01*
X-4850000Y13356250D01*
X-4848465Y13387493D01*
X-4843875Y13418435D01*
X-4836275Y13448778D01*
X-4825737Y13478230D01*
X-4812362Y13506508D01*
X-4796281Y13533338D01*
X-4777647Y13558463D01*
X-4756640Y13581640D01*
X-4733463Y13602647D01*
X-4708338Y13621281D01*
X-4681508Y13637362D01*
X-4653230Y13650737D01*
X-4623778Y13661275D01*
X-4593435Y13668875D01*
X-4562493Y13673465D01*
X-4531250Y13675000D01*
X-3893750Y13675000D01*
X-3862507Y13673465D01*
X-3862507Y13673465D01*
G37*
D18*
X-4212500Y13000000D03*
G04 #@! TD*
D17*
G04 #@! TO.C,C13*
G36*
X-17950007Y13673465D02*
X-17919065Y13668875D01*
X-17888722Y13661275D01*
X-17859270Y13650737D01*
X-17830992Y13637362D01*
X-17804162Y13621281D01*
X-17779037Y13602647D01*
X-17755860Y13581640D01*
X-17734853Y13558463D01*
X-17716219Y13533338D01*
X-17700138Y13506508D01*
X-17686763Y13478230D01*
X-17676225Y13448778D01*
X-17668625Y13418435D01*
X-17664035Y13387493D01*
X-17662500Y13356250D01*
X-17662500Y12643750D01*
X-17664035Y12612507D01*
X-17668625Y12581565D01*
X-17676225Y12551222D01*
X-17686763Y12521770D01*
X-17700138Y12493492D01*
X-17716219Y12466662D01*
X-17734853Y12441537D01*
X-17755860Y12418360D01*
X-17779037Y12397353D01*
X-17804162Y12378719D01*
X-17830992Y12362638D01*
X-17859270Y12349263D01*
X-17888722Y12338725D01*
X-17919065Y12331125D01*
X-17950007Y12326535D01*
X-17981250Y12325000D01*
X-18618750Y12325000D01*
X-18649993Y12326535D01*
X-18680935Y12331125D01*
X-18711278Y12338725D01*
X-18740730Y12349263D01*
X-18769008Y12362638D01*
X-18795838Y12378719D01*
X-18820963Y12397353D01*
X-18844140Y12418360D01*
X-18865147Y12441537D01*
X-18883781Y12466662D01*
X-18899862Y12493492D01*
X-18913237Y12521770D01*
X-18923775Y12551222D01*
X-18931375Y12581565D01*
X-18935965Y12612507D01*
X-18937500Y12643750D01*
X-18937500Y13356250D01*
X-18935965Y13387493D01*
X-18931375Y13418435D01*
X-18923775Y13448778D01*
X-18913237Y13478230D01*
X-18899862Y13506508D01*
X-18883781Y13533338D01*
X-18865147Y13558463D01*
X-18844140Y13581640D01*
X-18820963Y13602647D01*
X-18795838Y13621281D01*
X-18769008Y13637362D01*
X-18740730Y13650737D01*
X-18711278Y13661275D01*
X-18680935Y13668875D01*
X-18649993Y13673465D01*
X-18618750Y13675000D01*
X-17981250Y13675000D01*
X-17950007Y13673465D01*
X-17950007Y13673465D01*
G37*
D18*
X-18300000Y13000000D03*
D17*
G36*
X-19525007Y13673465D02*
X-19494065Y13668875D01*
X-19463722Y13661275D01*
X-19434270Y13650737D01*
X-19405992Y13637362D01*
X-19379162Y13621281D01*
X-19354037Y13602647D01*
X-19330860Y13581640D01*
X-19309853Y13558463D01*
X-19291219Y13533338D01*
X-19275138Y13506508D01*
X-19261763Y13478230D01*
X-19251225Y13448778D01*
X-19243625Y13418435D01*
X-19239035Y13387493D01*
X-19237500Y13356250D01*
X-19237500Y12643750D01*
X-19239035Y12612507D01*
X-19243625Y12581565D01*
X-19251225Y12551222D01*
X-19261763Y12521770D01*
X-19275138Y12493492D01*
X-19291219Y12466662D01*
X-19309853Y12441537D01*
X-19330860Y12418360D01*
X-19354037Y12397353D01*
X-19379162Y12378719D01*
X-19405992Y12362638D01*
X-19434270Y12349263D01*
X-19463722Y12338725D01*
X-19494065Y12331125D01*
X-19525007Y12326535D01*
X-19556250Y12325000D01*
X-20193750Y12325000D01*
X-20224993Y12326535D01*
X-20255935Y12331125D01*
X-20286278Y12338725D01*
X-20315730Y12349263D01*
X-20344008Y12362638D01*
X-20370838Y12378719D01*
X-20395963Y12397353D01*
X-20419140Y12418360D01*
X-20440147Y12441537D01*
X-20458781Y12466662D01*
X-20474862Y12493492D01*
X-20488237Y12521770D01*
X-20498775Y12551222D01*
X-20506375Y12581565D01*
X-20510965Y12612507D01*
X-20512500Y12643750D01*
X-20512500Y13356250D01*
X-20510965Y13387493D01*
X-20506375Y13418435D01*
X-20498775Y13448778D01*
X-20488237Y13478230D01*
X-20474862Y13506508D01*
X-20458781Y13533338D01*
X-20440147Y13558463D01*
X-20419140Y13581640D01*
X-20395963Y13602647D01*
X-20370838Y13621281D01*
X-20344008Y13637362D01*
X-20315730Y13650737D01*
X-20286278Y13661275D01*
X-20255935Y13668875D01*
X-20224993Y13673465D01*
X-20193750Y13675000D01*
X-19556250Y13675000D01*
X-19525007Y13673465D01*
X-19525007Y13673465D01*
G37*
D18*
X-19875000Y13000000D03*
G04 #@! TD*
D19*
G04 #@! TO.C,J5*
X16525000Y-17780000D03*
X21575000Y-17780000D03*
X16525000Y-15240000D03*
X21575000Y-15240000D03*
X16525000Y-12700000D03*
X21575000Y-12700000D03*
X16525000Y-10160000D03*
X21575000Y-10160000D03*
X16525000Y-7620000D03*
X21575000Y-7620000D03*
X16525000Y-5080000D03*
X21575000Y-5080000D03*
X16525000Y-2540000D03*
X21575000Y-2540000D03*
X16525000Y0D03*
X21575000Y0D03*
X16525000Y2540000D03*
X21575000Y2540000D03*
X16525000Y5080000D03*
X21575000Y5080000D03*
X16525000Y7620000D03*
X21575000Y7620000D03*
X16525000Y10160000D03*
X21575000Y10160000D03*
X16525000Y12700000D03*
X21575000Y12700000D03*
X16525000Y15240000D03*
X21575000Y15240000D03*
X16525000Y17780000D03*
X21575000Y17780000D03*
D20*
X19050000Y16510000D03*
X19050000Y-16510000D03*
G04 #@! TD*
D21*
G04 #@! TO.C,MH1*
X-30500000Y-22750000D03*
G04 #@! TD*
G04 #@! TO.C,MH2*
X30500000Y-22750000D03*
G04 #@! TD*
G04 #@! TO.C,MH3*
X30500000Y22750000D03*
G04 #@! TD*
G04 #@! TO.C,MH4*
X-30500000Y22750000D03*
G04 #@! TD*
D22*
G04 #@! TO.C,MH5*
X-22000000Y-22000000D03*
G04 #@! TD*
G04 #@! TO.C,MH6*
X22000000Y-22000000D03*
G04 #@! TD*
D17*
G04 #@! TO.C,R16*
G36*
X12662493Y-17126535D02*
X12693435Y-17131125D01*
X12723778Y-17138725D01*
X12753230Y-17149263D01*
X12781508Y-17162638D01*
X12808338Y-17178719D01*
X12833463Y-17197353D01*
X12856640Y-17218360D01*
X12877647Y-17241537D01*
X12896281Y-17266662D01*
X12912362Y-17293492D01*
X12925737Y-17321770D01*
X12936275Y-17351222D01*
X12943875Y-17381565D01*
X12948465Y-17412507D01*
X12950000Y-17443750D01*
X12950000Y-18156250D01*
X12948465Y-18187493D01*
X12943875Y-18218435D01*
X12936275Y-18248778D01*
X12925737Y-18278230D01*
X12912362Y-18306508D01*
X12896281Y-18333338D01*
X12877647Y-18358463D01*
X12856640Y-18381640D01*
X12833463Y-18402647D01*
X12808338Y-18421281D01*
X12781508Y-18437362D01*
X12753230Y-18450737D01*
X12723778Y-18461275D01*
X12693435Y-18468875D01*
X12662493Y-18473465D01*
X12631250Y-18475000D01*
X11993750Y-18475000D01*
X11962507Y-18473465D01*
X11931565Y-18468875D01*
X11901222Y-18461275D01*
X11871770Y-18450737D01*
X11843492Y-18437362D01*
X11816662Y-18421281D01*
X11791537Y-18402647D01*
X11768360Y-18381640D01*
X11747353Y-18358463D01*
X11728719Y-18333338D01*
X11712638Y-18306508D01*
X11699263Y-18278230D01*
X11688725Y-18248778D01*
X11681125Y-18218435D01*
X11676535Y-18187493D01*
X11675000Y-18156250D01*
X11675000Y-17443750D01*
X11676535Y-17412507D01*
X11681125Y-17381565D01*
X11688725Y-17351222D01*
X11699263Y-17321770D01*
X11712638Y-17293492D01*
X11728719Y-17266662D01*
X11747353Y-17241537D01*
X11768360Y-17218360D01*
X11791537Y-17197353D01*
X11816662Y-17178719D01*
X11843492Y-17162638D01*
X11871770Y-17149263D01*
X11901222Y-17138725D01*
X11931565Y-17131125D01*
X11962507Y-17126535D01*
X11993750Y-17125000D01*
X12631250Y-17125000D01*
X12662493Y-17126535D01*
X12662493Y-17126535D01*
G37*
D18*
X12312500Y-17800000D03*
D17*
G36*
X14237493Y-17126535D02*
X14268435Y-17131125D01*
X14298778Y-17138725D01*
X14328230Y-17149263D01*
X14356508Y-17162638D01*
X14383338Y-17178719D01*
X14408463Y-17197353D01*
X14431640Y-17218360D01*
X14452647Y-17241537D01*
X14471281Y-17266662D01*
X14487362Y-17293492D01*
X14500737Y-17321770D01*
X14511275Y-17351222D01*
X14518875Y-17381565D01*
X14523465Y-17412507D01*
X14525000Y-17443750D01*
X14525000Y-18156250D01*
X14523465Y-18187493D01*
X14518875Y-18218435D01*
X14511275Y-18248778D01*
X14500737Y-18278230D01*
X14487362Y-18306508D01*
X14471281Y-18333338D01*
X14452647Y-18358463D01*
X14431640Y-18381640D01*
X14408463Y-18402647D01*
X14383338Y-18421281D01*
X14356508Y-18437362D01*
X14328230Y-18450737D01*
X14298778Y-18461275D01*
X14268435Y-18468875D01*
X14237493Y-18473465D01*
X14206250Y-18475000D01*
X13568750Y-18475000D01*
X13537507Y-18473465D01*
X13506565Y-18468875D01*
X13476222Y-18461275D01*
X13446770Y-18450737D01*
X13418492Y-18437362D01*
X13391662Y-18421281D01*
X13366537Y-18402647D01*
X13343360Y-18381640D01*
X13322353Y-18358463D01*
X13303719Y-18333338D01*
X13287638Y-18306508D01*
X13274263Y-18278230D01*
X13263725Y-18248778D01*
X13256125Y-18218435D01*
X13251535Y-18187493D01*
X13250000Y-18156250D01*
X13250000Y-17443750D01*
X13251535Y-17412507D01*
X13256125Y-17381565D01*
X13263725Y-17351222D01*
X13274263Y-17321770D01*
X13287638Y-17293492D01*
X13303719Y-17266662D01*
X13322353Y-17241537D01*
X13343360Y-17218360D01*
X13366537Y-17197353D01*
X13391662Y-17178719D01*
X13418492Y-17162638D01*
X13446770Y-17149263D01*
X13476222Y-17138725D01*
X13506565Y-17131125D01*
X13537507Y-17126535D01*
X13568750Y-17125000D01*
X14206250Y-17125000D01*
X14237493Y-17126535D01*
X14237493Y-17126535D01*
G37*
D18*
X13887500Y-17800000D03*
G04 #@! TD*
M02*
