G04 #@! TF.GenerationSoftware,KiCad,Pcbnew,(5.0.0)*
G04 #@! TF.CreationDate,2020-06-15T03:52:37+09:00*
G04 #@! TF.ProjectId,WioTerminal_M5Adapter,57696F5465726D696E616C5F4D354164,rev?*
G04 #@! TF.SameCoordinates,PX206cc80PYfe6f74f0*
G04 #@! TF.FileFunction,Paste,Top*
G04 #@! TF.FilePolarity,Positive*
%FSLAX46Y46*%
G04 Gerber Fmt 4.6, Leading zero omitted, Abs format (unit mm)*
G04 Created by KiCad (PCBNEW (5.0.0)) date 06/15/20 03:52:37*
%MOMM*%
%LPD*%
G01*
G04 APERTURE LIST*
%ADD10C,2.050000*%
%ADD11R,0.600000X0.150000*%
%ADD12O,0.230000X0.800000*%
%ADD13R,0.230000X0.230000*%
%ADD14R,0.900000X0.650000*%
%ADD15R,0.600000X0.230000*%
%ADD16C,0.100000*%
%ADD17C,0.975000*%
%ADD18C,0.875000*%
%ADD19C,1.250000*%
%ADD20R,1.060000X0.400000*%
%ADD21C,1.125000*%
%ADD22R,0.300000X0.750000*%
%ADD23R,0.600000X0.500000*%
%ADD24R,1.000000X3.150000*%
%ADD25R,2.300000X0.850000*%
G04 APERTURE END LIST*
D10*
G04 #@! TO.C,MH4*
X-30500000Y22750000D03*
G04 #@! TD*
G04 #@! TO.C,MH1*
X-30500000Y-22750000D03*
G04 #@! TD*
G04 #@! TO.C,MH2*
X30500000Y-22750000D03*
G04 #@! TD*
G04 #@! TO.C,MH3*
X30500000Y22750000D03*
G04 #@! TD*
D11*
G04 #@! TO.C,U2*
X-3175000Y-8900000D03*
X-3175000Y-7700000D03*
X-6025000Y-8900000D03*
X-6025000Y-7700000D03*
D12*
X-5600000Y-9775000D03*
X-5100000Y-9775000D03*
D13*
X-4600000Y-10060000D03*
D12*
X-4100000Y-9775000D03*
D13*
X-3600000Y-10060000D03*
D12*
X-3600000Y-6825000D03*
X-4100000Y-6825000D03*
D13*
X-4600000Y-6540000D03*
X-5100000Y-6540000D03*
X-5600000Y-6540000D03*
D11*
X-6025000Y-8500000D03*
X-6025000Y-8100000D03*
X-3175000Y-8500000D03*
X-3175000Y-8100000D03*
D13*
X-5600000Y-10060000D03*
X-5100000Y-10060000D03*
D12*
X-4600000Y-9775000D03*
D13*
X-4100000Y-10060000D03*
D12*
X-3600000Y-9775000D03*
D13*
X-3600000Y-6540000D03*
X-4100000Y-6540000D03*
D12*
X-4600000Y-6825000D03*
X-5100000Y-6825000D03*
X-5600000Y-6825000D03*
D14*
X-5160000Y-8735000D03*
X-4040000Y-7865000D03*
X-4040000Y-8735000D03*
X-5160000Y-7865000D03*
D15*
X-6025000Y-8900000D03*
X-6025000Y-8500000D03*
X-6025000Y-8100000D03*
X-6025000Y-7700000D03*
X-3175000Y-8900000D03*
X-3175000Y-8500000D03*
X-3175000Y-8100000D03*
X-3175000Y-7700000D03*
G04 #@! TD*
D16*
G04 #@! TO.C,C1*
G36*
X-5194858Y-13601174D02*
X-5171197Y-13604684D01*
X-5147993Y-13610496D01*
X-5125471Y-13618554D01*
X-5103847Y-13628782D01*
X-5083330Y-13641079D01*
X-5064117Y-13655329D01*
X-5046393Y-13671393D01*
X-5030329Y-13689117D01*
X-5016079Y-13708330D01*
X-5003782Y-13728847D01*
X-4993554Y-13750471D01*
X-4985496Y-13772993D01*
X-4979684Y-13796197D01*
X-4976174Y-13819858D01*
X-4975000Y-13843750D01*
X-4975000Y-14756250D01*
X-4976174Y-14780142D01*
X-4979684Y-14803803D01*
X-4985496Y-14827007D01*
X-4993554Y-14849529D01*
X-5003782Y-14871153D01*
X-5016079Y-14891670D01*
X-5030329Y-14910883D01*
X-5046393Y-14928607D01*
X-5064117Y-14944671D01*
X-5083330Y-14958921D01*
X-5103847Y-14971218D01*
X-5125471Y-14981446D01*
X-5147993Y-14989504D01*
X-5171197Y-14995316D01*
X-5194858Y-14998826D01*
X-5218750Y-15000000D01*
X-5706250Y-15000000D01*
X-5730142Y-14998826D01*
X-5753803Y-14995316D01*
X-5777007Y-14989504D01*
X-5799529Y-14981446D01*
X-5821153Y-14971218D01*
X-5841670Y-14958921D01*
X-5860883Y-14944671D01*
X-5878607Y-14928607D01*
X-5894671Y-14910883D01*
X-5908921Y-14891670D01*
X-5921218Y-14871153D01*
X-5931446Y-14849529D01*
X-5939504Y-14827007D01*
X-5945316Y-14803803D01*
X-5948826Y-14780142D01*
X-5950000Y-14756250D01*
X-5950000Y-13843750D01*
X-5948826Y-13819858D01*
X-5945316Y-13796197D01*
X-5939504Y-13772993D01*
X-5931446Y-13750471D01*
X-5921218Y-13728847D01*
X-5908921Y-13708330D01*
X-5894671Y-13689117D01*
X-5878607Y-13671393D01*
X-5860883Y-13655329D01*
X-5841670Y-13641079D01*
X-5821153Y-13628782D01*
X-5799529Y-13618554D01*
X-5777007Y-13610496D01*
X-5753803Y-13604684D01*
X-5730142Y-13601174D01*
X-5706250Y-13600000D01*
X-5218750Y-13600000D01*
X-5194858Y-13601174D01*
X-5194858Y-13601174D01*
G37*
D17*
X-5462500Y-14300000D03*
D16*
G36*
X-7069858Y-13601174D02*
X-7046197Y-13604684D01*
X-7022993Y-13610496D01*
X-7000471Y-13618554D01*
X-6978847Y-13628782D01*
X-6958330Y-13641079D01*
X-6939117Y-13655329D01*
X-6921393Y-13671393D01*
X-6905329Y-13689117D01*
X-6891079Y-13708330D01*
X-6878782Y-13728847D01*
X-6868554Y-13750471D01*
X-6860496Y-13772993D01*
X-6854684Y-13796197D01*
X-6851174Y-13819858D01*
X-6850000Y-13843750D01*
X-6850000Y-14756250D01*
X-6851174Y-14780142D01*
X-6854684Y-14803803D01*
X-6860496Y-14827007D01*
X-6868554Y-14849529D01*
X-6878782Y-14871153D01*
X-6891079Y-14891670D01*
X-6905329Y-14910883D01*
X-6921393Y-14928607D01*
X-6939117Y-14944671D01*
X-6958330Y-14958921D01*
X-6978847Y-14971218D01*
X-7000471Y-14981446D01*
X-7022993Y-14989504D01*
X-7046197Y-14995316D01*
X-7069858Y-14998826D01*
X-7093750Y-15000000D01*
X-7581250Y-15000000D01*
X-7605142Y-14998826D01*
X-7628803Y-14995316D01*
X-7652007Y-14989504D01*
X-7674529Y-14981446D01*
X-7696153Y-14971218D01*
X-7716670Y-14958921D01*
X-7735883Y-14944671D01*
X-7753607Y-14928607D01*
X-7769671Y-14910883D01*
X-7783921Y-14891670D01*
X-7796218Y-14871153D01*
X-7806446Y-14849529D01*
X-7814504Y-14827007D01*
X-7820316Y-14803803D01*
X-7823826Y-14780142D01*
X-7825000Y-14756250D01*
X-7825000Y-13843750D01*
X-7823826Y-13819858D01*
X-7820316Y-13796197D01*
X-7814504Y-13772993D01*
X-7806446Y-13750471D01*
X-7796218Y-13728847D01*
X-7783921Y-13708330D01*
X-7769671Y-13689117D01*
X-7753607Y-13671393D01*
X-7735883Y-13655329D01*
X-7716670Y-13641079D01*
X-7696153Y-13628782D01*
X-7674529Y-13618554D01*
X-7652007Y-13610496D01*
X-7628803Y-13604684D01*
X-7605142Y-13601174D01*
X-7581250Y-13600000D01*
X-7093750Y-13600000D01*
X-7069858Y-13601174D01*
X-7069858Y-13601174D01*
G37*
D17*
X-7337500Y-14300000D03*
G04 #@! TD*
D16*
G04 #@! TO.C,C2*
G36*
X877691Y-14176053D02*
X898926Y-14179203D01*
X919750Y-14184419D01*
X939962Y-14191651D01*
X959368Y-14200830D01*
X977781Y-14211866D01*
X995024Y-14224654D01*
X1010930Y-14239070D01*
X1025346Y-14254976D01*
X1038134Y-14272219D01*
X1049170Y-14290632D01*
X1058349Y-14310038D01*
X1065581Y-14330250D01*
X1070797Y-14351074D01*
X1073947Y-14372309D01*
X1075000Y-14393750D01*
X1075000Y-14831250D01*
X1073947Y-14852691D01*
X1070797Y-14873926D01*
X1065581Y-14894750D01*
X1058349Y-14914962D01*
X1049170Y-14934368D01*
X1038134Y-14952781D01*
X1025346Y-14970024D01*
X1010930Y-14985930D01*
X995024Y-15000346D01*
X977781Y-15013134D01*
X959368Y-15024170D01*
X939962Y-15033349D01*
X919750Y-15040581D01*
X898926Y-15045797D01*
X877691Y-15048947D01*
X856250Y-15050000D01*
X343750Y-15050000D01*
X322309Y-15048947D01*
X301074Y-15045797D01*
X280250Y-15040581D01*
X260038Y-15033349D01*
X240632Y-15024170D01*
X222219Y-15013134D01*
X204976Y-15000346D01*
X189070Y-14985930D01*
X174654Y-14970024D01*
X161866Y-14952781D01*
X150830Y-14934368D01*
X141651Y-14914962D01*
X134419Y-14894750D01*
X129203Y-14873926D01*
X126053Y-14852691D01*
X125000Y-14831250D01*
X125000Y-14393750D01*
X126053Y-14372309D01*
X129203Y-14351074D01*
X134419Y-14330250D01*
X141651Y-14310038D01*
X150830Y-14290632D01*
X161866Y-14272219D01*
X174654Y-14254976D01*
X189070Y-14239070D01*
X204976Y-14224654D01*
X222219Y-14211866D01*
X240632Y-14200830D01*
X260038Y-14191651D01*
X280250Y-14184419D01*
X301074Y-14179203D01*
X322309Y-14176053D01*
X343750Y-14175000D01*
X856250Y-14175000D01*
X877691Y-14176053D01*
X877691Y-14176053D01*
G37*
D18*
X600000Y-14612500D03*
D16*
G36*
X877691Y-15751053D02*
X898926Y-15754203D01*
X919750Y-15759419D01*
X939962Y-15766651D01*
X959368Y-15775830D01*
X977781Y-15786866D01*
X995024Y-15799654D01*
X1010930Y-15814070D01*
X1025346Y-15829976D01*
X1038134Y-15847219D01*
X1049170Y-15865632D01*
X1058349Y-15885038D01*
X1065581Y-15905250D01*
X1070797Y-15926074D01*
X1073947Y-15947309D01*
X1075000Y-15968750D01*
X1075000Y-16406250D01*
X1073947Y-16427691D01*
X1070797Y-16448926D01*
X1065581Y-16469750D01*
X1058349Y-16489962D01*
X1049170Y-16509368D01*
X1038134Y-16527781D01*
X1025346Y-16545024D01*
X1010930Y-16560930D01*
X995024Y-16575346D01*
X977781Y-16588134D01*
X959368Y-16599170D01*
X939962Y-16608349D01*
X919750Y-16615581D01*
X898926Y-16620797D01*
X877691Y-16623947D01*
X856250Y-16625000D01*
X343750Y-16625000D01*
X322309Y-16623947D01*
X301074Y-16620797D01*
X280250Y-16615581D01*
X260038Y-16608349D01*
X240632Y-16599170D01*
X222219Y-16588134D01*
X204976Y-16575346D01*
X189070Y-16560930D01*
X174654Y-16545024D01*
X161866Y-16527781D01*
X150830Y-16509368D01*
X141651Y-16489962D01*
X134419Y-16469750D01*
X129203Y-16448926D01*
X126053Y-16427691D01*
X125000Y-16406250D01*
X125000Y-15968750D01*
X126053Y-15947309D01*
X129203Y-15926074D01*
X134419Y-15905250D01*
X141651Y-15885038D01*
X150830Y-15865632D01*
X161866Y-15847219D01*
X174654Y-15829976D01*
X189070Y-15814070D01*
X204976Y-15799654D01*
X222219Y-15786866D01*
X240632Y-15775830D01*
X260038Y-15766651D01*
X280250Y-15759419D01*
X301074Y-15754203D01*
X322309Y-15751053D01*
X343750Y-15750000D01*
X856250Y-15750000D01*
X877691Y-15751053D01*
X877691Y-15751053D01*
G37*
D18*
X600000Y-16187500D03*
G04 #@! TD*
D16*
G04 #@! TO.C,C3*
G36*
X-7069858Y-11601174D02*
X-7046197Y-11604684D01*
X-7022993Y-11610496D01*
X-7000471Y-11618554D01*
X-6978847Y-11628782D01*
X-6958330Y-11641079D01*
X-6939117Y-11655329D01*
X-6921393Y-11671393D01*
X-6905329Y-11689117D01*
X-6891079Y-11708330D01*
X-6878782Y-11728847D01*
X-6868554Y-11750471D01*
X-6860496Y-11772993D01*
X-6854684Y-11796197D01*
X-6851174Y-11819858D01*
X-6850000Y-11843750D01*
X-6850000Y-12756250D01*
X-6851174Y-12780142D01*
X-6854684Y-12803803D01*
X-6860496Y-12827007D01*
X-6868554Y-12849529D01*
X-6878782Y-12871153D01*
X-6891079Y-12891670D01*
X-6905329Y-12910883D01*
X-6921393Y-12928607D01*
X-6939117Y-12944671D01*
X-6958330Y-12958921D01*
X-6978847Y-12971218D01*
X-7000471Y-12981446D01*
X-7022993Y-12989504D01*
X-7046197Y-12995316D01*
X-7069858Y-12998826D01*
X-7093750Y-13000000D01*
X-7581250Y-13000000D01*
X-7605142Y-12998826D01*
X-7628803Y-12995316D01*
X-7652007Y-12989504D01*
X-7674529Y-12981446D01*
X-7696153Y-12971218D01*
X-7716670Y-12958921D01*
X-7735883Y-12944671D01*
X-7753607Y-12928607D01*
X-7769671Y-12910883D01*
X-7783921Y-12891670D01*
X-7796218Y-12871153D01*
X-7806446Y-12849529D01*
X-7814504Y-12827007D01*
X-7820316Y-12803803D01*
X-7823826Y-12780142D01*
X-7825000Y-12756250D01*
X-7825000Y-11843750D01*
X-7823826Y-11819858D01*
X-7820316Y-11796197D01*
X-7814504Y-11772993D01*
X-7806446Y-11750471D01*
X-7796218Y-11728847D01*
X-7783921Y-11708330D01*
X-7769671Y-11689117D01*
X-7753607Y-11671393D01*
X-7735883Y-11655329D01*
X-7716670Y-11641079D01*
X-7696153Y-11628782D01*
X-7674529Y-11618554D01*
X-7652007Y-11610496D01*
X-7628803Y-11604684D01*
X-7605142Y-11601174D01*
X-7581250Y-11600000D01*
X-7093750Y-11600000D01*
X-7069858Y-11601174D01*
X-7069858Y-11601174D01*
G37*
D17*
X-7337500Y-12300000D03*
D16*
G36*
X-5194858Y-11601174D02*
X-5171197Y-11604684D01*
X-5147993Y-11610496D01*
X-5125471Y-11618554D01*
X-5103847Y-11628782D01*
X-5083330Y-11641079D01*
X-5064117Y-11655329D01*
X-5046393Y-11671393D01*
X-5030329Y-11689117D01*
X-5016079Y-11708330D01*
X-5003782Y-11728847D01*
X-4993554Y-11750471D01*
X-4985496Y-11772993D01*
X-4979684Y-11796197D01*
X-4976174Y-11819858D01*
X-4975000Y-11843750D01*
X-4975000Y-12756250D01*
X-4976174Y-12780142D01*
X-4979684Y-12803803D01*
X-4985496Y-12827007D01*
X-4993554Y-12849529D01*
X-5003782Y-12871153D01*
X-5016079Y-12891670D01*
X-5030329Y-12910883D01*
X-5046393Y-12928607D01*
X-5064117Y-12944671D01*
X-5083330Y-12958921D01*
X-5103847Y-12971218D01*
X-5125471Y-12981446D01*
X-5147993Y-12989504D01*
X-5171197Y-12995316D01*
X-5194858Y-12998826D01*
X-5218750Y-13000000D01*
X-5706250Y-13000000D01*
X-5730142Y-12998826D01*
X-5753803Y-12995316D01*
X-5777007Y-12989504D01*
X-5799529Y-12981446D01*
X-5821153Y-12971218D01*
X-5841670Y-12958921D01*
X-5860883Y-12944671D01*
X-5878607Y-12928607D01*
X-5894671Y-12910883D01*
X-5908921Y-12891670D01*
X-5921218Y-12871153D01*
X-5931446Y-12849529D01*
X-5939504Y-12827007D01*
X-5945316Y-12803803D01*
X-5948826Y-12780142D01*
X-5950000Y-12756250D01*
X-5950000Y-11843750D01*
X-5948826Y-11819858D01*
X-5945316Y-11796197D01*
X-5939504Y-11772993D01*
X-5931446Y-11750471D01*
X-5921218Y-11728847D01*
X-5908921Y-11708330D01*
X-5894671Y-11689117D01*
X-5878607Y-11671393D01*
X-5860883Y-11655329D01*
X-5841670Y-11641079D01*
X-5821153Y-11628782D01*
X-5799529Y-11618554D01*
X-5777007Y-11610496D01*
X-5753803Y-11604684D01*
X-5730142Y-11601174D01*
X-5706250Y-11600000D01*
X-5218750Y-11600000D01*
X-5194858Y-11601174D01*
X-5194858Y-11601174D01*
G37*
D17*
X-5462500Y-12300000D03*
G04 #@! TD*
D16*
G04 #@! TO.C,C4*
G36*
X3130142Y-5301174D02*
X3153803Y-5304684D01*
X3177007Y-5310496D01*
X3199529Y-5318554D01*
X3221153Y-5328782D01*
X3241670Y-5341079D01*
X3260883Y-5355329D01*
X3278607Y-5371393D01*
X3294671Y-5389117D01*
X3308921Y-5408330D01*
X3321218Y-5428847D01*
X3331446Y-5450471D01*
X3339504Y-5472993D01*
X3345316Y-5496197D01*
X3348826Y-5519858D01*
X3350000Y-5543750D01*
X3350000Y-6456250D01*
X3348826Y-6480142D01*
X3345316Y-6503803D01*
X3339504Y-6527007D01*
X3331446Y-6549529D01*
X3321218Y-6571153D01*
X3308921Y-6591670D01*
X3294671Y-6610883D01*
X3278607Y-6628607D01*
X3260883Y-6644671D01*
X3241670Y-6658921D01*
X3221153Y-6671218D01*
X3199529Y-6681446D01*
X3177007Y-6689504D01*
X3153803Y-6695316D01*
X3130142Y-6698826D01*
X3106250Y-6700000D01*
X2618750Y-6700000D01*
X2594858Y-6698826D01*
X2571197Y-6695316D01*
X2547993Y-6689504D01*
X2525471Y-6681446D01*
X2503847Y-6671218D01*
X2483330Y-6658921D01*
X2464117Y-6644671D01*
X2446393Y-6628607D01*
X2430329Y-6610883D01*
X2416079Y-6591670D01*
X2403782Y-6571153D01*
X2393554Y-6549529D01*
X2385496Y-6527007D01*
X2379684Y-6503803D01*
X2376174Y-6480142D01*
X2375000Y-6456250D01*
X2375000Y-5543750D01*
X2376174Y-5519858D01*
X2379684Y-5496197D01*
X2385496Y-5472993D01*
X2393554Y-5450471D01*
X2403782Y-5428847D01*
X2416079Y-5408330D01*
X2430329Y-5389117D01*
X2446393Y-5371393D01*
X2464117Y-5355329D01*
X2483330Y-5341079D01*
X2503847Y-5328782D01*
X2525471Y-5318554D01*
X2547993Y-5310496D01*
X2571197Y-5304684D01*
X2594858Y-5301174D01*
X2618750Y-5300000D01*
X3106250Y-5300000D01*
X3130142Y-5301174D01*
X3130142Y-5301174D01*
G37*
D17*
X2862500Y-6000000D03*
D16*
G36*
X5005142Y-5301174D02*
X5028803Y-5304684D01*
X5052007Y-5310496D01*
X5074529Y-5318554D01*
X5096153Y-5328782D01*
X5116670Y-5341079D01*
X5135883Y-5355329D01*
X5153607Y-5371393D01*
X5169671Y-5389117D01*
X5183921Y-5408330D01*
X5196218Y-5428847D01*
X5206446Y-5450471D01*
X5214504Y-5472993D01*
X5220316Y-5496197D01*
X5223826Y-5519858D01*
X5225000Y-5543750D01*
X5225000Y-6456250D01*
X5223826Y-6480142D01*
X5220316Y-6503803D01*
X5214504Y-6527007D01*
X5206446Y-6549529D01*
X5196218Y-6571153D01*
X5183921Y-6591670D01*
X5169671Y-6610883D01*
X5153607Y-6628607D01*
X5135883Y-6644671D01*
X5116670Y-6658921D01*
X5096153Y-6671218D01*
X5074529Y-6681446D01*
X5052007Y-6689504D01*
X5028803Y-6695316D01*
X5005142Y-6698826D01*
X4981250Y-6700000D01*
X4493750Y-6700000D01*
X4469858Y-6698826D01*
X4446197Y-6695316D01*
X4422993Y-6689504D01*
X4400471Y-6681446D01*
X4378847Y-6671218D01*
X4358330Y-6658921D01*
X4339117Y-6644671D01*
X4321393Y-6628607D01*
X4305329Y-6610883D01*
X4291079Y-6591670D01*
X4278782Y-6571153D01*
X4268554Y-6549529D01*
X4260496Y-6527007D01*
X4254684Y-6503803D01*
X4251174Y-6480142D01*
X4250000Y-6456250D01*
X4250000Y-5543750D01*
X4251174Y-5519858D01*
X4254684Y-5496197D01*
X4260496Y-5472993D01*
X4268554Y-5450471D01*
X4278782Y-5428847D01*
X4291079Y-5408330D01*
X4305329Y-5389117D01*
X4321393Y-5371393D01*
X4339117Y-5355329D01*
X4358330Y-5341079D01*
X4378847Y-5328782D01*
X4400471Y-5318554D01*
X4422993Y-5310496D01*
X4446197Y-5304684D01*
X4469858Y-5301174D01*
X4493750Y-5300000D01*
X4981250Y-5300000D01*
X5005142Y-5301174D01*
X5005142Y-5301174D01*
G37*
D17*
X4737500Y-6000000D03*
G04 #@! TD*
D16*
G04 #@! TO.C,C5*
G36*
X-922309Y-4676053D02*
X-901074Y-4679203D01*
X-880250Y-4684419D01*
X-860038Y-4691651D01*
X-840632Y-4700830D01*
X-822219Y-4711866D01*
X-804976Y-4724654D01*
X-789070Y-4739070D01*
X-774654Y-4754976D01*
X-761866Y-4772219D01*
X-750830Y-4790632D01*
X-741651Y-4810038D01*
X-734419Y-4830250D01*
X-729203Y-4851074D01*
X-726053Y-4872309D01*
X-725000Y-4893750D01*
X-725000Y-5331250D01*
X-726053Y-5352691D01*
X-729203Y-5373926D01*
X-734419Y-5394750D01*
X-741651Y-5414962D01*
X-750830Y-5434368D01*
X-761866Y-5452781D01*
X-774654Y-5470024D01*
X-789070Y-5485930D01*
X-804976Y-5500346D01*
X-822219Y-5513134D01*
X-840632Y-5524170D01*
X-860038Y-5533349D01*
X-880250Y-5540581D01*
X-901074Y-5545797D01*
X-922309Y-5548947D01*
X-943750Y-5550000D01*
X-1456250Y-5550000D01*
X-1477691Y-5548947D01*
X-1498926Y-5545797D01*
X-1519750Y-5540581D01*
X-1539962Y-5533349D01*
X-1559368Y-5524170D01*
X-1577781Y-5513134D01*
X-1595024Y-5500346D01*
X-1610930Y-5485930D01*
X-1625346Y-5470024D01*
X-1638134Y-5452781D01*
X-1649170Y-5434368D01*
X-1658349Y-5414962D01*
X-1665581Y-5394750D01*
X-1670797Y-5373926D01*
X-1673947Y-5352691D01*
X-1675000Y-5331250D01*
X-1675000Y-4893750D01*
X-1673947Y-4872309D01*
X-1670797Y-4851074D01*
X-1665581Y-4830250D01*
X-1658349Y-4810038D01*
X-1649170Y-4790632D01*
X-1638134Y-4772219D01*
X-1625346Y-4754976D01*
X-1610930Y-4739070D01*
X-1595024Y-4724654D01*
X-1577781Y-4711866D01*
X-1559368Y-4700830D01*
X-1539962Y-4691651D01*
X-1519750Y-4684419D01*
X-1498926Y-4679203D01*
X-1477691Y-4676053D01*
X-1456250Y-4675000D01*
X-943750Y-4675000D01*
X-922309Y-4676053D01*
X-922309Y-4676053D01*
G37*
D18*
X-1200000Y-5112500D03*
D16*
G36*
X-922309Y-6251053D02*
X-901074Y-6254203D01*
X-880250Y-6259419D01*
X-860038Y-6266651D01*
X-840632Y-6275830D01*
X-822219Y-6286866D01*
X-804976Y-6299654D01*
X-789070Y-6314070D01*
X-774654Y-6329976D01*
X-761866Y-6347219D01*
X-750830Y-6365632D01*
X-741651Y-6385038D01*
X-734419Y-6405250D01*
X-729203Y-6426074D01*
X-726053Y-6447309D01*
X-725000Y-6468750D01*
X-725000Y-6906250D01*
X-726053Y-6927691D01*
X-729203Y-6948926D01*
X-734419Y-6969750D01*
X-741651Y-6989962D01*
X-750830Y-7009368D01*
X-761866Y-7027781D01*
X-774654Y-7045024D01*
X-789070Y-7060930D01*
X-804976Y-7075346D01*
X-822219Y-7088134D01*
X-840632Y-7099170D01*
X-860038Y-7108349D01*
X-880250Y-7115581D01*
X-901074Y-7120797D01*
X-922309Y-7123947D01*
X-943750Y-7125000D01*
X-1456250Y-7125000D01*
X-1477691Y-7123947D01*
X-1498926Y-7120797D01*
X-1519750Y-7115581D01*
X-1539962Y-7108349D01*
X-1559368Y-7099170D01*
X-1577781Y-7088134D01*
X-1595024Y-7075346D01*
X-1610930Y-7060930D01*
X-1625346Y-7045024D01*
X-1638134Y-7027781D01*
X-1649170Y-7009368D01*
X-1658349Y-6989962D01*
X-1665581Y-6969750D01*
X-1670797Y-6948926D01*
X-1673947Y-6927691D01*
X-1675000Y-6906250D01*
X-1675000Y-6468750D01*
X-1673947Y-6447309D01*
X-1670797Y-6426074D01*
X-1665581Y-6405250D01*
X-1658349Y-6385038D01*
X-1649170Y-6365632D01*
X-1638134Y-6347219D01*
X-1625346Y-6329976D01*
X-1610930Y-6314070D01*
X-1595024Y-6299654D01*
X-1577781Y-6286866D01*
X-1559368Y-6275830D01*
X-1539962Y-6266651D01*
X-1519750Y-6259419D01*
X-1498926Y-6254203D01*
X-1477691Y-6251053D01*
X-1456250Y-6250000D01*
X-943750Y-6250000D01*
X-922309Y-6251053D01*
X-922309Y-6251053D01*
G37*
D18*
X-1200000Y-6687500D03*
G04 #@! TD*
D16*
G04 #@! TO.C,C6*
G36*
X727691Y-1226053D02*
X748926Y-1229203D01*
X769750Y-1234419D01*
X789962Y-1241651D01*
X809368Y-1250830D01*
X827781Y-1261866D01*
X845024Y-1274654D01*
X860930Y-1289070D01*
X875346Y-1304976D01*
X888134Y-1322219D01*
X899170Y-1340632D01*
X908349Y-1360038D01*
X915581Y-1380250D01*
X920797Y-1401074D01*
X923947Y-1422309D01*
X925000Y-1443750D01*
X925000Y-1956250D01*
X923947Y-1977691D01*
X920797Y-1998926D01*
X915581Y-2019750D01*
X908349Y-2039962D01*
X899170Y-2059368D01*
X888134Y-2077781D01*
X875346Y-2095024D01*
X860930Y-2110930D01*
X845024Y-2125346D01*
X827781Y-2138134D01*
X809368Y-2149170D01*
X789962Y-2158349D01*
X769750Y-2165581D01*
X748926Y-2170797D01*
X727691Y-2173947D01*
X706250Y-2175000D01*
X268750Y-2175000D01*
X247309Y-2173947D01*
X226074Y-2170797D01*
X205250Y-2165581D01*
X185038Y-2158349D01*
X165632Y-2149170D01*
X147219Y-2138134D01*
X129976Y-2125346D01*
X114070Y-2110930D01*
X99654Y-2095024D01*
X86866Y-2077781D01*
X75830Y-2059368D01*
X66651Y-2039962D01*
X59419Y-2019750D01*
X54203Y-1998926D01*
X51053Y-1977691D01*
X50000Y-1956250D01*
X50000Y-1443750D01*
X51053Y-1422309D01*
X54203Y-1401074D01*
X59419Y-1380250D01*
X66651Y-1360038D01*
X75830Y-1340632D01*
X86866Y-1322219D01*
X99654Y-1304976D01*
X114070Y-1289070D01*
X129976Y-1274654D01*
X147219Y-1261866D01*
X165632Y-1250830D01*
X185038Y-1241651D01*
X205250Y-1234419D01*
X226074Y-1229203D01*
X247309Y-1226053D01*
X268750Y-1225000D01*
X706250Y-1225000D01*
X727691Y-1226053D01*
X727691Y-1226053D01*
G37*
D18*
X487500Y-1700000D03*
D16*
G36*
X-847309Y-1226053D02*
X-826074Y-1229203D01*
X-805250Y-1234419D01*
X-785038Y-1241651D01*
X-765632Y-1250830D01*
X-747219Y-1261866D01*
X-729976Y-1274654D01*
X-714070Y-1289070D01*
X-699654Y-1304976D01*
X-686866Y-1322219D01*
X-675830Y-1340632D01*
X-666651Y-1360038D01*
X-659419Y-1380250D01*
X-654203Y-1401074D01*
X-651053Y-1422309D01*
X-650000Y-1443750D01*
X-650000Y-1956250D01*
X-651053Y-1977691D01*
X-654203Y-1998926D01*
X-659419Y-2019750D01*
X-666651Y-2039962D01*
X-675830Y-2059368D01*
X-686866Y-2077781D01*
X-699654Y-2095024D01*
X-714070Y-2110930D01*
X-729976Y-2125346D01*
X-747219Y-2138134D01*
X-765632Y-2149170D01*
X-785038Y-2158349D01*
X-805250Y-2165581D01*
X-826074Y-2170797D01*
X-847309Y-2173947D01*
X-868750Y-2175000D01*
X-1306250Y-2175000D01*
X-1327691Y-2173947D01*
X-1348926Y-2170797D01*
X-1369750Y-2165581D01*
X-1389962Y-2158349D01*
X-1409368Y-2149170D01*
X-1427781Y-2138134D01*
X-1445024Y-2125346D01*
X-1460930Y-2110930D01*
X-1475346Y-2095024D01*
X-1488134Y-2077781D01*
X-1499170Y-2059368D01*
X-1508349Y-2039962D01*
X-1515581Y-2019750D01*
X-1520797Y-1998926D01*
X-1523947Y-1977691D01*
X-1525000Y-1956250D01*
X-1525000Y-1443750D01*
X-1523947Y-1422309D01*
X-1520797Y-1401074D01*
X-1515581Y-1380250D01*
X-1508349Y-1360038D01*
X-1499170Y-1340632D01*
X-1488134Y-1322219D01*
X-1475346Y-1304976D01*
X-1460930Y-1289070D01*
X-1445024Y-1274654D01*
X-1427781Y-1261866D01*
X-1409368Y-1250830D01*
X-1389962Y-1241651D01*
X-1369750Y-1234419D01*
X-1348926Y-1229203D01*
X-1327691Y-1226053D01*
X-1306250Y-1225000D01*
X-868750Y-1225000D01*
X-847309Y-1226053D01*
X-847309Y-1226053D01*
G37*
D18*
X-1087500Y-1700000D03*
G04 #@! TD*
D16*
G04 #@! TO.C,C7*
G36*
X-4600496Y-3026204D02*
X-4576227Y-3029804D01*
X-4552429Y-3035765D01*
X-4529329Y-3044030D01*
X-4507151Y-3054520D01*
X-4486107Y-3067133D01*
X-4466402Y-3081747D01*
X-4448223Y-3098223D01*
X-4431747Y-3116402D01*
X-4417133Y-3136107D01*
X-4404520Y-3157151D01*
X-4394030Y-3179329D01*
X-4385765Y-3202429D01*
X-4379804Y-3226227D01*
X-4376204Y-3250496D01*
X-4375000Y-3275000D01*
X-4375000Y-4525000D01*
X-4376204Y-4549504D01*
X-4379804Y-4573773D01*
X-4385765Y-4597571D01*
X-4394030Y-4620671D01*
X-4404520Y-4642849D01*
X-4417133Y-4663893D01*
X-4431747Y-4683598D01*
X-4448223Y-4701777D01*
X-4466402Y-4718253D01*
X-4486107Y-4732867D01*
X-4507151Y-4745480D01*
X-4529329Y-4755970D01*
X-4552429Y-4764235D01*
X-4576227Y-4770196D01*
X-4600496Y-4773796D01*
X-4625000Y-4775000D01*
X-5375000Y-4775000D01*
X-5399504Y-4773796D01*
X-5423773Y-4770196D01*
X-5447571Y-4764235D01*
X-5470671Y-4755970D01*
X-5492849Y-4745480D01*
X-5513893Y-4732867D01*
X-5533598Y-4718253D01*
X-5551777Y-4701777D01*
X-5568253Y-4683598D01*
X-5582867Y-4663893D01*
X-5595480Y-4642849D01*
X-5605970Y-4620671D01*
X-5614235Y-4597571D01*
X-5620196Y-4573773D01*
X-5623796Y-4549504D01*
X-5625000Y-4525000D01*
X-5625000Y-3275000D01*
X-5623796Y-3250496D01*
X-5620196Y-3226227D01*
X-5614235Y-3202429D01*
X-5605970Y-3179329D01*
X-5595480Y-3157151D01*
X-5582867Y-3136107D01*
X-5568253Y-3116402D01*
X-5551777Y-3098223D01*
X-5533598Y-3081747D01*
X-5513893Y-3067133D01*
X-5492849Y-3054520D01*
X-5470671Y-3044030D01*
X-5447571Y-3035765D01*
X-5423773Y-3029804D01*
X-5399504Y-3026204D01*
X-5375000Y-3025000D01*
X-4625000Y-3025000D01*
X-4600496Y-3026204D01*
X-4600496Y-3026204D01*
G37*
D19*
X-5000000Y-3900000D03*
D16*
G36*
X-7400496Y-3026204D02*
X-7376227Y-3029804D01*
X-7352429Y-3035765D01*
X-7329329Y-3044030D01*
X-7307151Y-3054520D01*
X-7286107Y-3067133D01*
X-7266402Y-3081747D01*
X-7248223Y-3098223D01*
X-7231747Y-3116402D01*
X-7217133Y-3136107D01*
X-7204520Y-3157151D01*
X-7194030Y-3179329D01*
X-7185765Y-3202429D01*
X-7179804Y-3226227D01*
X-7176204Y-3250496D01*
X-7175000Y-3275000D01*
X-7175000Y-4525000D01*
X-7176204Y-4549504D01*
X-7179804Y-4573773D01*
X-7185765Y-4597571D01*
X-7194030Y-4620671D01*
X-7204520Y-4642849D01*
X-7217133Y-4663893D01*
X-7231747Y-4683598D01*
X-7248223Y-4701777D01*
X-7266402Y-4718253D01*
X-7286107Y-4732867D01*
X-7307151Y-4745480D01*
X-7329329Y-4755970D01*
X-7352429Y-4764235D01*
X-7376227Y-4770196D01*
X-7400496Y-4773796D01*
X-7425000Y-4775000D01*
X-8175000Y-4775000D01*
X-8199504Y-4773796D01*
X-8223773Y-4770196D01*
X-8247571Y-4764235D01*
X-8270671Y-4755970D01*
X-8292849Y-4745480D01*
X-8313893Y-4732867D01*
X-8333598Y-4718253D01*
X-8351777Y-4701777D01*
X-8368253Y-4683598D01*
X-8382867Y-4663893D01*
X-8395480Y-4642849D01*
X-8405970Y-4620671D01*
X-8414235Y-4597571D01*
X-8420196Y-4573773D01*
X-8423796Y-4549504D01*
X-8425000Y-4525000D01*
X-8425000Y-3275000D01*
X-8423796Y-3250496D01*
X-8420196Y-3226227D01*
X-8414235Y-3202429D01*
X-8405970Y-3179329D01*
X-8395480Y-3157151D01*
X-8382867Y-3136107D01*
X-8368253Y-3116402D01*
X-8351777Y-3098223D01*
X-8333598Y-3081747D01*
X-8313893Y-3067133D01*
X-8292849Y-3054520D01*
X-8270671Y-3044030D01*
X-8247571Y-3035765D01*
X-8223773Y-3029804D01*
X-8199504Y-3026204D01*
X-8175000Y-3025000D01*
X-7425000Y-3025000D01*
X-7400496Y-3026204D01*
X-7400496Y-3026204D01*
G37*
D19*
X-7800000Y-3900000D03*
G04 #@! TD*
D16*
G04 #@! TO.C,C8*
G36*
X-7400496Y-626204D02*
X-7376227Y-629804D01*
X-7352429Y-635765D01*
X-7329329Y-644030D01*
X-7307151Y-654520D01*
X-7286107Y-667133D01*
X-7266402Y-681747D01*
X-7248223Y-698223D01*
X-7231747Y-716402D01*
X-7217133Y-736107D01*
X-7204520Y-757151D01*
X-7194030Y-779329D01*
X-7185765Y-802429D01*
X-7179804Y-826227D01*
X-7176204Y-850496D01*
X-7175000Y-875000D01*
X-7175000Y-2125000D01*
X-7176204Y-2149504D01*
X-7179804Y-2173773D01*
X-7185765Y-2197571D01*
X-7194030Y-2220671D01*
X-7204520Y-2242849D01*
X-7217133Y-2263893D01*
X-7231747Y-2283598D01*
X-7248223Y-2301777D01*
X-7266402Y-2318253D01*
X-7286107Y-2332867D01*
X-7307151Y-2345480D01*
X-7329329Y-2355970D01*
X-7352429Y-2364235D01*
X-7376227Y-2370196D01*
X-7400496Y-2373796D01*
X-7425000Y-2375000D01*
X-8175000Y-2375000D01*
X-8199504Y-2373796D01*
X-8223773Y-2370196D01*
X-8247571Y-2364235D01*
X-8270671Y-2355970D01*
X-8292849Y-2345480D01*
X-8313893Y-2332867D01*
X-8333598Y-2318253D01*
X-8351777Y-2301777D01*
X-8368253Y-2283598D01*
X-8382867Y-2263893D01*
X-8395480Y-2242849D01*
X-8405970Y-2220671D01*
X-8414235Y-2197571D01*
X-8420196Y-2173773D01*
X-8423796Y-2149504D01*
X-8425000Y-2125000D01*
X-8425000Y-875000D01*
X-8423796Y-850496D01*
X-8420196Y-826227D01*
X-8414235Y-802429D01*
X-8405970Y-779329D01*
X-8395480Y-757151D01*
X-8382867Y-736107D01*
X-8368253Y-716402D01*
X-8351777Y-698223D01*
X-8333598Y-681747D01*
X-8313893Y-667133D01*
X-8292849Y-654520D01*
X-8270671Y-644030D01*
X-8247571Y-635765D01*
X-8223773Y-629804D01*
X-8199504Y-626204D01*
X-8175000Y-625000D01*
X-7425000Y-625000D01*
X-7400496Y-626204D01*
X-7400496Y-626204D01*
G37*
D19*
X-7800000Y-1500000D03*
D16*
G36*
X-4600496Y-626204D02*
X-4576227Y-629804D01*
X-4552429Y-635765D01*
X-4529329Y-644030D01*
X-4507151Y-654520D01*
X-4486107Y-667133D01*
X-4466402Y-681747D01*
X-4448223Y-698223D01*
X-4431747Y-716402D01*
X-4417133Y-736107D01*
X-4404520Y-757151D01*
X-4394030Y-779329D01*
X-4385765Y-802429D01*
X-4379804Y-826227D01*
X-4376204Y-850496D01*
X-4375000Y-875000D01*
X-4375000Y-2125000D01*
X-4376204Y-2149504D01*
X-4379804Y-2173773D01*
X-4385765Y-2197571D01*
X-4394030Y-2220671D01*
X-4404520Y-2242849D01*
X-4417133Y-2263893D01*
X-4431747Y-2283598D01*
X-4448223Y-2301777D01*
X-4466402Y-2318253D01*
X-4486107Y-2332867D01*
X-4507151Y-2345480D01*
X-4529329Y-2355970D01*
X-4552429Y-2364235D01*
X-4576227Y-2370196D01*
X-4600496Y-2373796D01*
X-4625000Y-2375000D01*
X-5375000Y-2375000D01*
X-5399504Y-2373796D01*
X-5423773Y-2370196D01*
X-5447571Y-2364235D01*
X-5470671Y-2355970D01*
X-5492849Y-2345480D01*
X-5513893Y-2332867D01*
X-5533598Y-2318253D01*
X-5551777Y-2301777D01*
X-5568253Y-2283598D01*
X-5582867Y-2263893D01*
X-5595480Y-2242849D01*
X-5605970Y-2220671D01*
X-5614235Y-2197571D01*
X-5620196Y-2173773D01*
X-5623796Y-2149504D01*
X-5625000Y-2125000D01*
X-5625000Y-875000D01*
X-5623796Y-850496D01*
X-5620196Y-826227D01*
X-5614235Y-802429D01*
X-5605970Y-779329D01*
X-5595480Y-757151D01*
X-5582867Y-736107D01*
X-5568253Y-716402D01*
X-5551777Y-698223D01*
X-5533598Y-681747D01*
X-5513893Y-667133D01*
X-5492849Y-654520D01*
X-5470671Y-644030D01*
X-5447571Y-635765D01*
X-5423773Y-629804D01*
X-5399504Y-626204D01*
X-5375000Y-625000D01*
X-4625000Y-625000D01*
X-4600496Y-626204D01*
X-4600496Y-626204D01*
G37*
D19*
X-5000000Y-1500000D03*
G04 #@! TD*
D16*
G04 #@! TO.C,C9*
G36*
X-4600496Y1773796D02*
X-4576227Y1770196D01*
X-4552429Y1764235D01*
X-4529329Y1755970D01*
X-4507151Y1745480D01*
X-4486107Y1732867D01*
X-4466402Y1718253D01*
X-4448223Y1701777D01*
X-4431747Y1683598D01*
X-4417133Y1663893D01*
X-4404520Y1642849D01*
X-4394030Y1620671D01*
X-4385765Y1597571D01*
X-4379804Y1573773D01*
X-4376204Y1549504D01*
X-4375000Y1525000D01*
X-4375000Y275000D01*
X-4376204Y250496D01*
X-4379804Y226227D01*
X-4385765Y202429D01*
X-4394030Y179329D01*
X-4404520Y157151D01*
X-4417133Y136107D01*
X-4431747Y116402D01*
X-4448223Y98223D01*
X-4466402Y81747D01*
X-4486107Y67133D01*
X-4507151Y54520D01*
X-4529329Y44030D01*
X-4552429Y35765D01*
X-4576227Y29804D01*
X-4600496Y26204D01*
X-4625000Y25000D01*
X-5375000Y25000D01*
X-5399504Y26204D01*
X-5423773Y29804D01*
X-5447571Y35765D01*
X-5470671Y44030D01*
X-5492849Y54520D01*
X-5513893Y67133D01*
X-5533598Y81747D01*
X-5551777Y98223D01*
X-5568253Y116402D01*
X-5582867Y136107D01*
X-5595480Y157151D01*
X-5605970Y179329D01*
X-5614235Y202429D01*
X-5620196Y226227D01*
X-5623796Y250496D01*
X-5625000Y275000D01*
X-5625000Y1525000D01*
X-5623796Y1549504D01*
X-5620196Y1573773D01*
X-5614235Y1597571D01*
X-5605970Y1620671D01*
X-5595480Y1642849D01*
X-5582867Y1663893D01*
X-5568253Y1683598D01*
X-5551777Y1701777D01*
X-5533598Y1718253D01*
X-5513893Y1732867D01*
X-5492849Y1745480D01*
X-5470671Y1755970D01*
X-5447571Y1764235D01*
X-5423773Y1770196D01*
X-5399504Y1773796D01*
X-5375000Y1775000D01*
X-4625000Y1775000D01*
X-4600496Y1773796D01*
X-4600496Y1773796D01*
G37*
D19*
X-5000000Y900000D03*
D16*
G36*
X-7400496Y1773796D02*
X-7376227Y1770196D01*
X-7352429Y1764235D01*
X-7329329Y1755970D01*
X-7307151Y1745480D01*
X-7286107Y1732867D01*
X-7266402Y1718253D01*
X-7248223Y1701777D01*
X-7231747Y1683598D01*
X-7217133Y1663893D01*
X-7204520Y1642849D01*
X-7194030Y1620671D01*
X-7185765Y1597571D01*
X-7179804Y1573773D01*
X-7176204Y1549504D01*
X-7175000Y1525000D01*
X-7175000Y275000D01*
X-7176204Y250496D01*
X-7179804Y226227D01*
X-7185765Y202429D01*
X-7194030Y179329D01*
X-7204520Y157151D01*
X-7217133Y136107D01*
X-7231747Y116402D01*
X-7248223Y98223D01*
X-7266402Y81747D01*
X-7286107Y67133D01*
X-7307151Y54520D01*
X-7329329Y44030D01*
X-7352429Y35765D01*
X-7376227Y29804D01*
X-7400496Y26204D01*
X-7425000Y25000D01*
X-8175000Y25000D01*
X-8199504Y26204D01*
X-8223773Y29804D01*
X-8247571Y35765D01*
X-8270671Y44030D01*
X-8292849Y54520D01*
X-8313893Y67133D01*
X-8333598Y81747D01*
X-8351777Y98223D01*
X-8368253Y116402D01*
X-8382867Y136107D01*
X-8395480Y157151D01*
X-8405970Y179329D01*
X-8414235Y202429D01*
X-8420196Y226227D01*
X-8423796Y250496D01*
X-8425000Y275000D01*
X-8425000Y1525000D01*
X-8423796Y1549504D01*
X-8420196Y1573773D01*
X-8414235Y1597571D01*
X-8405970Y1620671D01*
X-8395480Y1642849D01*
X-8382867Y1663893D01*
X-8368253Y1683598D01*
X-8351777Y1701777D01*
X-8333598Y1718253D01*
X-8313893Y1732867D01*
X-8292849Y1745480D01*
X-8270671Y1755970D01*
X-8247571Y1764235D01*
X-8223773Y1770196D01*
X-8199504Y1773796D01*
X-8175000Y1775000D01*
X-7425000Y1775000D01*
X-7400496Y1773796D01*
X-7400496Y1773796D01*
G37*
D19*
X-7800000Y900000D03*
G04 #@! TD*
D16*
G04 #@! TO.C,R1*
G36*
X-1919858Y-16313674D02*
X-1896197Y-16317184D01*
X-1872993Y-16322996D01*
X-1850471Y-16331054D01*
X-1828847Y-16341282D01*
X-1808330Y-16353579D01*
X-1789117Y-16367829D01*
X-1771393Y-16383893D01*
X-1755329Y-16401617D01*
X-1741079Y-16420830D01*
X-1728782Y-16441347D01*
X-1718554Y-16462971D01*
X-1710496Y-16485493D01*
X-1704684Y-16508697D01*
X-1701174Y-16532358D01*
X-1700000Y-16556250D01*
X-1700000Y-17043750D01*
X-1701174Y-17067642D01*
X-1704684Y-17091303D01*
X-1710496Y-17114507D01*
X-1718554Y-17137029D01*
X-1728782Y-17158653D01*
X-1741079Y-17179170D01*
X-1755329Y-17198383D01*
X-1771393Y-17216107D01*
X-1789117Y-17232171D01*
X-1808330Y-17246421D01*
X-1828847Y-17258718D01*
X-1850471Y-17268946D01*
X-1872993Y-17277004D01*
X-1896197Y-17282816D01*
X-1919858Y-17286326D01*
X-1943750Y-17287500D01*
X-2856250Y-17287500D01*
X-2880142Y-17286326D01*
X-2903803Y-17282816D01*
X-2927007Y-17277004D01*
X-2949529Y-17268946D01*
X-2971153Y-17258718D01*
X-2991670Y-17246421D01*
X-3010883Y-17232171D01*
X-3028607Y-17216107D01*
X-3044671Y-17198383D01*
X-3058921Y-17179170D01*
X-3071218Y-17158653D01*
X-3081446Y-17137029D01*
X-3089504Y-17114507D01*
X-3095316Y-17091303D01*
X-3098826Y-17067642D01*
X-3100000Y-17043750D01*
X-3100000Y-16556250D01*
X-3098826Y-16532358D01*
X-3095316Y-16508697D01*
X-3089504Y-16485493D01*
X-3081446Y-16462971D01*
X-3071218Y-16441347D01*
X-3058921Y-16420830D01*
X-3044671Y-16401617D01*
X-3028607Y-16383893D01*
X-3010883Y-16367829D01*
X-2991670Y-16353579D01*
X-2971153Y-16341282D01*
X-2949529Y-16331054D01*
X-2927007Y-16322996D01*
X-2903803Y-16317184D01*
X-2880142Y-16313674D01*
X-2856250Y-16312500D01*
X-1943750Y-16312500D01*
X-1919858Y-16313674D01*
X-1919858Y-16313674D01*
G37*
D17*
X-2400000Y-16800000D03*
D16*
G36*
X-1919858Y-18188674D02*
X-1896197Y-18192184D01*
X-1872993Y-18197996D01*
X-1850471Y-18206054D01*
X-1828847Y-18216282D01*
X-1808330Y-18228579D01*
X-1789117Y-18242829D01*
X-1771393Y-18258893D01*
X-1755329Y-18276617D01*
X-1741079Y-18295830D01*
X-1728782Y-18316347D01*
X-1718554Y-18337971D01*
X-1710496Y-18360493D01*
X-1704684Y-18383697D01*
X-1701174Y-18407358D01*
X-1700000Y-18431250D01*
X-1700000Y-18918750D01*
X-1701174Y-18942642D01*
X-1704684Y-18966303D01*
X-1710496Y-18989507D01*
X-1718554Y-19012029D01*
X-1728782Y-19033653D01*
X-1741079Y-19054170D01*
X-1755329Y-19073383D01*
X-1771393Y-19091107D01*
X-1789117Y-19107171D01*
X-1808330Y-19121421D01*
X-1828847Y-19133718D01*
X-1850471Y-19143946D01*
X-1872993Y-19152004D01*
X-1896197Y-19157816D01*
X-1919858Y-19161326D01*
X-1943750Y-19162500D01*
X-2856250Y-19162500D01*
X-2880142Y-19161326D01*
X-2903803Y-19157816D01*
X-2927007Y-19152004D01*
X-2949529Y-19143946D01*
X-2971153Y-19133718D01*
X-2991670Y-19121421D01*
X-3010883Y-19107171D01*
X-3028607Y-19091107D01*
X-3044671Y-19073383D01*
X-3058921Y-19054170D01*
X-3071218Y-19033653D01*
X-3081446Y-19012029D01*
X-3089504Y-18989507D01*
X-3095316Y-18966303D01*
X-3098826Y-18942642D01*
X-3100000Y-18918750D01*
X-3100000Y-18431250D01*
X-3098826Y-18407358D01*
X-3095316Y-18383697D01*
X-3089504Y-18360493D01*
X-3081446Y-18337971D01*
X-3071218Y-18316347D01*
X-3058921Y-18295830D01*
X-3044671Y-18276617D01*
X-3028607Y-18258893D01*
X-3010883Y-18242829D01*
X-2991670Y-18228579D01*
X-2971153Y-18216282D01*
X-2949529Y-18206054D01*
X-2927007Y-18197996D01*
X-2903803Y-18192184D01*
X-2880142Y-18188674D01*
X-2856250Y-18187500D01*
X-1943750Y-18187500D01*
X-1919858Y-18188674D01*
X-1919858Y-18188674D01*
G37*
D17*
X-2400000Y-18675000D03*
G04 #@! TD*
D16*
G04 #@! TO.C,R2*
G36*
X-5072309Y6673947D02*
X-5051074Y6670797D01*
X-5030250Y6665581D01*
X-5010038Y6658349D01*
X-4990632Y6649170D01*
X-4972219Y6638134D01*
X-4954976Y6625346D01*
X-4939070Y6610930D01*
X-4924654Y6595024D01*
X-4911866Y6577781D01*
X-4900830Y6559368D01*
X-4891651Y6539962D01*
X-4884419Y6519750D01*
X-4879203Y6498926D01*
X-4876053Y6477691D01*
X-4875000Y6456250D01*
X-4875000Y5943750D01*
X-4876053Y5922309D01*
X-4879203Y5901074D01*
X-4884419Y5880250D01*
X-4891651Y5860038D01*
X-4900830Y5840632D01*
X-4911866Y5822219D01*
X-4924654Y5804976D01*
X-4939070Y5789070D01*
X-4954976Y5774654D01*
X-4972219Y5761866D01*
X-4990632Y5750830D01*
X-5010038Y5741651D01*
X-5030250Y5734419D01*
X-5051074Y5729203D01*
X-5072309Y5726053D01*
X-5093750Y5725000D01*
X-5531250Y5725000D01*
X-5552691Y5726053D01*
X-5573926Y5729203D01*
X-5594750Y5734419D01*
X-5614962Y5741651D01*
X-5634368Y5750830D01*
X-5652781Y5761866D01*
X-5670024Y5774654D01*
X-5685930Y5789070D01*
X-5700346Y5804976D01*
X-5713134Y5822219D01*
X-5724170Y5840632D01*
X-5733349Y5860038D01*
X-5740581Y5880250D01*
X-5745797Y5901074D01*
X-5748947Y5922309D01*
X-5750000Y5943750D01*
X-5750000Y6456250D01*
X-5748947Y6477691D01*
X-5745797Y6498926D01*
X-5740581Y6519750D01*
X-5733349Y6539962D01*
X-5724170Y6559368D01*
X-5713134Y6577781D01*
X-5700346Y6595024D01*
X-5685930Y6610930D01*
X-5670024Y6625346D01*
X-5652781Y6638134D01*
X-5634368Y6649170D01*
X-5614962Y6658349D01*
X-5594750Y6665581D01*
X-5573926Y6670797D01*
X-5552691Y6673947D01*
X-5531250Y6675000D01*
X-5093750Y6675000D01*
X-5072309Y6673947D01*
X-5072309Y6673947D01*
G37*
D18*
X-5312500Y6200000D03*
D16*
G36*
X-6647309Y6673947D02*
X-6626074Y6670797D01*
X-6605250Y6665581D01*
X-6585038Y6658349D01*
X-6565632Y6649170D01*
X-6547219Y6638134D01*
X-6529976Y6625346D01*
X-6514070Y6610930D01*
X-6499654Y6595024D01*
X-6486866Y6577781D01*
X-6475830Y6559368D01*
X-6466651Y6539962D01*
X-6459419Y6519750D01*
X-6454203Y6498926D01*
X-6451053Y6477691D01*
X-6450000Y6456250D01*
X-6450000Y5943750D01*
X-6451053Y5922309D01*
X-6454203Y5901074D01*
X-6459419Y5880250D01*
X-6466651Y5860038D01*
X-6475830Y5840632D01*
X-6486866Y5822219D01*
X-6499654Y5804976D01*
X-6514070Y5789070D01*
X-6529976Y5774654D01*
X-6547219Y5761866D01*
X-6565632Y5750830D01*
X-6585038Y5741651D01*
X-6605250Y5734419D01*
X-6626074Y5729203D01*
X-6647309Y5726053D01*
X-6668750Y5725000D01*
X-7106250Y5725000D01*
X-7127691Y5726053D01*
X-7148926Y5729203D01*
X-7169750Y5734419D01*
X-7189962Y5741651D01*
X-7209368Y5750830D01*
X-7227781Y5761866D01*
X-7245024Y5774654D01*
X-7260930Y5789070D01*
X-7275346Y5804976D01*
X-7288134Y5822219D01*
X-7299170Y5840632D01*
X-7308349Y5860038D01*
X-7315581Y5880250D01*
X-7320797Y5901074D01*
X-7323947Y5922309D01*
X-7325000Y5943750D01*
X-7325000Y6456250D01*
X-7323947Y6477691D01*
X-7320797Y6498926D01*
X-7315581Y6519750D01*
X-7308349Y6539962D01*
X-7299170Y6559368D01*
X-7288134Y6577781D01*
X-7275346Y6595024D01*
X-7260930Y6610930D01*
X-7245024Y6625346D01*
X-7227781Y6638134D01*
X-7209368Y6649170D01*
X-7189962Y6658349D01*
X-7169750Y6665581D01*
X-7148926Y6670797D01*
X-7127691Y6673947D01*
X-7106250Y6675000D01*
X-6668750Y6675000D01*
X-6647309Y6673947D01*
X-6647309Y6673947D01*
G37*
D18*
X-6887500Y6200000D03*
G04 #@! TD*
D16*
G04 #@! TO.C,R3*
G36*
X10077691Y-18563553D02*
X10098926Y-18566703D01*
X10119750Y-18571919D01*
X10139962Y-18579151D01*
X10159368Y-18588330D01*
X10177781Y-18599366D01*
X10195024Y-18612154D01*
X10210930Y-18626570D01*
X10225346Y-18642476D01*
X10238134Y-18659719D01*
X10249170Y-18678132D01*
X10258349Y-18697538D01*
X10265581Y-18717750D01*
X10270797Y-18738574D01*
X10273947Y-18759809D01*
X10275000Y-18781250D01*
X10275000Y-19218750D01*
X10273947Y-19240191D01*
X10270797Y-19261426D01*
X10265581Y-19282250D01*
X10258349Y-19302462D01*
X10249170Y-19321868D01*
X10238134Y-19340281D01*
X10225346Y-19357524D01*
X10210930Y-19373430D01*
X10195024Y-19387846D01*
X10177781Y-19400634D01*
X10159368Y-19411670D01*
X10139962Y-19420849D01*
X10119750Y-19428081D01*
X10098926Y-19433297D01*
X10077691Y-19436447D01*
X10056250Y-19437500D01*
X9543750Y-19437500D01*
X9522309Y-19436447D01*
X9501074Y-19433297D01*
X9480250Y-19428081D01*
X9460038Y-19420849D01*
X9440632Y-19411670D01*
X9422219Y-19400634D01*
X9404976Y-19387846D01*
X9389070Y-19373430D01*
X9374654Y-19357524D01*
X9361866Y-19340281D01*
X9350830Y-19321868D01*
X9341651Y-19302462D01*
X9334419Y-19282250D01*
X9329203Y-19261426D01*
X9326053Y-19240191D01*
X9325000Y-19218750D01*
X9325000Y-18781250D01*
X9326053Y-18759809D01*
X9329203Y-18738574D01*
X9334419Y-18717750D01*
X9341651Y-18697538D01*
X9350830Y-18678132D01*
X9361866Y-18659719D01*
X9374654Y-18642476D01*
X9389070Y-18626570D01*
X9404976Y-18612154D01*
X9422219Y-18599366D01*
X9440632Y-18588330D01*
X9460038Y-18579151D01*
X9480250Y-18571919D01*
X9501074Y-18566703D01*
X9522309Y-18563553D01*
X9543750Y-18562500D01*
X10056250Y-18562500D01*
X10077691Y-18563553D01*
X10077691Y-18563553D01*
G37*
D18*
X9800000Y-19000000D03*
D16*
G36*
X10077691Y-16988553D02*
X10098926Y-16991703D01*
X10119750Y-16996919D01*
X10139962Y-17004151D01*
X10159368Y-17013330D01*
X10177781Y-17024366D01*
X10195024Y-17037154D01*
X10210930Y-17051570D01*
X10225346Y-17067476D01*
X10238134Y-17084719D01*
X10249170Y-17103132D01*
X10258349Y-17122538D01*
X10265581Y-17142750D01*
X10270797Y-17163574D01*
X10273947Y-17184809D01*
X10275000Y-17206250D01*
X10275000Y-17643750D01*
X10273947Y-17665191D01*
X10270797Y-17686426D01*
X10265581Y-17707250D01*
X10258349Y-17727462D01*
X10249170Y-17746868D01*
X10238134Y-17765281D01*
X10225346Y-17782524D01*
X10210930Y-17798430D01*
X10195024Y-17812846D01*
X10177781Y-17825634D01*
X10159368Y-17836670D01*
X10139962Y-17845849D01*
X10119750Y-17853081D01*
X10098926Y-17858297D01*
X10077691Y-17861447D01*
X10056250Y-17862500D01*
X9543750Y-17862500D01*
X9522309Y-17861447D01*
X9501074Y-17858297D01*
X9480250Y-17853081D01*
X9460038Y-17845849D01*
X9440632Y-17836670D01*
X9422219Y-17825634D01*
X9404976Y-17812846D01*
X9389070Y-17798430D01*
X9374654Y-17782524D01*
X9361866Y-17765281D01*
X9350830Y-17746868D01*
X9341651Y-17727462D01*
X9334419Y-17707250D01*
X9329203Y-17686426D01*
X9326053Y-17665191D01*
X9325000Y-17643750D01*
X9325000Y-17206250D01*
X9326053Y-17184809D01*
X9329203Y-17163574D01*
X9334419Y-17142750D01*
X9341651Y-17122538D01*
X9350830Y-17103132D01*
X9361866Y-17084719D01*
X9374654Y-17067476D01*
X9389070Y-17051570D01*
X9404976Y-17037154D01*
X9422219Y-17024366D01*
X9440632Y-17013330D01*
X9460038Y-17004151D01*
X9480250Y-16996919D01*
X9501074Y-16991703D01*
X9522309Y-16988553D01*
X9543750Y-16987500D01*
X10056250Y-16987500D01*
X10077691Y-16988553D01*
X10077691Y-16988553D01*
G37*
D18*
X9800000Y-17425000D03*
G04 #@! TD*
D16*
G04 #@! TO.C,R4*
G36*
X10077691Y-20388553D02*
X10098926Y-20391703D01*
X10119750Y-20396919D01*
X10139962Y-20404151D01*
X10159368Y-20413330D01*
X10177781Y-20424366D01*
X10195024Y-20437154D01*
X10210930Y-20451570D01*
X10225346Y-20467476D01*
X10238134Y-20484719D01*
X10249170Y-20503132D01*
X10258349Y-20522538D01*
X10265581Y-20542750D01*
X10270797Y-20563574D01*
X10273947Y-20584809D01*
X10275000Y-20606250D01*
X10275000Y-21043750D01*
X10273947Y-21065191D01*
X10270797Y-21086426D01*
X10265581Y-21107250D01*
X10258349Y-21127462D01*
X10249170Y-21146868D01*
X10238134Y-21165281D01*
X10225346Y-21182524D01*
X10210930Y-21198430D01*
X10195024Y-21212846D01*
X10177781Y-21225634D01*
X10159368Y-21236670D01*
X10139962Y-21245849D01*
X10119750Y-21253081D01*
X10098926Y-21258297D01*
X10077691Y-21261447D01*
X10056250Y-21262500D01*
X9543750Y-21262500D01*
X9522309Y-21261447D01*
X9501074Y-21258297D01*
X9480250Y-21253081D01*
X9460038Y-21245849D01*
X9440632Y-21236670D01*
X9422219Y-21225634D01*
X9404976Y-21212846D01*
X9389070Y-21198430D01*
X9374654Y-21182524D01*
X9361866Y-21165281D01*
X9350830Y-21146868D01*
X9341651Y-21127462D01*
X9334419Y-21107250D01*
X9329203Y-21086426D01*
X9326053Y-21065191D01*
X9325000Y-21043750D01*
X9325000Y-20606250D01*
X9326053Y-20584809D01*
X9329203Y-20563574D01*
X9334419Y-20542750D01*
X9341651Y-20522538D01*
X9350830Y-20503132D01*
X9361866Y-20484719D01*
X9374654Y-20467476D01*
X9389070Y-20451570D01*
X9404976Y-20437154D01*
X9422219Y-20424366D01*
X9440632Y-20413330D01*
X9460038Y-20404151D01*
X9480250Y-20396919D01*
X9501074Y-20391703D01*
X9522309Y-20388553D01*
X9543750Y-20387500D01*
X10056250Y-20387500D01*
X10077691Y-20388553D01*
X10077691Y-20388553D01*
G37*
D18*
X9800000Y-20825000D03*
D16*
G36*
X10077691Y-21963553D02*
X10098926Y-21966703D01*
X10119750Y-21971919D01*
X10139962Y-21979151D01*
X10159368Y-21988330D01*
X10177781Y-21999366D01*
X10195024Y-22012154D01*
X10210930Y-22026570D01*
X10225346Y-22042476D01*
X10238134Y-22059719D01*
X10249170Y-22078132D01*
X10258349Y-22097538D01*
X10265581Y-22117750D01*
X10270797Y-22138574D01*
X10273947Y-22159809D01*
X10275000Y-22181250D01*
X10275000Y-22618750D01*
X10273947Y-22640191D01*
X10270797Y-22661426D01*
X10265581Y-22682250D01*
X10258349Y-22702462D01*
X10249170Y-22721868D01*
X10238134Y-22740281D01*
X10225346Y-22757524D01*
X10210930Y-22773430D01*
X10195024Y-22787846D01*
X10177781Y-22800634D01*
X10159368Y-22811670D01*
X10139962Y-22820849D01*
X10119750Y-22828081D01*
X10098926Y-22833297D01*
X10077691Y-22836447D01*
X10056250Y-22837500D01*
X9543750Y-22837500D01*
X9522309Y-22836447D01*
X9501074Y-22833297D01*
X9480250Y-22828081D01*
X9460038Y-22820849D01*
X9440632Y-22811670D01*
X9422219Y-22800634D01*
X9404976Y-22787846D01*
X9389070Y-22773430D01*
X9374654Y-22757524D01*
X9361866Y-22740281D01*
X9350830Y-22721868D01*
X9341651Y-22702462D01*
X9334419Y-22682250D01*
X9329203Y-22661426D01*
X9326053Y-22640191D01*
X9325000Y-22618750D01*
X9325000Y-22181250D01*
X9326053Y-22159809D01*
X9329203Y-22138574D01*
X9334419Y-22117750D01*
X9341651Y-22097538D01*
X9350830Y-22078132D01*
X9361866Y-22059719D01*
X9374654Y-22042476D01*
X9389070Y-22026570D01*
X9404976Y-22012154D01*
X9422219Y-21999366D01*
X9440632Y-21988330D01*
X9460038Y-21979151D01*
X9480250Y-21971919D01*
X9501074Y-21966703D01*
X9522309Y-21963553D01*
X9543750Y-21962500D01*
X10056250Y-21962500D01*
X10077691Y-21963553D01*
X10077691Y-21963553D01*
G37*
D18*
X9800000Y-22400000D03*
G04 #@! TD*
D16*
G04 #@! TO.C,R5*
G36*
X-5072309Y8273947D02*
X-5051074Y8270797D01*
X-5030250Y8265581D01*
X-5010038Y8258349D01*
X-4990632Y8249170D01*
X-4972219Y8238134D01*
X-4954976Y8225346D01*
X-4939070Y8210930D01*
X-4924654Y8195024D01*
X-4911866Y8177781D01*
X-4900830Y8159368D01*
X-4891651Y8139962D01*
X-4884419Y8119750D01*
X-4879203Y8098926D01*
X-4876053Y8077691D01*
X-4875000Y8056250D01*
X-4875000Y7543750D01*
X-4876053Y7522309D01*
X-4879203Y7501074D01*
X-4884419Y7480250D01*
X-4891651Y7460038D01*
X-4900830Y7440632D01*
X-4911866Y7422219D01*
X-4924654Y7404976D01*
X-4939070Y7389070D01*
X-4954976Y7374654D01*
X-4972219Y7361866D01*
X-4990632Y7350830D01*
X-5010038Y7341651D01*
X-5030250Y7334419D01*
X-5051074Y7329203D01*
X-5072309Y7326053D01*
X-5093750Y7325000D01*
X-5531250Y7325000D01*
X-5552691Y7326053D01*
X-5573926Y7329203D01*
X-5594750Y7334419D01*
X-5614962Y7341651D01*
X-5634368Y7350830D01*
X-5652781Y7361866D01*
X-5670024Y7374654D01*
X-5685930Y7389070D01*
X-5700346Y7404976D01*
X-5713134Y7422219D01*
X-5724170Y7440632D01*
X-5733349Y7460038D01*
X-5740581Y7480250D01*
X-5745797Y7501074D01*
X-5748947Y7522309D01*
X-5750000Y7543750D01*
X-5750000Y8056250D01*
X-5748947Y8077691D01*
X-5745797Y8098926D01*
X-5740581Y8119750D01*
X-5733349Y8139962D01*
X-5724170Y8159368D01*
X-5713134Y8177781D01*
X-5700346Y8195024D01*
X-5685930Y8210930D01*
X-5670024Y8225346D01*
X-5652781Y8238134D01*
X-5634368Y8249170D01*
X-5614962Y8258349D01*
X-5594750Y8265581D01*
X-5573926Y8270797D01*
X-5552691Y8273947D01*
X-5531250Y8275000D01*
X-5093750Y8275000D01*
X-5072309Y8273947D01*
X-5072309Y8273947D01*
G37*
D18*
X-5312500Y7800000D03*
D16*
G36*
X-6647309Y8273947D02*
X-6626074Y8270797D01*
X-6605250Y8265581D01*
X-6585038Y8258349D01*
X-6565632Y8249170D01*
X-6547219Y8238134D01*
X-6529976Y8225346D01*
X-6514070Y8210930D01*
X-6499654Y8195024D01*
X-6486866Y8177781D01*
X-6475830Y8159368D01*
X-6466651Y8139962D01*
X-6459419Y8119750D01*
X-6454203Y8098926D01*
X-6451053Y8077691D01*
X-6450000Y8056250D01*
X-6450000Y7543750D01*
X-6451053Y7522309D01*
X-6454203Y7501074D01*
X-6459419Y7480250D01*
X-6466651Y7460038D01*
X-6475830Y7440632D01*
X-6486866Y7422219D01*
X-6499654Y7404976D01*
X-6514070Y7389070D01*
X-6529976Y7374654D01*
X-6547219Y7361866D01*
X-6565632Y7350830D01*
X-6585038Y7341651D01*
X-6605250Y7334419D01*
X-6626074Y7329203D01*
X-6647309Y7326053D01*
X-6668750Y7325000D01*
X-7106250Y7325000D01*
X-7127691Y7326053D01*
X-7148926Y7329203D01*
X-7169750Y7334419D01*
X-7189962Y7341651D01*
X-7209368Y7350830D01*
X-7227781Y7361866D01*
X-7245024Y7374654D01*
X-7260930Y7389070D01*
X-7275346Y7404976D01*
X-7288134Y7422219D01*
X-7299170Y7440632D01*
X-7308349Y7460038D01*
X-7315581Y7480250D01*
X-7320797Y7501074D01*
X-7323947Y7522309D01*
X-7325000Y7543750D01*
X-7325000Y8056250D01*
X-7323947Y8077691D01*
X-7320797Y8098926D01*
X-7315581Y8119750D01*
X-7308349Y8139962D01*
X-7299170Y8159368D01*
X-7288134Y8177781D01*
X-7275346Y8195024D01*
X-7260930Y8210930D01*
X-7245024Y8225346D01*
X-7227781Y8238134D01*
X-7209368Y8249170D01*
X-7189962Y8258349D01*
X-7169750Y8265581D01*
X-7148926Y8270797D01*
X-7127691Y8273947D01*
X-7106250Y8275000D01*
X-6668750Y8275000D01*
X-6647309Y8273947D01*
X-6647309Y8273947D01*
G37*
D18*
X-6887500Y7800000D03*
G04 #@! TD*
D16*
G04 #@! TO.C,R6*
G36*
X7877691Y-18563553D02*
X7898926Y-18566703D01*
X7919750Y-18571919D01*
X7939962Y-18579151D01*
X7959368Y-18588330D01*
X7977781Y-18599366D01*
X7995024Y-18612154D01*
X8010930Y-18626570D01*
X8025346Y-18642476D01*
X8038134Y-18659719D01*
X8049170Y-18678132D01*
X8058349Y-18697538D01*
X8065581Y-18717750D01*
X8070797Y-18738574D01*
X8073947Y-18759809D01*
X8075000Y-18781250D01*
X8075000Y-19218750D01*
X8073947Y-19240191D01*
X8070797Y-19261426D01*
X8065581Y-19282250D01*
X8058349Y-19302462D01*
X8049170Y-19321868D01*
X8038134Y-19340281D01*
X8025346Y-19357524D01*
X8010930Y-19373430D01*
X7995024Y-19387846D01*
X7977781Y-19400634D01*
X7959368Y-19411670D01*
X7939962Y-19420849D01*
X7919750Y-19428081D01*
X7898926Y-19433297D01*
X7877691Y-19436447D01*
X7856250Y-19437500D01*
X7343750Y-19437500D01*
X7322309Y-19436447D01*
X7301074Y-19433297D01*
X7280250Y-19428081D01*
X7260038Y-19420849D01*
X7240632Y-19411670D01*
X7222219Y-19400634D01*
X7204976Y-19387846D01*
X7189070Y-19373430D01*
X7174654Y-19357524D01*
X7161866Y-19340281D01*
X7150830Y-19321868D01*
X7141651Y-19302462D01*
X7134419Y-19282250D01*
X7129203Y-19261426D01*
X7126053Y-19240191D01*
X7125000Y-19218750D01*
X7125000Y-18781250D01*
X7126053Y-18759809D01*
X7129203Y-18738574D01*
X7134419Y-18717750D01*
X7141651Y-18697538D01*
X7150830Y-18678132D01*
X7161866Y-18659719D01*
X7174654Y-18642476D01*
X7189070Y-18626570D01*
X7204976Y-18612154D01*
X7222219Y-18599366D01*
X7240632Y-18588330D01*
X7260038Y-18579151D01*
X7280250Y-18571919D01*
X7301074Y-18566703D01*
X7322309Y-18563553D01*
X7343750Y-18562500D01*
X7856250Y-18562500D01*
X7877691Y-18563553D01*
X7877691Y-18563553D01*
G37*
D18*
X7600000Y-19000000D03*
D16*
G36*
X7877691Y-16988553D02*
X7898926Y-16991703D01*
X7919750Y-16996919D01*
X7939962Y-17004151D01*
X7959368Y-17013330D01*
X7977781Y-17024366D01*
X7995024Y-17037154D01*
X8010930Y-17051570D01*
X8025346Y-17067476D01*
X8038134Y-17084719D01*
X8049170Y-17103132D01*
X8058349Y-17122538D01*
X8065581Y-17142750D01*
X8070797Y-17163574D01*
X8073947Y-17184809D01*
X8075000Y-17206250D01*
X8075000Y-17643750D01*
X8073947Y-17665191D01*
X8070797Y-17686426D01*
X8065581Y-17707250D01*
X8058349Y-17727462D01*
X8049170Y-17746868D01*
X8038134Y-17765281D01*
X8025346Y-17782524D01*
X8010930Y-17798430D01*
X7995024Y-17812846D01*
X7977781Y-17825634D01*
X7959368Y-17836670D01*
X7939962Y-17845849D01*
X7919750Y-17853081D01*
X7898926Y-17858297D01*
X7877691Y-17861447D01*
X7856250Y-17862500D01*
X7343750Y-17862500D01*
X7322309Y-17861447D01*
X7301074Y-17858297D01*
X7280250Y-17853081D01*
X7260038Y-17845849D01*
X7240632Y-17836670D01*
X7222219Y-17825634D01*
X7204976Y-17812846D01*
X7189070Y-17798430D01*
X7174654Y-17782524D01*
X7161866Y-17765281D01*
X7150830Y-17746868D01*
X7141651Y-17727462D01*
X7134419Y-17707250D01*
X7129203Y-17686426D01*
X7126053Y-17665191D01*
X7125000Y-17643750D01*
X7125000Y-17206250D01*
X7126053Y-17184809D01*
X7129203Y-17163574D01*
X7134419Y-17142750D01*
X7141651Y-17122538D01*
X7150830Y-17103132D01*
X7161866Y-17084719D01*
X7174654Y-17067476D01*
X7189070Y-17051570D01*
X7204976Y-17037154D01*
X7222219Y-17024366D01*
X7240632Y-17013330D01*
X7260038Y-17004151D01*
X7280250Y-16996919D01*
X7301074Y-16991703D01*
X7322309Y-16988553D01*
X7343750Y-16987500D01*
X7856250Y-16987500D01*
X7877691Y-16988553D01*
X7877691Y-16988553D01*
G37*
D18*
X7600000Y-17425000D03*
G04 #@! TD*
D16*
G04 #@! TO.C,R7*
G36*
X7877691Y-20388553D02*
X7898926Y-20391703D01*
X7919750Y-20396919D01*
X7939962Y-20404151D01*
X7959368Y-20413330D01*
X7977781Y-20424366D01*
X7995024Y-20437154D01*
X8010930Y-20451570D01*
X8025346Y-20467476D01*
X8038134Y-20484719D01*
X8049170Y-20503132D01*
X8058349Y-20522538D01*
X8065581Y-20542750D01*
X8070797Y-20563574D01*
X8073947Y-20584809D01*
X8075000Y-20606250D01*
X8075000Y-21043750D01*
X8073947Y-21065191D01*
X8070797Y-21086426D01*
X8065581Y-21107250D01*
X8058349Y-21127462D01*
X8049170Y-21146868D01*
X8038134Y-21165281D01*
X8025346Y-21182524D01*
X8010930Y-21198430D01*
X7995024Y-21212846D01*
X7977781Y-21225634D01*
X7959368Y-21236670D01*
X7939962Y-21245849D01*
X7919750Y-21253081D01*
X7898926Y-21258297D01*
X7877691Y-21261447D01*
X7856250Y-21262500D01*
X7343750Y-21262500D01*
X7322309Y-21261447D01*
X7301074Y-21258297D01*
X7280250Y-21253081D01*
X7260038Y-21245849D01*
X7240632Y-21236670D01*
X7222219Y-21225634D01*
X7204976Y-21212846D01*
X7189070Y-21198430D01*
X7174654Y-21182524D01*
X7161866Y-21165281D01*
X7150830Y-21146868D01*
X7141651Y-21127462D01*
X7134419Y-21107250D01*
X7129203Y-21086426D01*
X7126053Y-21065191D01*
X7125000Y-21043750D01*
X7125000Y-20606250D01*
X7126053Y-20584809D01*
X7129203Y-20563574D01*
X7134419Y-20542750D01*
X7141651Y-20522538D01*
X7150830Y-20503132D01*
X7161866Y-20484719D01*
X7174654Y-20467476D01*
X7189070Y-20451570D01*
X7204976Y-20437154D01*
X7222219Y-20424366D01*
X7240632Y-20413330D01*
X7260038Y-20404151D01*
X7280250Y-20396919D01*
X7301074Y-20391703D01*
X7322309Y-20388553D01*
X7343750Y-20387500D01*
X7856250Y-20387500D01*
X7877691Y-20388553D01*
X7877691Y-20388553D01*
G37*
D18*
X7600000Y-20825000D03*
D16*
G36*
X7877691Y-21963553D02*
X7898926Y-21966703D01*
X7919750Y-21971919D01*
X7939962Y-21979151D01*
X7959368Y-21988330D01*
X7977781Y-21999366D01*
X7995024Y-22012154D01*
X8010930Y-22026570D01*
X8025346Y-22042476D01*
X8038134Y-22059719D01*
X8049170Y-22078132D01*
X8058349Y-22097538D01*
X8065581Y-22117750D01*
X8070797Y-22138574D01*
X8073947Y-22159809D01*
X8075000Y-22181250D01*
X8075000Y-22618750D01*
X8073947Y-22640191D01*
X8070797Y-22661426D01*
X8065581Y-22682250D01*
X8058349Y-22702462D01*
X8049170Y-22721868D01*
X8038134Y-22740281D01*
X8025346Y-22757524D01*
X8010930Y-22773430D01*
X7995024Y-22787846D01*
X7977781Y-22800634D01*
X7959368Y-22811670D01*
X7939962Y-22820849D01*
X7919750Y-22828081D01*
X7898926Y-22833297D01*
X7877691Y-22836447D01*
X7856250Y-22837500D01*
X7343750Y-22837500D01*
X7322309Y-22836447D01*
X7301074Y-22833297D01*
X7280250Y-22828081D01*
X7260038Y-22820849D01*
X7240632Y-22811670D01*
X7222219Y-22800634D01*
X7204976Y-22787846D01*
X7189070Y-22773430D01*
X7174654Y-22757524D01*
X7161866Y-22740281D01*
X7150830Y-22721868D01*
X7141651Y-22702462D01*
X7134419Y-22682250D01*
X7129203Y-22661426D01*
X7126053Y-22640191D01*
X7125000Y-22618750D01*
X7125000Y-22181250D01*
X7126053Y-22159809D01*
X7129203Y-22138574D01*
X7134419Y-22117750D01*
X7141651Y-22097538D01*
X7150830Y-22078132D01*
X7161866Y-22059719D01*
X7174654Y-22042476D01*
X7189070Y-22026570D01*
X7204976Y-22012154D01*
X7222219Y-21999366D01*
X7240632Y-21988330D01*
X7260038Y-21979151D01*
X7280250Y-21971919D01*
X7301074Y-21966703D01*
X7322309Y-21963553D01*
X7343750Y-21962500D01*
X7856250Y-21962500D01*
X7877691Y-21963553D01*
X7877691Y-21963553D01*
G37*
D18*
X7600000Y-22400000D03*
G04 #@! TD*
D16*
G04 #@! TO.C,R8*
G36*
X-2522309Y-1251053D02*
X-2501074Y-1254203D01*
X-2480250Y-1259419D01*
X-2460038Y-1266651D01*
X-2440632Y-1275830D01*
X-2422219Y-1286866D01*
X-2404976Y-1299654D01*
X-2389070Y-1314070D01*
X-2374654Y-1329976D01*
X-2361866Y-1347219D01*
X-2350830Y-1365632D01*
X-2341651Y-1385038D01*
X-2334419Y-1405250D01*
X-2329203Y-1426074D01*
X-2326053Y-1447309D01*
X-2325000Y-1468750D01*
X-2325000Y-1906250D01*
X-2326053Y-1927691D01*
X-2329203Y-1948926D01*
X-2334419Y-1969750D01*
X-2341651Y-1989962D01*
X-2350830Y-2009368D01*
X-2361866Y-2027781D01*
X-2374654Y-2045024D01*
X-2389070Y-2060930D01*
X-2404976Y-2075346D01*
X-2422219Y-2088134D01*
X-2440632Y-2099170D01*
X-2460038Y-2108349D01*
X-2480250Y-2115581D01*
X-2501074Y-2120797D01*
X-2522309Y-2123947D01*
X-2543750Y-2125000D01*
X-3056250Y-2125000D01*
X-3077691Y-2123947D01*
X-3098926Y-2120797D01*
X-3119750Y-2115581D01*
X-3139962Y-2108349D01*
X-3159368Y-2099170D01*
X-3177781Y-2088134D01*
X-3195024Y-2075346D01*
X-3210930Y-2060930D01*
X-3225346Y-2045024D01*
X-3238134Y-2027781D01*
X-3249170Y-2009368D01*
X-3258349Y-1989962D01*
X-3265581Y-1969750D01*
X-3270797Y-1948926D01*
X-3273947Y-1927691D01*
X-3275000Y-1906250D01*
X-3275000Y-1468750D01*
X-3273947Y-1447309D01*
X-3270797Y-1426074D01*
X-3265581Y-1405250D01*
X-3258349Y-1385038D01*
X-3249170Y-1365632D01*
X-3238134Y-1347219D01*
X-3225346Y-1329976D01*
X-3210930Y-1314070D01*
X-3195024Y-1299654D01*
X-3177781Y-1286866D01*
X-3159368Y-1275830D01*
X-3139962Y-1266651D01*
X-3119750Y-1259419D01*
X-3098926Y-1254203D01*
X-3077691Y-1251053D01*
X-3056250Y-1250000D01*
X-2543750Y-1250000D01*
X-2522309Y-1251053D01*
X-2522309Y-1251053D01*
G37*
D18*
X-2800000Y-1687500D03*
D16*
G36*
X-2522309Y323947D02*
X-2501074Y320797D01*
X-2480250Y315581D01*
X-2460038Y308349D01*
X-2440632Y299170D01*
X-2422219Y288134D01*
X-2404976Y275346D01*
X-2389070Y260930D01*
X-2374654Y245024D01*
X-2361866Y227781D01*
X-2350830Y209368D01*
X-2341651Y189962D01*
X-2334419Y169750D01*
X-2329203Y148926D01*
X-2326053Y127691D01*
X-2325000Y106250D01*
X-2325000Y-331250D01*
X-2326053Y-352691D01*
X-2329203Y-373926D01*
X-2334419Y-394750D01*
X-2341651Y-414962D01*
X-2350830Y-434368D01*
X-2361866Y-452781D01*
X-2374654Y-470024D01*
X-2389070Y-485930D01*
X-2404976Y-500346D01*
X-2422219Y-513134D01*
X-2440632Y-524170D01*
X-2460038Y-533349D01*
X-2480250Y-540581D01*
X-2501074Y-545797D01*
X-2522309Y-548947D01*
X-2543750Y-550000D01*
X-3056250Y-550000D01*
X-3077691Y-548947D01*
X-3098926Y-545797D01*
X-3119750Y-540581D01*
X-3139962Y-533349D01*
X-3159368Y-524170D01*
X-3177781Y-513134D01*
X-3195024Y-500346D01*
X-3210930Y-485930D01*
X-3225346Y-470024D01*
X-3238134Y-452781D01*
X-3249170Y-434368D01*
X-3258349Y-414962D01*
X-3265581Y-394750D01*
X-3270797Y-373926D01*
X-3273947Y-352691D01*
X-3275000Y-331250D01*
X-3275000Y106250D01*
X-3273947Y127691D01*
X-3270797Y148926D01*
X-3265581Y169750D01*
X-3258349Y189962D01*
X-3249170Y209368D01*
X-3238134Y227781D01*
X-3225346Y245024D01*
X-3210930Y260930D01*
X-3195024Y275346D01*
X-3177781Y288134D01*
X-3159368Y299170D01*
X-3139962Y308349D01*
X-3119750Y315581D01*
X-3098926Y320797D01*
X-3077691Y323947D01*
X-3056250Y325000D01*
X-2543750Y325000D01*
X-2522309Y323947D01*
X-2522309Y323947D01*
G37*
D18*
X-2800000Y-112500D03*
G04 #@! TD*
D16*
G04 #@! TO.C,R9*
G36*
X-2534809Y-3026053D02*
X-2513574Y-3029203D01*
X-2492750Y-3034419D01*
X-2472538Y-3041651D01*
X-2453132Y-3050830D01*
X-2434719Y-3061866D01*
X-2417476Y-3074654D01*
X-2401570Y-3089070D01*
X-2387154Y-3104976D01*
X-2374366Y-3122219D01*
X-2363330Y-3140632D01*
X-2354151Y-3160038D01*
X-2346919Y-3180250D01*
X-2341703Y-3201074D01*
X-2338553Y-3222309D01*
X-2337500Y-3243750D01*
X-2337500Y-3756250D01*
X-2338553Y-3777691D01*
X-2341703Y-3798926D01*
X-2346919Y-3819750D01*
X-2354151Y-3839962D01*
X-2363330Y-3859368D01*
X-2374366Y-3877781D01*
X-2387154Y-3895024D01*
X-2401570Y-3910930D01*
X-2417476Y-3925346D01*
X-2434719Y-3938134D01*
X-2453132Y-3949170D01*
X-2472538Y-3958349D01*
X-2492750Y-3965581D01*
X-2513574Y-3970797D01*
X-2534809Y-3973947D01*
X-2556250Y-3975000D01*
X-2993750Y-3975000D01*
X-3015191Y-3973947D01*
X-3036426Y-3970797D01*
X-3057250Y-3965581D01*
X-3077462Y-3958349D01*
X-3096868Y-3949170D01*
X-3115281Y-3938134D01*
X-3132524Y-3925346D01*
X-3148430Y-3910930D01*
X-3162846Y-3895024D01*
X-3175634Y-3877781D01*
X-3186670Y-3859368D01*
X-3195849Y-3839962D01*
X-3203081Y-3819750D01*
X-3208297Y-3798926D01*
X-3211447Y-3777691D01*
X-3212500Y-3756250D01*
X-3212500Y-3243750D01*
X-3211447Y-3222309D01*
X-3208297Y-3201074D01*
X-3203081Y-3180250D01*
X-3195849Y-3160038D01*
X-3186670Y-3140632D01*
X-3175634Y-3122219D01*
X-3162846Y-3104976D01*
X-3148430Y-3089070D01*
X-3132524Y-3074654D01*
X-3115281Y-3061866D01*
X-3096868Y-3050830D01*
X-3077462Y-3041651D01*
X-3057250Y-3034419D01*
X-3036426Y-3029203D01*
X-3015191Y-3026053D01*
X-2993750Y-3025000D01*
X-2556250Y-3025000D01*
X-2534809Y-3026053D01*
X-2534809Y-3026053D01*
G37*
D18*
X-2775000Y-3500000D03*
D16*
G36*
X-959809Y-3026053D02*
X-938574Y-3029203D01*
X-917750Y-3034419D01*
X-897538Y-3041651D01*
X-878132Y-3050830D01*
X-859719Y-3061866D01*
X-842476Y-3074654D01*
X-826570Y-3089070D01*
X-812154Y-3104976D01*
X-799366Y-3122219D01*
X-788330Y-3140632D01*
X-779151Y-3160038D01*
X-771919Y-3180250D01*
X-766703Y-3201074D01*
X-763553Y-3222309D01*
X-762500Y-3243750D01*
X-762500Y-3756250D01*
X-763553Y-3777691D01*
X-766703Y-3798926D01*
X-771919Y-3819750D01*
X-779151Y-3839962D01*
X-788330Y-3859368D01*
X-799366Y-3877781D01*
X-812154Y-3895024D01*
X-826570Y-3910930D01*
X-842476Y-3925346D01*
X-859719Y-3938134D01*
X-878132Y-3949170D01*
X-897538Y-3958349D01*
X-917750Y-3965581D01*
X-938574Y-3970797D01*
X-959809Y-3973947D01*
X-981250Y-3975000D01*
X-1418750Y-3975000D01*
X-1440191Y-3973947D01*
X-1461426Y-3970797D01*
X-1482250Y-3965581D01*
X-1502462Y-3958349D01*
X-1521868Y-3949170D01*
X-1540281Y-3938134D01*
X-1557524Y-3925346D01*
X-1573430Y-3910930D01*
X-1587846Y-3895024D01*
X-1600634Y-3877781D01*
X-1611670Y-3859368D01*
X-1620849Y-3839962D01*
X-1628081Y-3819750D01*
X-1633297Y-3798926D01*
X-1636447Y-3777691D01*
X-1637500Y-3756250D01*
X-1637500Y-3243750D01*
X-1636447Y-3222309D01*
X-1633297Y-3201074D01*
X-1628081Y-3180250D01*
X-1620849Y-3160038D01*
X-1611670Y-3140632D01*
X-1600634Y-3122219D01*
X-1587846Y-3104976D01*
X-1573430Y-3089070D01*
X-1557524Y-3074654D01*
X-1540281Y-3061866D01*
X-1521868Y-3050830D01*
X-1502462Y-3041651D01*
X-1482250Y-3034419D01*
X-1461426Y-3029203D01*
X-1440191Y-3026053D01*
X-1418750Y-3025000D01*
X-981250Y-3025000D01*
X-959809Y-3026053D01*
X-959809Y-3026053D01*
G37*
D18*
X-1200000Y-3500000D03*
G04 #@! TD*
D16*
G04 #@! TO.C,R10*
G36*
X215191Y-10926053D02*
X236426Y-10929203D01*
X257250Y-10934419D01*
X277462Y-10941651D01*
X296868Y-10950830D01*
X315281Y-10961866D01*
X332524Y-10974654D01*
X348430Y-10989070D01*
X362846Y-11004976D01*
X375634Y-11022219D01*
X386670Y-11040632D01*
X395849Y-11060038D01*
X403081Y-11080250D01*
X408297Y-11101074D01*
X411447Y-11122309D01*
X412500Y-11143750D01*
X412500Y-11656250D01*
X411447Y-11677691D01*
X408297Y-11698926D01*
X403081Y-11719750D01*
X395849Y-11739962D01*
X386670Y-11759368D01*
X375634Y-11777781D01*
X362846Y-11795024D01*
X348430Y-11810930D01*
X332524Y-11825346D01*
X315281Y-11838134D01*
X296868Y-11849170D01*
X277462Y-11858349D01*
X257250Y-11865581D01*
X236426Y-11870797D01*
X215191Y-11873947D01*
X193750Y-11875000D01*
X-243750Y-11875000D01*
X-265191Y-11873947D01*
X-286426Y-11870797D01*
X-307250Y-11865581D01*
X-327462Y-11858349D01*
X-346868Y-11849170D01*
X-365281Y-11838134D01*
X-382524Y-11825346D01*
X-398430Y-11810930D01*
X-412846Y-11795024D01*
X-425634Y-11777781D01*
X-436670Y-11759368D01*
X-445849Y-11739962D01*
X-453081Y-11719750D01*
X-458297Y-11698926D01*
X-461447Y-11677691D01*
X-462500Y-11656250D01*
X-462500Y-11143750D01*
X-461447Y-11122309D01*
X-458297Y-11101074D01*
X-453081Y-11080250D01*
X-445849Y-11060038D01*
X-436670Y-11040632D01*
X-425634Y-11022219D01*
X-412846Y-11004976D01*
X-398430Y-10989070D01*
X-382524Y-10974654D01*
X-365281Y-10961866D01*
X-346868Y-10950830D01*
X-327462Y-10941651D01*
X-307250Y-10934419D01*
X-286426Y-10929203D01*
X-265191Y-10926053D01*
X-243750Y-10925000D01*
X193750Y-10925000D01*
X215191Y-10926053D01*
X215191Y-10926053D01*
G37*
D18*
X-25000Y-11400000D03*
D16*
G36*
X-1359809Y-10926053D02*
X-1338574Y-10929203D01*
X-1317750Y-10934419D01*
X-1297538Y-10941651D01*
X-1278132Y-10950830D01*
X-1259719Y-10961866D01*
X-1242476Y-10974654D01*
X-1226570Y-10989070D01*
X-1212154Y-11004976D01*
X-1199366Y-11022219D01*
X-1188330Y-11040632D01*
X-1179151Y-11060038D01*
X-1171919Y-11080250D01*
X-1166703Y-11101074D01*
X-1163553Y-11122309D01*
X-1162500Y-11143750D01*
X-1162500Y-11656250D01*
X-1163553Y-11677691D01*
X-1166703Y-11698926D01*
X-1171919Y-11719750D01*
X-1179151Y-11739962D01*
X-1188330Y-11759368D01*
X-1199366Y-11777781D01*
X-1212154Y-11795024D01*
X-1226570Y-11810930D01*
X-1242476Y-11825346D01*
X-1259719Y-11838134D01*
X-1278132Y-11849170D01*
X-1297538Y-11858349D01*
X-1317750Y-11865581D01*
X-1338574Y-11870797D01*
X-1359809Y-11873947D01*
X-1381250Y-11875000D01*
X-1818750Y-11875000D01*
X-1840191Y-11873947D01*
X-1861426Y-11870797D01*
X-1882250Y-11865581D01*
X-1902462Y-11858349D01*
X-1921868Y-11849170D01*
X-1940281Y-11838134D01*
X-1957524Y-11825346D01*
X-1973430Y-11810930D01*
X-1987846Y-11795024D01*
X-2000634Y-11777781D01*
X-2011670Y-11759368D01*
X-2020849Y-11739962D01*
X-2028081Y-11719750D01*
X-2033297Y-11698926D01*
X-2036447Y-11677691D01*
X-2037500Y-11656250D01*
X-2037500Y-11143750D01*
X-2036447Y-11122309D01*
X-2033297Y-11101074D01*
X-2028081Y-11080250D01*
X-2020849Y-11060038D01*
X-2011670Y-11040632D01*
X-2000634Y-11022219D01*
X-1987846Y-11004976D01*
X-1973430Y-10989070D01*
X-1957524Y-10974654D01*
X-1940281Y-10961866D01*
X-1921868Y-10950830D01*
X-1902462Y-10941651D01*
X-1882250Y-10934419D01*
X-1861426Y-10929203D01*
X-1840191Y-10926053D01*
X-1818750Y-10925000D01*
X-1381250Y-10925000D01*
X-1359809Y-10926053D01*
X-1359809Y-10926053D01*
G37*
D18*
X-1600000Y-11400000D03*
G04 #@! TD*
D16*
G04 #@! TO.C,R11*
G36*
X6677691Y4823947D02*
X6698926Y4820797D01*
X6719750Y4815581D01*
X6739962Y4808349D01*
X6759368Y4799170D01*
X6777781Y4788134D01*
X6795024Y4775346D01*
X6810930Y4760930D01*
X6825346Y4745024D01*
X6838134Y4727781D01*
X6849170Y4709368D01*
X6858349Y4689962D01*
X6865581Y4669750D01*
X6870797Y4648926D01*
X6873947Y4627691D01*
X6875000Y4606250D01*
X6875000Y4168750D01*
X6873947Y4147309D01*
X6870797Y4126074D01*
X6865581Y4105250D01*
X6858349Y4085038D01*
X6849170Y4065632D01*
X6838134Y4047219D01*
X6825346Y4029976D01*
X6810930Y4014070D01*
X6795024Y3999654D01*
X6777781Y3986866D01*
X6759368Y3975830D01*
X6739962Y3966651D01*
X6719750Y3959419D01*
X6698926Y3954203D01*
X6677691Y3951053D01*
X6656250Y3950000D01*
X6143750Y3950000D01*
X6122309Y3951053D01*
X6101074Y3954203D01*
X6080250Y3959419D01*
X6060038Y3966651D01*
X6040632Y3975830D01*
X6022219Y3986866D01*
X6004976Y3999654D01*
X5989070Y4014070D01*
X5974654Y4029976D01*
X5961866Y4047219D01*
X5950830Y4065632D01*
X5941651Y4085038D01*
X5934419Y4105250D01*
X5929203Y4126074D01*
X5926053Y4147309D01*
X5925000Y4168750D01*
X5925000Y4606250D01*
X5926053Y4627691D01*
X5929203Y4648926D01*
X5934419Y4669750D01*
X5941651Y4689962D01*
X5950830Y4709368D01*
X5961866Y4727781D01*
X5974654Y4745024D01*
X5989070Y4760930D01*
X6004976Y4775346D01*
X6022219Y4788134D01*
X6040632Y4799170D01*
X6060038Y4808349D01*
X6080250Y4815581D01*
X6101074Y4820797D01*
X6122309Y4823947D01*
X6143750Y4825000D01*
X6656250Y4825000D01*
X6677691Y4823947D01*
X6677691Y4823947D01*
G37*
D18*
X6400000Y4387500D03*
D16*
G36*
X6677691Y3248947D02*
X6698926Y3245797D01*
X6719750Y3240581D01*
X6739962Y3233349D01*
X6759368Y3224170D01*
X6777781Y3213134D01*
X6795024Y3200346D01*
X6810930Y3185930D01*
X6825346Y3170024D01*
X6838134Y3152781D01*
X6849170Y3134368D01*
X6858349Y3114962D01*
X6865581Y3094750D01*
X6870797Y3073926D01*
X6873947Y3052691D01*
X6875000Y3031250D01*
X6875000Y2593750D01*
X6873947Y2572309D01*
X6870797Y2551074D01*
X6865581Y2530250D01*
X6858349Y2510038D01*
X6849170Y2490632D01*
X6838134Y2472219D01*
X6825346Y2454976D01*
X6810930Y2439070D01*
X6795024Y2424654D01*
X6777781Y2411866D01*
X6759368Y2400830D01*
X6739962Y2391651D01*
X6719750Y2384419D01*
X6698926Y2379203D01*
X6677691Y2376053D01*
X6656250Y2375000D01*
X6143750Y2375000D01*
X6122309Y2376053D01*
X6101074Y2379203D01*
X6080250Y2384419D01*
X6060038Y2391651D01*
X6040632Y2400830D01*
X6022219Y2411866D01*
X6004976Y2424654D01*
X5989070Y2439070D01*
X5974654Y2454976D01*
X5961866Y2472219D01*
X5950830Y2490632D01*
X5941651Y2510038D01*
X5934419Y2530250D01*
X5929203Y2551074D01*
X5926053Y2572309D01*
X5925000Y2593750D01*
X5925000Y3031250D01*
X5926053Y3052691D01*
X5929203Y3073926D01*
X5934419Y3094750D01*
X5941651Y3114962D01*
X5950830Y3134368D01*
X5961866Y3152781D01*
X5974654Y3170024D01*
X5989070Y3185930D01*
X6004976Y3200346D01*
X6022219Y3213134D01*
X6040632Y3224170D01*
X6060038Y3233349D01*
X6080250Y3240581D01*
X6101074Y3245797D01*
X6122309Y3248947D01*
X6143750Y3250000D01*
X6656250Y3250000D01*
X6677691Y3248947D01*
X6677691Y3248947D01*
G37*
D18*
X6400000Y2812500D03*
G04 #@! TD*
D16*
G04 #@! TO.C,R12*
G36*
X5177691Y4836447D02*
X5198926Y4833297D01*
X5219750Y4828081D01*
X5239962Y4820849D01*
X5259368Y4811670D01*
X5277781Y4800634D01*
X5295024Y4787846D01*
X5310930Y4773430D01*
X5325346Y4757524D01*
X5338134Y4740281D01*
X5349170Y4721868D01*
X5358349Y4702462D01*
X5365581Y4682250D01*
X5370797Y4661426D01*
X5373947Y4640191D01*
X5375000Y4618750D01*
X5375000Y4181250D01*
X5373947Y4159809D01*
X5370797Y4138574D01*
X5365581Y4117750D01*
X5358349Y4097538D01*
X5349170Y4078132D01*
X5338134Y4059719D01*
X5325346Y4042476D01*
X5310930Y4026570D01*
X5295024Y4012154D01*
X5277781Y3999366D01*
X5259368Y3988330D01*
X5239962Y3979151D01*
X5219750Y3971919D01*
X5198926Y3966703D01*
X5177691Y3963553D01*
X5156250Y3962500D01*
X4643750Y3962500D01*
X4622309Y3963553D01*
X4601074Y3966703D01*
X4580250Y3971919D01*
X4560038Y3979151D01*
X4540632Y3988330D01*
X4522219Y3999366D01*
X4504976Y4012154D01*
X4489070Y4026570D01*
X4474654Y4042476D01*
X4461866Y4059719D01*
X4450830Y4078132D01*
X4441651Y4097538D01*
X4434419Y4117750D01*
X4429203Y4138574D01*
X4426053Y4159809D01*
X4425000Y4181250D01*
X4425000Y4618750D01*
X4426053Y4640191D01*
X4429203Y4661426D01*
X4434419Y4682250D01*
X4441651Y4702462D01*
X4450830Y4721868D01*
X4461866Y4740281D01*
X4474654Y4757524D01*
X4489070Y4773430D01*
X4504976Y4787846D01*
X4522219Y4800634D01*
X4540632Y4811670D01*
X4560038Y4820849D01*
X4580250Y4828081D01*
X4601074Y4833297D01*
X4622309Y4836447D01*
X4643750Y4837500D01*
X5156250Y4837500D01*
X5177691Y4836447D01*
X5177691Y4836447D01*
G37*
D18*
X4900000Y4400000D03*
D16*
G36*
X5177691Y3261447D02*
X5198926Y3258297D01*
X5219750Y3253081D01*
X5239962Y3245849D01*
X5259368Y3236670D01*
X5277781Y3225634D01*
X5295024Y3212846D01*
X5310930Y3198430D01*
X5325346Y3182524D01*
X5338134Y3165281D01*
X5349170Y3146868D01*
X5358349Y3127462D01*
X5365581Y3107250D01*
X5370797Y3086426D01*
X5373947Y3065191D01*
X5375000Y3043750D01*
X5375000Y2606250D01*
X5373947Y2584809D01*
X5370797Y2563574D01*
X5365581Y2542750D01*
X5358349Y2522538D01*
X5349170Y2503132D01*
X5338134Y2484719D01*
X5325346Y2467476D01*
X5310930Y2451570D01*
X5295024Y2437154D01*
X5277781Y2424366D01*
X5259368Y2413330D01*
X5239962Y2404151D01*
X5219750Y2396919D01*
X5198926Y2391703D01*
X5177691Y2388553D01*
X5156250Y2387500D01*
X4643750Y2387500D01*
X4622309Y2388553D01*
X4601074Y2391703D01*
X4580250Y2396919D01*
X4560038Y2404151D01*
X4540632Y2413330D01*
X4522219Y2424366D01*
X4504976Y2437154D01*
X4489070Y2451570D01*
X4474654Y2467476D01*
X4461866Y2484719D01*
X4450830Y2503132D01*
X4441651Y2522538D01*
X4434419Y2542750D01*
X4429203Y2563574D01*
X4426053Y2584809D01*
X4425000Y2606250D01*
X4425000Y3043750D01*
X4426053Y3065191D01*
X4429203Y3086426D01*
X4434419Y3107250D01*
X4441651Y3127462D01*
X4450830Y3146868D01*
X4461866Y3165281D01*
X4474654Y3182524D01*
X4489070Y3198430D01*
X4504976Y3212846D01*
X4522219Y3225634D01*
X4540632Y3236670D01*
X4560038Y3245849D01*
X4580250Y3253081D01*
X4601074Y3258297D01*
X4622309Y3261447D01*
X4643750Y3262500D01*
X5156250Y3262500D01*
X5177691Y3261447D01*
X5177691Y3261447D01*
G37*
D18*
X4900000Y2825000D03*
G04 #@! TD*
D16*
G04 #@! TO.C,R13*
G36*
X-18747309Y8273947D02*
X-18726074Y8270797D01*
X-18705250Y8265581D01*
X-18685038Y8258349D01*
X-18665632Y8249170D01*
X-18647219Y8238134D01*
X-18629976Y8225346D01*
X-18614070Y8210930D01*
X-18599654Y8195024D01*
X-18586866Y8177781D01*
X-18575830Y8159368D01*
X-18566651Y8139962D01*
X-18559419Y8119750D01*
X-18554203Y8098926D01*
X-18551053Y8077691D01*
X-18550000Y8056250D01*
X-18550000Y7543750D01*
X-18551053Y7522309D01*
X-18554203Y7501074D01*
X-18559419Y7480250D01*
X-18566651Y7460038D01*
X-18575830Y7440632D01*
X-18586866Y7422219D01*
X-18599654Y7404976D01*
X-18614070Y7389070D01*
X-18629976Y7374654D01*
X-18647219Y7361866D01*
X-18665632Y7350830D01*
X-18685038Y7341651D01*
X-18705250Y7334419D01*
X-18726074Y7329203D01*
X-18747309Y7326053D01*
X-18768750Y7325000D01*
X-19206250Y7325000D01*
X-19227691Y7326053D01*
X-19248926Y7329203D01*
X-19269750Y7334419D01*
X-19289962Y7341651D01*
X-19309368Y7350830D01*
X-19327781Y7361866D01*
X-19345024Y7374654D01*
X-19360930Y7389070D01*
X-19375346Y7404976D01*
X-19388134Y7422219D01*
X-19399170Y7440632D01*
X-19408349Y7460038D01*
X-19415581Y7480250D01*
X-19420797Y7501074D01*
X-19423947Y7522309D01*
X-19425000Y7543750D01*
X-19425000Y8056250D01*
X-19423947Y8077691D01*
X-19420797Y8098926D01*
X-19415581Y8119750D01*
X-19408349Y8139962D01*
X-19399170Y8159368D01*
X-19388134Y8177781D01*
X-19375346Y8195024D01*
X-19360930Y8210930D01*
X-19345024Y8225346D01*
X-19327781Y8238134D01*
X-19309368Y8249170D01*
X-19289962Y8258349D01*
X-19269750Y8265581D01*
X-19248926Y8270797D01*
X-19227691Y8273947D01*
X-19206250Y8275000D01*
X-18768750Y8275000D01*
X-18747309Y8273947D01*
X-18747309Y8273947D01*
G37*
D18*
X-18987500Y7800000D03*
D16*
G36*
X-17172309Y8273947D02*
X-17151074Y8270797D01*
X-17130250Y8265581D01*
X-17110038Y8258349D01*
X-17090632Y8249170D01*
X-17072219Y8238134D01*
X-17054976Y8225346D01*
X-17039070Y8210930D01*
X-17024654Y8195024D01*
X-17011866Y8177781D01*
X-17000830Y8159368D01*
X-16991651Y8139962D01*
X-16984419Y8119750D01*
X-16979203Y8098926D01*
X-16976053Y8077691D01*
X-16975000Y8056250D01*
X-16975000Y7543750D01*
X-16976053Y7522309D01*
X-16979203Y7501074D01*
X-16984419Y7480250D01*
X-16991651Y7460038D01*
X-17000830Y7440632D01*
X-17011866Y7422219D01*
X-17024654Y7404976D01*
X-17039070Y7389070D01*
X-17054976Y7374654D01*
X-17072219Y7361866D01*
X-17090632Y7350830D01*
X-17110038Y7341651D01*
X-17130250Y7334419D01*
X-17151074Y7329203D01*
X-17172309Y7326053D01*
X-17193750Y7325000D01*
X-17631250Y7325000D01*
X-17652691Y7326053D01*
X-17673926Y7329203D01*
X-17694750Y7334419D01*
X-17714962Y7341651D01*
X-17734368Y7350830D01*
X-17752781Y7361866D01*
X-17770024Y7374654D01*
X-17785930Y7389070D01*
X-17800346Y7404976D01*
X-17813134Y7422219D01*
X-17824170Y7440632D01*
X-17833349Y7460038D01*
X-17840581Y7480250D01*
X-17845797Y7501074D01*
X-17848947Y7522309D01*
X-17850000Y7543750D01*
X-17850000Y8056250D01*
X-17848947Y8077691D01*
X-17845797Y8098926D01*
X-17840581Y8119750D01*
X-17833349Y8139962D01*
X-17824170Y8159368D01*
X-17813134Y8177781D01*
X-17800346Y8195024D01*
X-17785930Y8210930D01*
X-17770024Y8225346D01*
X-17752781Y8238134D01*
X-17734368Y8249170D01*
X-17714962Y8258349D01*
X-17694750Y8265581D01*
X-17673926Y8270797D01*
X-17652691Y8273947D01*
X-17631250Y8275000D01*
X-17193750Y8275000D01*
X-17172309Y8273947D01*
X-17172309Y8273947D01*
G37*
D18*
X-17412500Y7800000D03*
G04 #@! TD*
D16*
G04 #@! TO.C,R14*
G36*
X-17172309Y9873947D02*
X-17151074Y9870797D01*
X-17130250Y9865581D01*
X-17110038Y9858349D01*
X-17090632Y9849170D01*
X-17072219Y9838134D01*
X-17054976Y9825346D01*
X-17039070Y9810930D01*
X-17024654Y9795024D01*
X-17011866Y9777781D01*
X-17000830Y9759368D01*
X-16991651Y9739962D01*
X-16984419Y9719750D01*
X-16979203Y9698926D01*
X-16976053Y9677691D01*
X-16975000Y9656250D01*
X-16975000Y9143750D01*
X-16976053Y9122309D01*
X-16979203Y9101074D01*
X-16984419Y9080250D01*
X-16991651Y9060038D01*
X-17000830Y9040632D01*
X-17011866Y9022219D01*
X-17024654Y9004976D01*
X-17039070Y8989070D01*
X-17054976Y8974654D01*
X-17072219Y8961866D01*
X-17090632Y8950830D01*
X-17110038Y8941651D01*
X-17130250Y8934419D01*
X-17151074Y8929203D01*
X-17172309Y8926053D01*
X-17193750Y8925000D01*
X-17631250Y8925000D01*
X-17652691Y8926053D01*
X-17673926Y8929203D01*
X-17694750Y8934419D01*
X-17714962Y8941651D01*
X-17734368Y8950830D01*
X-17752781Y8961866D01*
X-17770024Y8974654D01*
X-17785930Y8989070D01*
X-17800346Y9004976D01*
X-17813134Y9022219D01*
X-17824170Y9040632D01*
X-17833349Y9060038D01*
X-17840581Y9080250D01*
X-17845797Y9101074D01*
X-17848947Y9122309D01*
X-17850000Y9143750D01*
X-17850000Y9656250D01*
X-17848947Y9677691D01*
X-17845797Y9698926D01*
X-17840581Y9719750D01*
X-17833349Y9739962D01*
X-17824170Y9759368D01*
X-17813134Y9777781D01*
X-17800346Y9795024D01*
X-17785930Y9810930D01*
X-17770024Y9825346D01*
X-17752781Y9838134D01*
X-17734368Y9849170D01*
X-17714962Y9858349D01*
X-17694750Y9865581D01*
X-17673926Y9870797D01*
X-17652691Y9873947D01*
X-17631250Y9875000D01*
X-17193750Y9875000D01*
X-17172309Y9873947D01*
X-17172309Y9873947D01*
G37*
D18*
X-17412500Y9400000D03*
D16*
G36*
X-18747309Y9873947D02*
X-18726074Y9870797D01*
X-18705250Y9865581D01*
X-18685038Y9858349D01*
X-18665632Y9849170D01*
X-18647219Y9838134D01*
X-18629976Y9825346D01*
X-18614070Y9810930D01*
X-18599654Y9795024D01*
X-18586866Y9777781D01*
X-18575830Y9759368D01*
X-18566651Y9739962D01*
X-18559419Y9719750D01*
X-18554203Y9698926D01*
X-18551053Y9677691D01*
X-18550000Y9656250D01*
X-18550000Y9143750D01*
X-18551053Y9122309D01*
X-18554203Y9101074D01*
X-18559419Y9080250D01*
X-18566651Y9060038D01*
X-18575830Y9040632D01*
X-18586866Y9022219D01*
X-18599654Y9004976D01*
X-18614070Y8989070D01*
X-18629976Y8974654D01*
X-18647219Y8961866D01*
X-18665632Y8950830D01*
X-18685038Y8941651D01*
X-18705250Y8934419D01*
X-18726074Y8929203D01*
X-18747309Y8926053D01*
X-18768750Y8925000D01*
X-19206250Y8925000D01*
X-19227691Y8926053D01*
X-19248926Y8929203D01*
X-19269750Y8934419D01*
X-19289962Y8941651D01*
X-19309368Y8950830D01*
X-19327781Y8961866D01*
X-19345024Y8974654D01*
X-19360930Y8989070D01*
X-19375346Y9004976D01*
X-19388134Y9022219D01*
X-19399170Y9040632D01*
X-19408349Y9060038D01*
X-19415581Y9080250D01*
X-19420797Y9101074D01*
X-19423947Y9122309D01*
X-19425000Y9143750D01*
X-19425000Y9656250D01*
X-19423947Y9677691D01*
X-19420797Y9698926D01*
X-19415581Y9719750D01*
X-19408349Y9739962D01*
X-19399170Y9759368D01*
X-19388134Y9777781D01*
X-19375346Y9795024D01*
X-19360930Y9810930D01*
X-19345024Y9825346D01*
X-19327781Y9838134D01*
X-19309368Y9849170D01*
X-19289962Y9858349D01*
X-19269750Y9865581D01*
X-19248926Y9870797D01*
X-19227691Y9873947D01*
X-19206250Y9875000D01*
X-18768750Y9875000D01*
X-18747309Y9873947D01*
X-18747309Y9873947D01*
G37*
D18*
X-18987500Y9400000D03*
G04 #@! TD*
D20*
G04 #@! TO.C,U1*
X4500000Y-18050000D03*
X4500000Y-17400000D03*
X4500000Y-16740000D03*
X4500000Y-16090000D03*
X2300000Y-16090000D03*
X2300000Y-16740000D03*
X2300000Y-17400000D03*
X2300000Y-18050000D03*
G04 #@! TD*
D16*
G04 #@! TO.C,F1*
G36*
X-4787995Y-19301204D02*
X-4763727Y-19304804D01*
X-4739928Y-19310765D01*
X-4716829Y-19319030D01*
X-4694650Y-19329520D01*
X-4673607Y-19342132D01*
X-4653901Y-19356747D01*
X-4635723Y-19373223D01*
X-4619247Y-19391401D01*
X-4604632Y-19411107D01*
X-4592020Y-19432150D01*
X-4581530Y-19454329D01*
X-4573265Y-19477428D01*
X-4567304Y-19501227D01*
X-4563704Y-19525495D01*
X-4562500Y-19549999D01*
X-4562500Y-22450001D01*
X-4563704Y-22474505D01*
X-4567304Y-22498773D01*
X-4573265Y-22522572D01*
X-4581530Y-22545671D01*
X-4592020Y-22567850D01*
X-4604632Y-22588893D01*
X-4619247Y-22608599D01*
X-4635723Y-22626777D01*
X-4653901Y-22643253D01*
X-4673607Y-22657868D01*
X-4694650Y-22670480D01*
X-4716829Y-22680970D01*
X-4739928Y-22689235D01*
X-4763727Y-22695196D01*
X-4787995Y-22698796D01*
X-4812499Y-22700000D01*
X-5437501Y-22700000D01*
X-5462005Y-22698796D01*
X-5486273Y-22695196D01*
X-5510072Y-22689235D01*
X-5533171Y-22680970D01*
X-5555350Y-22670480D01*
X-5576393Y-22657868D01*
X-5596099Y-22643253D01*
X-5614277Y-22626777D01*
X-5630753Y-22608599D01*
X-5645368Y-22588893D01*
X-5657980Y-22567850D01*
X-5668470Y-22545671D01*
X-5676735Y-22522572D01*
X-5682696Y-22498773D01*
X-5686296Y-22474505D01*
X-5687500Y-22450001D01*
X-5687500Y-19549999D01*
X-5686296Y-19525495D01*
X-5682696Y-19501227D01*
X-5676735Y-19477428D01*
X-5668470Y-19454329D01*
X-5657980Y-19432150D01*
X-5645368Y-19411107D01*
X-5630753Y-19391401D01*
X-5614277Y-19373223D01*
X-5596099Y-19356747D01*
X-5576393Y-19342132D01*
X-5555350Y-19329520D01*
X-5533171Y-19319030D01*
X-5510072Y-19310765D01*
X-5486273Y-19304804D01*
X-5462005Y-19301204D01*
X-5437501Y-19300000D01*
X-4812499Y-19300000D01*
X-4787995Y-19301204D01*
X-4787995Y-19301204D01*
G37*
D21*
X-5125000Y-21000000D03*
D16*
G36*
X-9062995Y-19301204D02*
X-9038727Y-19304804D01*
X-9014928Y-19310765D01*
X-8991829Y-19319030D01*
X-8969650Y-19329520D01*
X-8948607Y-19342132D01*
X-8928901Y-19356747D01*
X-8910723Y-19373223D01*
X-8894247Y-19391401D01*
X-8879632Y-19411107D01*
X-8867020Y-19432150D01*
X-8856530Y-19454329D01*
X-8848265Y-19477428D01*
X-8842304Y-19501227D01*
X-8838704Y-19525495D01*
X-8837500Y-19549999D01*
X-8837500Y-22450001D01*
X-8838704Y-22474505D01*
X-8842304Y-22498773D01*
X-8848265Y-22522572D01*
X-8856530Y-22545671D01*
X-8867020Y-22567850D01*
X-8879632Y-22588893D01*
X-8894247Y-22608599D01*
X-8910723Y-22626777D01*
X-8928901Y-22643253D01*
X-8948607Y-22657868D01*
X-8969650Y-22670480D01*
X-8991829Y-22680970D01*
X-9014928Y-22689235D01*
X-9038727Y-22695196D01*
X-9062995Y-22698796D01*
X-9087499Y-22700000D01*
X-9712501Y-22700000D01*
X-9737005Y-22698796D01*
X-9761273Y-22695196D01*
X-9785072Y-22689235D01*
X-9808171Y-22680970D01*
X-9830350Y-22670480D01*
X-9851393Y-22657868D01*
X-9871099Y-22643253D01*
X-9889277Y-22626777D01*
X-9905753Y-22608599D01*
X-9920368Y-22588893D01*
X-9932980Y-22567850D01*
X-9943470Y-22545671D01*
X-9951735Y-22522572D01*
X-9957696Y-22498773D01*
X-9961296Y-22474505D01*
X-9962500Y-22450001D01*
X-9962500Y-19549999D01*
X-9961296Y-19525495D01*
X-9957696Y-19501227D01*
X-9951735Y-19477428D01*
X-9943470Y-19454329D01*
X-9932980Y-19432150D01*
X-9920368Y-19411107D01*
X-9905753Y-19391401D01*
X-9889277Y-19373223D01*
X-9871099Y-19356747D01*
X-9851393Y-19342132D01*
X-9830350Y-19329520D01*
X-9808171Y-19319030D01*
X-9785072Y-19310765D01*
X-9761273Y-19304804D01*
X-9737005Y-19301204D01*
X-9712501Y-19300000D01*
X-9087499Y-19300000D01*
X-9062995Y-19301204D01*
X-9062995Y-19301204D01*
G37*
D21*
X-9400000Y-21000000D03*
G04 #@! TD*
D16*
G04 #@! TO.C,R15*
G36*
X-657358Y-13301174D02*
X-633697Y-13304684D01*
X-610493Y-13310496D01*
X-587971Y-13318554D01*
X-566347Y-13328782D01*
X-545830Y-13341079D01*
X-526617Y-13355329D01*
X-508893Y-13371393D01*
X-492829Y-13389117D01*
X-478579Y-13408330D01*
X-466282Y-13428847D01*
X-456054Y-13450471D01*
X-447996Y-13472993D01*
X-442184Y-13496197D01*
X-438674Y-13519858D01*
X-437500Y-13543750D01*
X-437500Y-14456250D01*
X-438674Y-14480142D01*
X-442184Y-14503803D01*
X-447996Y-14527007D01*
X-456054Y-14549529D01*
X-466282Y-14571153D01*
X-478579Y-14591670D01*
X-492829Y-14610883D01*
X-508893Y-14628607D01*
X-526617Y-14644671D01*
X-545830Y-14658921D01*
X-566347Y-14671218D01*
X-587971Y-14681446D01*
X-610493Y-14689504D01*
X-633697Y-14695316D01*
X-657358Y-14698826D01*
X-681250Y-14700000D01*
X-1168750Y-14700000D01*
X-1192642Y-14698826D01*
X-1216303Y-14695316D01*
X-1239507Y-14689504D01*
X-1262029Y-14681446D01*
X-1283653Y-14671218D01*
X-1304170Y-14658921D01*
X-1323383Y-14644671D01*
X-1341107Y-14628607D01*
X-1357171Y-14610883D01*
X-1371421Y-14591670D01*
X-1383718Y-14571153D01*
X-1393946Y-14549529D01*
X-1402004Y-14527007D01*
X-1407816Y-14503803D01*
X-1411326Y-14480142D01*
X-1412500Y-14456250D01*
X-1412500Y-13543750D01*
X-1411326Y-13519858D01*
X-1407816Y-13496197D01*
X-1402004Y-13472993D01*
X-1393946Y-13450471D01*
X-1383718Y-13428847D01*
X-1371421Y-13408330D01*
X-1357171Y-13389117D01*
X-1341107Y-13371393D01*
X-1323383Y-13355329D01*
X-1304170Y-13341079D01*
X-1283653Y-13328782D01*
X-1262029Y-13318554D01*
X-1239507Y-13310496D01*
X-1216303Y-13304684D01*
X-1192642Y-13301174D01*
X-1168750Y-13300000D01*
X-681250Y-13300000D01*
X-657358Y-13301174D01*
X-657358Y-13301174D01*
G37*
D17*
X-925000Y-14000000D03*
D16*
G36*
X-2532358Y-13301174D02*
X-2508697Y-13304684D01*
X-2485493Y-13310496D01*
X-2462971Y-13318554D01*
X-2441347Y-13328782D01*
X-2420830Y-13341079D01*
X-2401617Y-13355329D01*
X-2383893Y-13371393D01*
X-2367829Y-13389117D01*
X-2353579Y-13408330D01*
X-2341282Y-13428847D01*
X-2331054Y-13450471D01*
X-2322996Y-13472993D01*
X-2317184Y-13496197D01*
X-2313674Y-13519858D01*
X-2312500Y-13543750D01*
X-2312500Y-14456250D01*
X-2313674Y-14480142D01*
X-2317184Y-14503803D01*
X-2322996Y-14527007D01*
X-2331054Y-14549529D01*
X-2341282Y-14571153D01*
X-2353579Y-14591670D01*
X-2367829Y-14610883D01*
X-2383893Y-14628607D01*
X-2401617Y-14644671D01*
X-2420830Y-14658921D01*
X-2441347Y-14671218D01*
X-2462971Y-14681446D01*
X-2485493Y-14689504D01*
X-2508697Y-14695316D01*
X-2532358Y-14698826D01*
X-2556250Y-14700000D01*
X-3043750Y-14700000D01*
X-3067642Y-14698826D01*
X-3091303Y-14695316D01*
X-3114507Y-14689504D01*
X-3137029Y-14681446D01*
X-3158653Y-14671218D01*
X-3179170Y-14658921D01*
X-3198383Y-14644671D01*
X-3216107Y-14628607D01*
X-3232171Y-14610883D01*
X-3246421Y-14591670D01*
X-3258718Y-14571153D01*
X-3268946Y-14549529D01*
X-3277004Y-14527007D01*
X-3282816Y-14503803D01*
X-3286326Y-14480142D01*
X-3287500Y-14456250D01*
X-3287500Y-13543750D01*
X-3286326Y-13519858D01*
X-3282816Y-13496197D01*
X-3277004Y-13472993D01*
X-3268946Y-13450471D01*
X-3258718Y-13428847D01*
X-3246421Y-13408330D01*
X-3232171Y-13389117D01*
X-3216107Y-13371393D01*
X-3198383Y-13355329D01*
X-3179170Y-13341079D01*
X-3158653Y-13328782D01*
X-3137029Y-13318554D01*
X-3114507Y-13310496D01*
X-3091303Y-13304684D01*
X-3067642Y-13301174D01*
X-3043750Y-13300000D01*
X-2556250Y-13300000D01*
X-2532358Y-13301174D01*
X-2532358Y-13301174D01*
G37*
D17*
X-2800000Y-14000000D03*
G04 #@! TD*
D22*
G04 #@! TO.C,U3*
X3050000Y-13250000D03*
X3550000Y-13250000D03*
X4050000Y-13250000D03*
X4550000Y-13250000D03*
X4550000Y-10350000D03*
X4050000Y-10350000D03*
X3550000Y-10350000D03*
X3050000Y-10350000D03*
D23*
X3425000Y-12125000D03*
X4175000Y-12125000D03*
X3425000Y-11475000D03*
X4175000Y-11475000D03*
G04 #@! TD*
D24*
G04 #@! TO.C,J1*
X-24130000Y12725000D03*
X-24130000Y17775000D03*
X-21590000Y12725000D03*
X-21590000Y17775000D03*
X-19050000Y12725000D03*
X-19050000Y17775000D03*
X-16510000Y12725000D03*
X-16510000Y17775000D03*
X-13970000Y12725000D03*
X-13970000Y17775000D03*
X-11430000Y12725000D03*
X-11430000Y17775000D03*
X-8890000Y12725000D03*
X-8890000Y17775000D03*
X-6350000Y12725000D03*
X-6350000Y17775000D03*
X-3810000Y12725000D03*
X-3810000Y17775000D03*
X-1270000Y12725000D03*
X-1270000Y17775000D03*
X1270000Y12725000D03*
X1270000Y17775000D03*
X3810000Y12725000D03*
X3810000Y17775000D03*
X6350000Y12725000D03*
X6350000Y17775000D03*
X8890000Y12725000D03*
X8890000Y17775000D03*
X11430000Y12725000D03*
X11430000Y17775000D03*
X13970000Y12725000D03*
X13970000Y17775000D03*
X16510000Y12725000D03*
X16510000Y17775000D03*
X19050000Y12725000D03*
X19050000Y17775000D03*
X21590000Y12725000D03*
X21590000Y17775000D03*
X24130000Y12725000D03*
X24130000Y17775000D03*
G04 #@! TD*
D25*
G04 #@! TO.C,L1*
X-9600000Y-9275000D03*
X-9600000Y-7325000D03*
G04 #@! TD*
D16*
G04 #@! TO.C,C10*
G36*
X3265191Y-7926053D02*
X3286426Y-7929203D01*
X3307250Y-7934419D01*
X3327462Y-7941651D01*
X3346868Y-7950830D01*
X3365281Y-7961866D01*
X3382524Y-7974654D01*
X3398430Y-7989070D01*
X3412846Y-8004976D01*
X3425634Y-8022219D01*
X3436670Y-8040632D01*
X3445849Y-8060038D01*
X3453081Y-8080250D01*
X3458297Y-8101074D01*
X3461447Y-8122309D01*
X3462500Y-8143750D01*
X3462500Y-8656250D01*
X3461447Y-8677691D01*
X3458297Y-8698926D01*
X3453081Y-8719750D01*
X3445849Y-8739962D01*
X3436670Y-8759368D01*
X3425634Y-8777781D01*
X3412846Y-8795024D01*
X3398430Y-8810930D01*
X3382524Y-8825346D01*
X3365281Y-8838134D01*
X3346868Y-8849170D01*
X3327462Y-8858349D01*
X3307250Y-8865581D01*
X3286426Y-8870797D01*
X3265191Y-8873947D01*
X3243750Y-8875000D01*
X2806250Y-8875000D01*
X2784809Y-8873947D01*
X2763574Y-8870797D01*
X2742750Y-8865581D01*
X2722538Y-8858349D01*
X2703132Y-8849170D01*
X2684719Y-8838134D01*
X2667476Y-8825346D01*
X2651570Y-8810930D01*
X2637154Y-8795024D01*
X2624366Y-8777781D01*
X2613330Y-8759368D01*
X2604151Y-8739962D01*
X2596919Y-8719750D01*
X2591703Y-8698926D01*
X2588553Y-8677691D01*
X2587500Y-8656250D01*
X2587500Y-8143750D01*
X2588553Y-8122309D01*
X2591703Y-8101074D01*
X2596919Y-8080250D01*
X2604151Y-8060038D01*
X2613330Y-8040632D01*
X2624366Y-8022219D01*
X2637154Y-8004976D01*
X2651570Y-7989070D01*
X2667476Y-7974654D01*
X2684719Y-7961866D01*
X2703132Y-7950830D01*
X2722538Y-7941651D01*
X2742750Y-7934419D01*
X2763574Y-7929203D01*
X2784809Y-7926053D01*
X2806250Y-7925000D01*
X3243750Y-7925000D01*
X3265191Y-7926053D01*
X3265191Y-7926053D01*
G37*
D18*
X3025000Y-8400000D03*
D16*
G36*
X4840191Y-7926053D02*
X4861426Y-7929203D01*
X4882250Y-7934419D01*
X4902462Y-7941651D01*
X4921868Y-7950830D01*
X4940281Y-7961866D01*
X4957524Y-7974654D01*
X4973430Y-7989070D01*
X4987846Y-8004976D01*
X5000634Y-8022219D01*
X5011670Y-8040632D01*
X5020849Y-8060038D01*
X5028081Y-8080250D01*
X5033297Y-8101074D01*
X5036447Y-8122309D01*
X5037500Y-8143750D01*
X5037500Y-8656250D01*
X5036447Y-8677691D01*
X5033297Y-8698926D01*
X5028081Y-8719750D01*
X5020849Y-8739962D01*
X5011670Y-8759368D01*
X5000634Y-8777781D01*
X4987846Y-8795024D01*
X4973430Y-8810930D01*
X4957524Y-8825346D01*
X4940281Y-8838134D01*
X4921868Y-8849170D01*
X4902462Y-8858349D01*
X4882250Y-8865581D01*
X4861426Y-8870797D01*
X4840191Y-8873947D01*
X4818750Y-8875000D01*
X4381250Y-8875000D01*
X4359809Y-8873947D01*
X4338574Y-8870797D01*
X4317750Y-8865581D01*
X4297538Y-8858349D01*
X4278132Y-8849170D01*
X4259719Y-8838134D01*
X4242476Y-8825346D01*
X4226570Y-8810930D01*
X4212154Y-8795024D01*
X4199366Y-8777781D01*
X4188330Y-8759368D01*
X4179151Y-8739962D01*
X4171919Y-8719750D01*
X4166703Y-8698926D01*
X4163553Y-8677691D01*
X4162500Y-8656250D01*
X4162500Y-8143750D01*
X4163553Y-8122309D01*
X4166703Y-8101074D01*
X4171919Y-8080250D01*
X4179151Y-8060038D01*
X4188330Y-8040632D01*
X4199366Y-8022219D01*
X4212154Y-8004976D01*
X4226570Y-7989070D01*
X4242476Y-7974654D01*
X4259719Y-7961866D01*
X4278132Y-7950830D01*
X4297538Y-7941651D01*
X4317750Y-7934419D01*
X4338574Y-7929203D01*
X4359809Y-7926053D01*
X4381250Y-7925000D01*
X4818750Y-7925000D01*
X4840191Y-7926053D01*
X4840191Y-7926053D01*
G37*
D18*
X4600000Y-8400000D03*
G04 #@! TD*
M02*
